<svg width="30" height="33" viewBox="0 0 30 33" fill="none" xmlns="http://www.w3.org/2000/svg">
<g clip-path="url(#clip0)">
<path d="M23.2906 11.8125V11.6625H23.1406H21.1875H21.0375V11.8125V14.7422C21.0375 15.1989 20.6676 15.5688 20.2109 15.5688C19.7542 15.5688 19.3844 15.1989 19.3844 14.7422V11.8125V11.6625H19.2344H9.85938H9.70937V11.8125V14.7422C9.70937 15.1989 9.33952 15.5688 8.88281 15.5688C8.4261 15.5688 8.05625 15.1989 8.05625 14.7422V11.8125V11.6625H7.90625H5.95312H5.80313V11.8125V27.0469V27.1969H5.95312H16.3047C16.7614 27.1969 17.1313 27.5667 17.1313 28.0234C17.1313 28.4801 16.7614 28.85 16.3047 28.85H4.97656C4.51985 28.85 4.15 28.4801 4.15 28.0234V10.8359C4.15 10.3792 4.51985 10.0094 4.97656 10.0094H7.95264H8.08602L8.10161 9.8769C8.48053 6.65654 11.2265 4.15 14.5469 4.15C17.8673 4.15 20.6132 6.65654 20.9921 9.8769L21.0077 10.0094H21.1411H24.1172C24.5739 10.0094 24.9438 10.3792 24.9438 10.8359V20.2109C24.9438 20.6676 24.5739 21.0375 24.1172 21.0375C23.6605 21.0375 23.2906 20.6676 23.2906 20.2109V11.8125ZM19.1689 10.0094H19.3463L19.3169 9.83446C18.9319 7.5492 16.9398 5.80313 14.5469 5.80313C12.154 5.80313 10.1619 7.5492 9.77689 9.83446L9.74742 10.0094H9.9248H19.1689Z" fill="black" stroke="white" stroke-width="0.3"/>
<path d="M24.0996 20V28H15.5996" stroke="black" stroke-width="1.35" stroke-linecap="round"/>
</g>
<rect x="4.15" y="4.15" width="20.7938" height="24.7" stroke="white" stroke-width="0.3"/>
<defs>
<clipPath id="clip0">
</clipPath>
</defs>
</svg>
