<svg width="27" height="28" viewBox="0 0 27 28" fill="none" xmlns="http://www.w3.org/2000/svg">
<path d="M9.5141 27.9993C8.94458 27.9072 8.36757 27.8459 7.80629 27.7174C4.0647 26.8578 1.17738 24.0372 0.610111 20.2175C0.320855 18.2675 0.703033 16.3942 1.3962 14.5676C1.46064 14.3967 1.52809 14.2273 1.60227 14.0608C1.71843 13.8001 1.91926 13.7088 2.1613 13.8008C2.3951 13.8899 2.47004 14.0973 2.38386 14.3653C2.11259 15.206 1.78137 16.0342 1.59253 16.8916C1.02676 19.4529 1.44116 21.8425 3.13098 23.9364C4.599 25.7557 6.55634 26.7964 8.89962 27.0725C12.8016 27.5311 15.9159 26.1486 18.2038 23.0556C19.384 21.4598 19.9161 19.634 19.8973 17.6635C19.8951 17.4401 19.8614 17.2166 19.7909 16.9843C19.743 17.0785 19.695 17.1728 19.647 17.267C19.0978 18.3457 18.3312 19.2506 17.3622 19.9955C17.1659 20.1467 16.9651 20.2526 16.7313 20.0773C16.5109 19.913 16.5514 19.7048 16.6338 19.4843C17.1427 18.1273 17.4012 16.7316 17.3248 15.2812C17.2311 13.5006 16.6661 11.8712 15.6507 10.3974C14.8369 9.21573 14.0718 8.0114 13.4925 6.70191C12.7686 5.06668 12.2935 3.37522 12.3055 1.52893C12.2216 1.5932 12.1639 1.62753 12.1189 1.67281C10.1878 3.64837 8.83292 5.92702 8.31211 8.63073C8.2057 9.18213 8.19146 9.75107 8.1465 10.3134C8.12702 10.5559 8.0266 10.718 7.77032 10.7443C7.52003 10.7706 7.35592 10.6574 7.30946 10.4091C7.06067 9.07331 6.22437 8.13921 5.12505 7.39135C4.79008 7.16348 4.43039 6.97067 4.02873 6.73039C4.12989 7.12623 4.23181 7.45123 4.29325 7.78427C4.45287 8.65264 4.37568 9.51152 4.10216 10.347C3.92606 10.8831 3.7065 11.406 3.49218 11.9289C3.38352 12.1933 3.16545 12.2758 2.92791 12.1787C2.69335 12.083 2.62066 11.8778 2.72033 11.6105C2.9339 11.0387 3.17894 10.4756 3.3498 9.89129C3.70575 8.67674 3.52515 7.51258 2.91067 6.40685C2.78478 6.17972 2.58619 5.95039 2.81475 5.68382C3.0568 5.40118 3.32807 5.56989 3.58285 5.66556C5.16177 6.25859 5.98757 6.85966 7.46233 8.48758C7.52453 8.22539 7.57848 7.98292 7.64068 7.74337C8.3211 5.11489 9.72692 2.8932 11.6528 0.965841C11.9458 0.672245 12.2583 0.397639 12.5663 0.11865C12.7139 -0.015002 12.9072 -0.0471368 13.0496 0.0814025C13.1575 0.178537 13.2714 0.364043 13.2504 0.488931C13.0159 1.86927 13.21 3.2109 13.5937 4.53792C14.1055 6.30826 14.9463 7.92814 16.0134 9.43483C16.9036 10.6925 17.5938 12.0297 17.9295 13.5291C18.2757 15.0752 18.2525 16.6199 17.9093 18.1631C17.898 18.2142 17.889 18.2661 17.8636 18.3939C18.5889 17.5635 19.0843 16.7017 19.3316 15.7099C19.369 15.5594 19.4005 15.4083 19.429 15.2556C19.4694 15.038 19.6043 14.9087 19.8246 14.8963C20.048 14.8839 20.1933 15.0102 20.257 15.2162C20.5111 16.0363 20.7396 16.8638 20.7419 17.7285C20.7531 22.475 17.3862 26.6365 12.6502 27.7188C12.0994 27.8444 11.5336 27.908 10.9746 28C10.486 27.9993 10.0004 27.9993 9.5141 27.9993Z" fill="black"/>
<path d="M10.3607 17.8482C9.40748 19.3395 8.42057 20.7396 7.88027 22.366C7.42766 23.7274 8.34189 25.1815 9.7994 25.4867C11.2764 25.7964 12.7354 24.817 12.943 23.3994C13.0284 22.8181 12.8448 22.3032 12.6298 21.7869C12.5383 21.5678 12.4214 21.3582 12.339 21.1369C12.2558 20.9141 12.3495 20.7359 12.5653 20.6432C12.7639 20.5577 12.9775 20.5796 13.0779 20.7841C13.478 21.5962 13.8924 22.4062 13.7913 23.3542C13.6272 24.8952 12.396 26.1309 10.7991 26.3464C9.25386 26.5545 7.71466 25.6445 7.1369 24.2101C6.73599 23.2147 6.94432 22.2842 7.36321 21.3574C8.07061 19.7923 9.00133 18.3543 9.98525 16.9462C10.1996 16.6394 10.53 16.6431 10.7414 16.9564C11.2075 17.6488 11.6631 18.3484 12.1134 19.051C12.2723 19.2979 12.2199 19.5053 11.9965 19.6397C11.78 19.7697 11.5544 19.7134 11.4016 19.4768C11.0628 18.9532 10.7301 18.4266 10.3607 17.8482Z" fill="black"/>
<path d="M19.1436 1.64873C19.5558 1.64873 19.9364 1.64654 20.3171 1.64946C20.6416 1.65238 20.7975 1.7853 20.8005 2.05187C20.8035 2.31845 20.6431 2.46378 20.3276 2.46743C19.9462 2.47182 19.5648 2.46817 19.1436 2.46817C19.1436 2.8589 19.1541 3.22845 19.1376 3.59727C19.1324 3.72508 19.0987 3.90401 19.0102 3.96316C18.8911 4.04277 18.685 4.08513 18.5554 4.03912C18.4437 3.99968 18.3253 3.81856 18.3163 3.69221C18.2856 3.29564 18.3051 2.89614 18.3051 2.46743C17.8734 2.46743 17.474 2.47401 17.0754 2.46524C16.7232 2.45721 16.5073 2.13659 16.6909 1.8671C16.7674 1.75536 16.9562 1.66845 17.1008 1.65749C17.4883 1.62901 17.8802 1.648 18.3043 1.648C18.3043 1.22148 18.2856 0.821985 18.3156 0.425412C18.3253 0.298334 18.4377 0.123783 18.5509 0.0741203C18.6678 0.0222663 18.8836 0.0470978 18.9818 0.125974C19.0822 0.206311 19.1279 0.391817 19.1361 0.534963C19.1579 0.895749 19.1436 1.25873 19.1436 1.64873Z" fill="black"/>
<path d="M20.9304 8.27952C21.35 8.27952 21.7314 8.26638 22.1114 8.28683C22.247 8.29413 22.4171 8.34818 22.504 8.44093C22.7281 8.68048 22.558 9.06537 22.2245 9.08801C21.9083 9.10992 21.5891 9.09677 21.2713 9.09896C21.1709 9.09969 21.0705 9.09896 20.9311 9.09896C20.9311 9.50065 20.9468 9.87239 20.9229 10.2412C20.9139 10.3807 20.8539 10.5589 20.7505 10.6429C20.486 10.8591 20.1106 10.6677 20.0963 10.3179C20.0806 9.9279 20.0926 9.53717 20.0926 9.0975C19.6714 9.0975 19.2735 9.10334 18.8763 9.09531C18.5803 9.08947 18.4395 8.96166 18.4275 8.71554C18.4147 8.44677 18.5714 8.28683 18.8801 8.28098C19.2713 8.27295 19.6624 8.27879 20.0903 8.27879C20.0903 7.87127 20.0678 7.4893 20.1016 7.11172C20.1143 6.96346 20.2155 6.77138 20.3391 6.69396C20.6029 6.52818 20.9139 6.74216 20.9259 7.08323C20.9409 7.46593 20.9304 7.84863 20.9304 8.27952Z" fill="black"/>
<path d="M25.155 5.23089C25.155 5.63258 25.158 5.99556 25.1543 6.3578C25.1505 6.69011 25.0082 6.85005 24.7286 6.85005C24.4454 6.84932 24.3172 6.69887 24.315 6.35488C24.3127 5.99264 24.3142 5.63039 24.3142 5.23235C23.9028 5.23235 23.5222 5.24258 23.1422 5.22651C23.0111 5.2214 22.8335 5.1878 22.7668 5.10162C22.6851 4.99573 22.6394 4.8 22.6851 4.68241C22.7286 4.56848 22.9009 4.44578 23.0298 4.43044C23.3431 4.39247 23.6638 4.41438 23.9815 4.41219C24.0819 4.41146 24.1824 4.41219 24.315 4.41219C24.315 4.01707 24.3135 3.65556 24.3157 3.29404C24.318 2.94713 24.4431 2.79668 24.7241 2.79303C25.0127 2.78938 25.1528 2.9537 25.1558 3.30792C25.1588 3.66213 25.1565 4.01634 25.1565 4.41438C25.5754 4.41438 25.9733 4.41219 26.372 4.41511C26.62 4.41657 26.7849 4.52247 26.8096 4.77882C26.8359 5.04977 26.6785 5.2214 26.3772 5.2287C25.9831 5.23747 25.5912 5.23089 25.155 5.23089Z" fill="black"/>
</svg>
