<svg width="31" height="26" viewBox="0 0 31 26" fill="none" xmlns="http://www.w3.org/2000/svg">
<g clip-path="url(#clip0)">
<path d="M0.332031 18.6857C0.372039 17.9453 0.406446 17.2042 0.453655 16.4638C0.614487 13.9485 0.972157 11.4711 1.96915 9.11756C2.96775 6.76097 4.55446 4.85199 6.66368 3.34185C6.94133 3.14282 7.20859 3.15831 7.37422 3.37592C7.53745 3.59044 7.47664 3.83671 7.19258 4.04271C6.03475 4.88297 5.01535 5.8541 4.18159 7.00336C2.94455 8.70944 2.23721 10.6223 1.82913 12.6505C1.32743 15.1465 1.26582 17.6758 1.23461 20.2074C1.22821 20.71 1.22741 21.2119 1.23141 21.7145C1.23621 22.2752 1.52427 22.6841 2.07237 22.8521C4.96094 23.7396 7.85271 24.6201 10.8765 24.981C13.3106 25.2714 15.7175 25.1956 18.0491 24.3638C20.7617 23.3965 22.9213 21.7261 24.6152 19.4748C26.2619 17.2863 27.3125 14.8236 28.1191 12.2532C28.8793 9.83004 29.3834 7.35108 29.8018 4.85431C29.8947 4.30214 29.9771 3.74765 30.0707 3.19548C30.1955 2.46054 29.7866 1.87739 29.0297 1.77207C27.559 1.56762 26.0883 1.3593 24.6128 1.19357C22.5596 0.96279 20.4984 0.839655 18.4292 0.886895C15.6494 0.949624 12.9225 1.29967 10.33 2.33818C9.8155 2.54418 9.3202 2.79665 8.8193 3.03362C8.48804 3.19006 8.23119 3.14437 8.10236 2.89268C7.97754 2.6495 8.07676 2.43653 8.39922 2.26539C10.2556 1.27876 12.2488 0.693287 14.33 0.366477C17.4562 -0.124513 20.5944 -0.0772727 23.7302 0.244117C25.5834 0.434627 27.4326 0.67625 29.2761 0.945752C30.4444 1.11613 31.1405 2.15387 30.9637 3.28996C30.5316 6.06785 30.0387 8.83335 29.2649 11.5446C28.5272 14.1312 27.567 16.6288 26.0891 18.9157C24.1295 21.9476 21.4858 24.1694 17.9419 25.3102C16.0215 25.9282 14.0435 26.0892 12.0335 25.9591C8.85291 25.7531 5.82111 24.8958 2.80052 23.9882C2.47725 23.8914 2.15399 23.7915 1.83233 23.6908C1.06978 23.4523 0.57928 22.9644 0.384842 22.2062C0.37604 22.1714 0.350435 22.1396 0.332831 22.1063C0.332031 20.9656 0.332031 19.8256 0.332031 18.6857Z" fill="black"/>
<path d="M14.4541 7.58689C14.4654 4.9089 16.4145 2.63904 19.1455 2.12404C21.7876 1.62608 24.5049 3.05413 25.5403 5.48585C25.7132 5.89165 25.666 6.14877 25.3979 6.26416C25.1066 6.38961 24.889 6.24867 24.7066 5.81886C23.828 3.74493 21.5179 2.54688 19.2527 2.98908C16.9754 3.43438 15.3415 5.37898 15.3527 7.63258C15.3647 10.0767 17.3491 12.1429 19.8384 12.3024C22.4213 12.4681 24.669 10.7164 25.0186 8.26064C25.0474 8.06007 25.0562 7.85716 25.0698 7.65504C25.0898 7.36308 25.2643 7.17411 25.5203 7.17334C25.7892 7.17257 25.9628 7.36927 25.9684 7.68059C26.0068 10.072 24.1849 12.3465 21.7148 12.9909C18.0477 13.9489 14.4389 11.2623 14.4541 7.58689Z" fill="black"/>
<path d="M9.22074 6.18934C11.9469 6.32409 13.9785 8.41738 13.9265 11.0365C13.8825 13.2289 12.2029 15.1123 9.91528 15.5352C7.72205 15.9402 5.4384 14.7414 4.58463 12.7348C4.4574 12.4359 4.52302 12.1974 4.76386 12.0882C5.02391 11.9705 5.26396 12.0905 5.41919 12.4119C6.14974 13.9259 7.38758 14.7166 9.10472 14.7321C11.1763 14.7507 12.9439 13.0849 13.0263 11.0969C13.1119 9.02685 11.5484 7.26889 9.45599 7.08148C7.18354 6.87858 5.25196 8.47623 5.10633 10.6803C5.10553 10.6896 5.10473 10.6996 5.10473 10.7089C5.07592 11.1527 4.91989 11.3471 4.61183 11.3254C4.30617 11.3037 4.18375 11.0961 4.20935 10.6423C4.35338 8.08282 6.62903 6.06155 9.22074 6.18934Z" fill="black"/>
<path d="M21.6705 18.3013C21.6753 20.8228 19.7053 22.9115 17.26 23.0888C14.6331 23.2786 12.3663 21.5493 11.9998 19.0757C11.5829 16.2622 13.8497 13.6795 16.7207 13.6934C16.9504 13.6942 17.1688 13.743 17.2136 13.973C17.2416 14.1186 17.1864 14.3184 17.0912 14.4353C17.0176 14.5259 16.8263 14.5515 16.6839 14.5608C14.9876 14.67 13.7881 15.4769 13.1304 16.9855C12.5055 18.419 12.8992 20.0802 14.0674 21.1675C15.218 22.2393 16.9367 22.5359 18.4002 21.9163C19.8677 21.2945 20.8183 19.8749 20.7679 18.3292C20.7199 16.8461 19.9973 15.7464 18.6747 15.0092C18.6227 14.9805 18.5675 14.9573 18.5171 14.9271C18.2682 14.7807 18.189 14.5616 18.3042 14.3408C18.4242 14.1108 18.6715 14.038 18.9443 14.1681C19.8965 14.6212 20.6199 15.3066 21.1152 16.2134C21.488 16.8988 21.6793 17.6314 21.6705 18.3013Z" fill="black"/>
<path d="M21.1621 7.32833C21.5894 7.69231 21.783 8.13529 21.7206 8.67661C21.6422 9.35579 21.0237 9.91261 20.2995 9.93352C19.8506 9.94668 19.4009 9.94359 18.952 9.93894C18.6152 9.93584 18.4431 9.78715 18.4415 9.46421C18.4335 8.22744 18.4335 6.99068 18.4415 5.75468C18.4439 5.43174 18.612 5.28693 18.952 5.27918C19.2513 5.27221 19.553 5.29932 19.8498 5.27376C20.9708 5.17618 21.7726 6.25032 21.1621 7.32833ZM19.3497 9.06383C19.6818 9.06383 19.9899 9.07855 20.2955 9.05996C20.6044 9.04137 20.822 8.79743 20.8308 8.50237C20.8396 8.20344 20.6356 7.93548 20.3363 7.91225C20.0139 7.88747 19.6882 7.90683 19.3497 7.90683C19.3497 8.29869 19.3497 8.66035 19.3497 9.06383ZM19.3537 7.0201C19.6074 7.0201 19.845 7.03869 20.0787 7.01468C20.3091 6.99068 20.4603 6.8505 20.4755 6.6143C20.4899 6.39746 20.3923 6.21005 20.1715 6.17752C19.905 6.1388 19.629 6.16823 19.3529 6.16823C19.3537 6.46561 19.3537 6.73124 19.3537 7.0201Z" fill="black"/>
<path d="M15.4514 18.3861C15.4514 17.8169 15.4482 17.2477 15.4522 16.6785C15.4554 16.2611 15.5986 16.1256 16.0275 16.1217C16.3364 16.1194 16.6452 16.117 16.9541 16.1225C17.8831 16.1372 18.5536 16.6073 18.8241 17.4653C19.0529 18.1902 19.0441 18.9158 18.6856 19.6051C18.3288 20.2905 17.7535 20.6661 16.9413 20.6653C16.6324 20.6653 16.3236 20.673 16.0147 20.6715C15.6186 20.6692 15.469 20.5321 15.465 20.1518C15.4586 19.5633 15.4634 18.9755 15.4634 18.3869C15.4602 18.3861 15.4562 18.3861 15.4514 18.3861ZM16.3692 19.7817C16.9645 19.8196 17.5374 19.8676 17.8479 19.2883C18.1871 18.6549 18.1759 17.9974 17.7855 17.3887C17.451 16.8667 16.8933 16.9968 16.3692 17.0007C16.3692 17.9354 16.3692 18.8469 16.3692 19.7817Z" fill="black"/>
<path d="M11.0589 12.3742C11.0437 12.6228 10.9189 12.7986 10.7061 12.8033C10.5468 12.8071 10.3428 12.7119 10.2348 12.5949C10.1172 12.4672 10.0756 12.2674 10.0211 12.0923C9.97233 11.9351 9.88192 11.8887 9.71708 11.8933C9.2786 11.9041 8.84011 11.9057 8.40163 11.8925C8.22959 11.8879 8.14958 11.9467 8.10477 12.1001C8.06716 12.2294 8.00875 12.3525 7.95514 12.4772C7.82791 12.7723 7.60147 12.8908 7.35342 12.7947C7.09737 12.6964 7.00295 12.4648 7.11737 12.169C7.49585 11.1963 7.88152 10.2252 8.2648 9.25404C8.36082 9.01087 8.45444 8.76769 8.55045 8.5253C8.64167 8.29529 8.81371 8.15667 9.06976 8.15822C9.32501 8.15899 9.49624 8.29684 9.58666 8.52839C10.0636 9.75355 10.5412 10.9787 11.0173 12.2046C11.0405 12.2666 11.0493 12.334 11.0589 12.3742ZM9.06576 9.66371C8.87212 10.1601 8.70889 10.5806 8.54165 11.0097C8.90412 11.0097 9.22579 11.0097 9.59146 11.0097C9.41783 10.5644 9.25619 10.1508 9.06576 9.66371Z" fill="black"/>
<path d="M23.5205 8.99847C23.5205 9.20989 23.5286 9.42209 23.5181 9.63351C23.5069 9.87978 23.3653 10.0254 23.1117 10.0502C22.8676 10.0742 22.6516 9.92082 22.6388 9.66991C22.6164 9.22848 22.6172 8.78473 22.6372 8.34253C22.6492 8.09006 22.8564 7.94215 23.1037 7.95376C23.3485 7.96538 23.5021 8.12724 23.5214 8.39209C23.523 8.41145 23.523 8.43081 23.523 8.45017C23.523 8.63294 23.523 8.81571 23.523 8.99847C23.5213 8.99847 23.5205 8.99847 23.5205 8.99847Z" fill="black"/>
</g>
<defs>
<clipPath id="clip0">
<rect width="30.6588" height="26" fill="white" transform="translate(0.332031)"/>
</clipPath>
</defs>
</svg>
