<?xml version="1.0" encoding="UTF-8"?>
<svg xmlns="http://www.w3.org/2000/svg" xmlns:xlink="http://www.w3.org/1999/xlink" width="20pt" height="19pt" viewBox="0 0 20 19" version="1.1">
<g id="surface1">
<path style=" stroke:none;fill-rule:nonzero;fill:rgb(0%,0%,0%);fill-opacity:1;" d="M 3.691406 0.808594 C 3.511719 0.984375 3.398438 1.214844 3.363281 1.492188 L 3.296875 1.914062 L 2.460938 1.953125 C 1.5625 1.980469 1.210938 2.125 0.976562 2.585938 C 0.785156 2.9375 0.804688 17.195312 0.984375 17.628906 C 1.257812 18.253906 0.796875 18.226562 9.941406 18.226562 C 19.003906 18.226562 18.589844 18.253906 18.890625 17.675781 C 19.015625 17.433594 19.035156 16.503906 19.015625 9.988281 L 18.988281 2.578125 L 18.675781 2.28125 C 18.371094 1.980469 18.363281 1.980469 17.28125 1.941406 L 16.191406 1.914062 L 16.191406 1.566406 C 16.191406 0.882812 15.484375 0.394531 14.828125 0.636719 C 14.460938 0.78125 14.222656 1.085938 14.148438 1.539062 L 14.089844 1.933594 L 12.6875 1.933594 L 12.6875 1.566406 C 12.6875 1.289062 12.625 1.125 12.414062 0.902344 C 12.179688 0.644531 12.074219 0.597656 11.695312 0.597656 C 11.316406 0.597656 11.210938 0.644531 10.976562 0.902344 C 10.8125 1.066406 10.683594 1.351562 10.644531 1.566406 L 10.578125 1.933594 L 9.933594 1.933594 C 9.242188 1.933594 9.269531 1.960938 9.136719 1.316406 C 9.101562 1.152344 8.949219 0.910156 8.777344 0.773438 C 8.183594 0.285156 7.300781 0.707031 7.148438 1.554688 L 7.082031 1.933594 L 6.242188 1.933594 C 5.464844 1.933594 5.398438 1.914062 5.398438 1.75 C 5.398438 1.648438 5.332031 1.398438 5.246094 1.195312 C 4.972656 0.535156 4.1875 0.339844 3.691406 0.808594 Z M 4.640625 1.425781 C 4.8125 1.628906 4.734375 3.203125 4.546875 3.3125 C 4.347656 3.433594 4.300781 3.425781 4.128906 3.257812 C 3.9375 3.082031 3.910156 1.574219 4.089844 1.398438 C 4.242188 1.25 4.5 1.261719 4.640625 1.425781 Z M 8.476562 2.292969 C 8.476562 3.082031 8.445312 3.269531 8.3125 3.339844 C 8.199219 3.414062 8.117188 3.40625 8.011719 3.324219 C 7.886719 3.222656 7.859375 3.011719 7.859375 2.300781 C 7.859375 1.8125 7.886719 1.378906 7.925781 1.34375 C 7.964844 1.308594 8.105469 1.289062 8.238281 1.308594 C 8.476562 1.335938 8.476562 1.335938 8.476562 2.292969 Z M 11.980469 2.292969 C 11.980469 3.082031 11.949219 3.269531 11.816406 3.339844 C 11.703125 3.414062 11.621094 3.40625 11.515625 3.324219 C 11.390625 3.222656 11.363281 3.011719 11.363281 2.300781 C 11.363281 1.8125 11.390625 1.378906 11.429688 1.34375 C 11.46875 1.308594 11.609375 1.289062 11.742188 1.308594 C 11.980469 1.335938 11.980469 1.335938 11.980469 2.292969 Z M 15.472656 1.4375 C 15.5 1.519531 15.53125 1.953125 15.53125 2.394531 C 15.53125 3.128906 15.511719 3.222656 15.332031 3.3125 C 14.960938 3.507812 14.867188 3.296875 14.867188 2.300781 C 14.867188 1.8125 14.894531 1.378906 14.933594 1.351562 C 15.046875 1.234375 15.417969 1.289062 15.472656 1.4375 Z M 3.3125 3 C 3.3125 3.65625 3.742188 4.050781 4.449219 4.050781 C 4.914062 4.050781 5.265625 3.683594 5.359375 3.082031 L 5.417969 2.667969 L 7.09375 2.667969 L 7.160156 3.101562 C 7.253906 3.726562 7.605469 4.050781 8.191406 4.050781 C 8.75 4.050781 9.015625 3.800781 9.1875 3.148438 L 9.300781 2.667969 L 10.585938 2.667969 L 10.652344 3.101562 C 10.75 3.710938 11.117188 4.050781 11.675781 4.050781 C 12.214844 4.050781 12.6875 3.671875 12.6875 3.242188 C 12.6875 2.714844 12.746094 2.667969 13.457031 2.667969 C 14.089844 2.667969 14.109375 2.679688 14.109375 2.898438 C 14.109375 3.25 14.347656 3.726562 14.59375 3.902344 C 14.714844 3.984375 14.992188 4.050781 15.199219 4.050781 C 15.804688 4.042969 16.191406 3.636719 16.191406 3 L 16.191406 2.667969 L 17.1875 2.667969 C 18.171875 2.667969 18.191406 2.667969 18.277344 2.910156 C 18.332031 3.039062 18.371094 3.515625 18.371094 3.96875 L 18.371094 4.785156 L 1.515625 4.785156 L 1.515625 3.902344 C 1.515625 2.6875 1.523438 2.667969 2.507812 2.667969 L 3.3125 2.667969 Z M 18.371094 11.265625 C 18.371094 14.785156 18.332031 17.113281 18.277344 17.25 L 18.183594 17.492188 L 9.953125 17.492188 C 1.902344 17.492188 1.703125 17.492188 1.609375 17.316406 C 1.554688 17.195312 1.515625 15.152344 1.515625 11.332031 L 1.515625 5.523438 L 18.371094 5.523438 Z M 18.371094 11.265625 "/>
<path style=" stroke:none;fill-rule:nonzero;fill:rgb(0%,0%,0%);fill-opacity:1;" d="M 9.480469 7.375 C 7.964844 7.660156 6.515625 8.976562 6.117188 10.421875 C 5.910156 11.15625 5.945312 12.039062 6.183594 12.1875 C 6.503906 12.390625 6.667969 12.152344 6.78125 11.296875 C 6.96875 9.921875 7.585938 9.039062 8.757812 8.441406 C 9.289062 8.164062 9.394531 8.148438 10.320312 8.148438 C 11.203125 8.148438 11.382812 8.175781 11.835938 8.386719 C 12.613281 8.746094 13.199219 9.296875 13.5625 10.015625 C 13.855469 10.585938 13.875 10.695312 13.875 11.554688 C 13.875 12.410156 13.855469 12.519531 13.5625 13.089844 C 12.851562 14.5 11.25 15.300781 9.734375 15.003906 C 9.402344 14.949219 9.023438 14.839844 8.875 14.765625 L 8.609375 14.628906 L 9.042969 14.15625 C 9.734375 13.414062 9.648438 13.292969 8.183594 13.015625 C 6.867188 12.769531 6.601562 12.75 6.449219 12.925781 C 6.289062 13.109375 6.761719 15.742188 6.980469 15.898438 C 7.226562 16.082031 7.339844 16.046875 7.707031 15.640625 L 8.058594 15.273438 L 8.691406 15.519531 C 11.316406 16.542969 14.242188 14.921875 14.679688 12.214844 C 15.140625 9.296875 12.460938 6.804688 9.480469 7.375 Z M 9.480469 7.375 "/>
<path style=" stroke:none;fill-rule:nonzero;fill:rgb(0%,0%,0%);fill-opacity:1;" d="M 10.09375 8.976562 C 9.972656 9.105469 9.941406 9.351562 9.941406 10.410156 C 9.941406 11.882812 9.867188 11.726562 11.023438 12.566406 C 11.742188 13.082031 11.988281 13.164062 12.195312 12.960938 C 12.433594 12.730469 12.292969 12.519531 11.523438 11.9375 L 10.75 11.339844 L 10.777344 10.335938 C 10.804688 9.296875 10.710938 8.910156 10.398438 8.855469 C 10.320312 8.835938 10.179688 8.890625 10.09375 8.976562 Z M 10.09375 8.976562 "/>
</g>
</svg>
