<svg width="24" height="24" viewBox="0 0 24 24" fill="none" xmlns="http://www.w3.org/2000/svg">
<path d="M3.2184 1.92043C3.28389 0.622914 3.72922 0.0146298 4.59059 0.00100547C5.46891 -0.0126188 5.90962 0.568417 6.01748 1.89959H8.3096C8.26876 1.29211 8.33348 0.715079 8.8389 0.308754C9.1155 0.085957 9.42984 -0.0182288 9.7804 0.00260837C10.6048 0.0514955 11.0024 0.62051 11.094 1.91963H12.0001H12.9239C12.9239 1.85891 12.9234 1.80037 12.9229 1.74331C12.9219 1.62415 12.921 1.51142 12.9246 1.3987C12.9501 0.618106 13.5603 0.00100561 14.3061 0.000204178C15.0519 -0.000597251 15.6629 0.614099 15.6898 1.39549C15.6935 1.50319 15.6925 1.6109 15.6916 1.72551C15.6911 1.78061 15.6906 1.83732 15.6906 1.89639H17.5389C17.5389 1.84522 17.5385 1.79373 17.538 1.74203C17.537 1.62935 17.536 1.51562 17.5397 1.4019C17.5644 0.62051 18.173 0.00260846 18.9181 0.000204178C19.6646 -0.00220011 20.2764 0.611694 20.3049 1.39309C20.3085 1.49947 20.3076 1.6062 20.3066 1.72685C20.3062 1.78708 20.3056 1.85078 20.3056 1.91963H20.5899C20.789 1.91963 20.988 1.91919 21.187 1.91876C21.6513 1.91775 22.1157 1.91674 22.58 1.92123C23.4052 1.92844 23.9977 2.54073 23.9977 3.40227C24.0008 9.77203 24.0008 16.1418 23.9977 22.5107C23.9977 23.3867 23.4044 23.9974 22.5562 23.9982C15.5188 24.0006 8.48064 24.0006 1.44326 23.9982C0.596528 23.9982 0.00250399 23.3851 0.00173353 22.5107C-0.000577845 16.141 -0.000577845 9.77123 0.00173353 3.40227C0.00173353 2.54234 0.594987 1.92844 1.41938 1.92123C1.8246 1.9174 2.22945 1.91842 2.64007 1.91946C2.83139 1.91994 3.02396 1.92043 3.2184 1.92043ZM0.923203 6.73221V7.05118V22.3465C0.923203 22.9002 1.05649 23.0397 1.58349 23.0397H22.4028C22.9476 23.0397 23.0754 22.9042 23.0754 22.3288V7.064V6.73301C15.6837 6.73221 8.32423 6.73221 0.923203 6.73221ZM0.924744 5.73924H23.0739C23.0739 5.50704 23.0745 5.2765 23.0752 5.04713C23.0767 4.47771 23.0783 3.91555 23.0701 3.35338C23.0654 3.04964 22.8697 2.88375 22.5492 2.88134C21.8574 2.87653 21.1647 2.87894 20.4728 2.88134C20.4368 2.88134 20.4005 2.89016 20.3616 2.89959C20.3431 2.90408 20.324 2.90872 20.3041 2.9126C20.3041 2.96883 20.3046 3.02356 20.3051 3.07725C20.306 3.1904 20.307 3.29892 20.3033 3.40708C20.2748 4.18767 19.6615 4.80157 18.9165 4.79916C18.1722 4.79676 17.5628 4.17885 17.5382 3.39746C17.5345 3.28364 17.5355 3.16944 17.5365 3.05667C17.5369 3.00509 17.5374 2.9538 17.5374 2.90298H15.6891C15.6891 2.96205 15.6895 3.01875 15.69 3.07386C15.691 3.18847 15.6919 3.29617 15.6883 3.40387C15.6605 4.18527 15.0496 4.79996 14.3045 4.79916C13.5595 4.79836 12.9485 4.18126 12.9231 3.40067C12.9194 3.28655 12.9204 3.17244 12.9214 3.05858C12.9219 3.00612 12.9223 2.95371 12.9223 2.90138H11.091C10.997 4.19168 10.5878 4.7647 9.75035 4.79836C9.3998 4.81198 9.08853 4.69978 8.81502 4.47298C8.32732 4.06585 8.2703 3.49684 8.30651 2.90058H6.01671C5.90653 4.2061 5.50898 4.7631 4.67688 4.79836C4.32632 4.81279 4.01351 4.70299 3.74154 4.47458C3.25461 4.06746 3.18912 3.50165 3.23612 2.88455C3.04759 2.88455 2.86197 2.88343 2.67844 2.88232C2.22146 2.87957 1.77746 2.87689 1.33386 2.89176C1.08423 2.89977 0.930137 3.08811 0.927055 3.35258C0.92161 3.90931 0.922707 4.46643 0.923818 5.03131C0.92428 5.26578 0.924744 5.50158 0.924744 5.73924ZM5.07598 2.40048C5.07598 2.30503 5.07656 2.20957 5.07715 2.11414C5.07846 1.89949 5.07977 1.68497 5.07444 1.47083C5.06596 1.16308 4.87797 0.96272 4.61601 0.961919C4.35406 0.961118 4.1599 1.16147 4.15682 1.46842C4.14912 2.08793 4.14989 2.70823 4.15682 3.32774C4.16067 3.63388 4.35329 3.83584 4.61447 3.83665C4.87566 3.83745 5.06673 3.63549 5.07444 3.32934C5.08028 3.1166 5.0788 2.90309 5.07732 2.68935C5.07665 2.59309 5.07598 2.49679 5.07598 2.40048ZM10.1533 2.4069C10.1533 2.31327 10.1537 2.21956 10.1541 2.12583C10.1549 1.91948 10.1557 1.713 10.1525 1.50689C10.1471 1.1735 9.97071 0.966728 9.69873 0.961919C9.42676 0.95711 9.23569 1.16548 9.23261 1.49247C9.22721 2.09193 9.22798 2.6922 9.23184 3.29167C9.23415 3.62266 9.41521 3.83264 9.68487 3.83665C9.96377 3.84145 10.1479 3.62427 10.1525 3.27564C10.1552 3.07594 10.1545 2.87546 10.1539 2.67475C10.1536 2.5855 10.1533 2.4962 10.1533 2.4069ZM14.7676 2.43014C14.7676 2.33175 14.7682 2.23329 14.7688 2.13483C14.7701 1.91326 14.7714 1.69166 14.766 1.47083C14.7583 1.16388 14.5688 0.96272 14.3069 0.96272C14.0441 0.96272 13.8523 1.16308 13.8484 1.47003C13.8407 2.08953 13.8407 2.70984 13.8484 3.32934C13.8523 3.63549 14.0457 3.83745 14.3069 3.83745C14.568 3.83745 14.7576 3.63549 14.766 3.32934C14.7719 3.12263 14.7704 2.91591 14.7689 2.70919C14.7683 2.61618 14.7676 2.52316 14.7676 2.43014ZM18.4612 2.38045C18.4612 2.47352 18.4608 2.56658 18.4603 2.65963C18.4594 2.87666 18.4584 3.09358 18.4627 3.31011C18.4696 3.63388 18.6615 3.84386 18.9327 3.83745C19.1923 3.83104 19.3788 3.62747 19.3819 3.31892C19.3888 2.70903 19.388 2.09915 19.3819 1.48926C19.3788 1.16468 19.1831 0.955508 18.9119 0.961919C18.6507 0.96833 18.4696 1.17029 18.4627 1.48044C18.4579 1.6889 18.459 1.89736 18.4602 2.10609C18.4607 2.19748 18.4612 2.28893 18.4612 2.38045Z" fill="black"/>
<path d="M3.2184 1.92043C3.28389 0.622914 3.72922 0.0146298 4.59059 0.00100547C5.46891 -0.0126188 5.90962 0.568417 6.01748 1.89959H8.3096C8.26876 1.29211 8.33348 0.715079 8.8389 0.308754C9.1155 0.085957 9.42984 -0.0182288 9.7804 0.00260837C10.6048 0.0514955 11.0024 0.62051 11.094 1.91963H12.0001H12.9239C12.9239 1.85891 12.9234 1.80037 12.9229 1.74331C12.9219 1.62415 12.921 1.51142 12.9246 1.3987C12.9501 0.618106 13.5603 0.00100561 14.3061 0.000204178C15.0519 -0.000597251 15.6629 0.614099 15.6898 1.39549C15.6935 1.50319 15.6925 1.6109 15.6916 1.72551C15.6911 1.78061 15.6906 1.83732 15.6906 1.89639H17.5389C17.5389 1.84522 17.5385 1.79373 17.538 1.74203C17.537 1.62935 17.536 1.51562 17.5397 1.4019C17.5644 0.62051 18.173 0.00260846 18.9181 0.000204178C19.6646 -0.00220011 20.2764 0.611694 20.3049 1.39309C20.3085 1.49947 20.3076 1.6062 20.3066 1.72685C20.3062 1.78708 20.3056 1.85078 20.3056 1.91963H20.5899C20.789 1.91963 20.988 1.91919 21.187 1.91876C21.6513 1.91775 22.1157 1.91674 22.58 1.92123C23.4052 1.92844 23.9977 2.54073 23.9977 3.40227C24.0008 9.77203 24.0008 16.1418 23.9977 22.5107C23.9977 23.3867 23.4044 23.9974 22.5562 23.9982C15.5188 24.0006 8.48064 24.0006 1.44326 23.9982C0.596528 23.9982 0.00250399 23.3851 0.00173353 22.5107C-0.000577845 16.141 -0.000577845 9.77123 0.00173353 3.40227C0.00173353 2.54234 0.594987 1.92844 1.41938 1.92123C1.8246 1.9174 2.22945 1.91842 2.64007 1.91946C2.83139 1.91994 3.02396 1.92043 3.2184 1.92043ZM0.923203 6.73221V7.05118V22.3465C0.923203 22.9002 1.05649 23.0397 1.58349 23.0397H22.4028C22.9476 23.0397 23.0754 22.9042 23.0754 22.3288V7.064V6.73301C15.6837 6.73221 8.32423 6.73221 0.923203 6.73221ZM0.924744 5.73924H23.0739C23.0739 5.50704 23.0745 5.2765 23.0752 5.04713C23.0767 4.47771 23.0783 3.91555 23.0701 3.35338C23.0654 3.04964 22.8697 2.88375 22.5492 2.88134C21.8574 2.87653 21.1647 2.87894 20.4728 2.88134C20.4368 2.88134 20.4005 2.89016 20.3616 2.89959C20.3431 2.90408 20.324 2.90872 20.3041 2.9126C20.3041 2.96883 20.3046 3.02356 20.3051 3.07725C20.306 3.1904 20.307 3.29892 20.3033 3.40708C20.2748 4.18767 19.6615 4.80157 18.9165 4.79916C18.1722 4.79676 17.5628 4.17885 17.5382 3.39746C17.5345 3.28364 17.5355 3.16944 17.5365 3.05667C17.5369 3.00509 17.5374 2.9538 17.5374 2.90298H15.6891C15.6891 2.96205 15.6895 3.01875 15.69 3.07386C15.691 3.18847 15.6919 3.29617 15.6883 3.40387C15.6605 4.18527 15.0496 4.79996 14.3045 4.79916C13.5595 4.79836 12.9485 4.18126 12.9231 3.40067C12.9194 3.28655 12.9204 3.17244 12.9214 3.05858C12.9219 3.00612 12.9223 2.95371 12.9223 2.90138H11.091C10.997 4.19168 10.5878 4.7647 9.75035 4.79836C9.3998 4.81198 9.08853 4.69978 8.81502 4.47298C8.32732 4.06585 8.2703 3.49684 8.30651 2.90058H6.01671C5.90653 4.2061 5.50898 4.7631 4.67688 4.79836C4.32632 4.81279 4.01351 4.70299 3.74154 4.47458C3.25461 4.06746 3.18912 3.50165 3.23612 2.88455C3.04759 2.88455 2.86197 2.88343 2.67844 2.88232C2.22146 2.87957 1.77746 2.87689 1.33386 2.89176C1.08423 2.89977 0.930137 3.08811 0.927055 3.35258C0.92161 3.90931 0.922707 4.46643 0.923818 5.03131C0.92428 5.26578 0.924744 5.50158 0.924744 5.73924ZM5.07598 2.40048C5.07598 2.30503 5.07656 2.20957 5.07715 2.11414C5.07846 1.89949 5.07977 1.68497 5.07444 1.47083C5.06596 1.16308 4.87797 0.96272 4.61601 0.961919C4.35406 0.961118 4.1599 1.16147 4.15682 1.46842C4.14912 2.08793 4.14989 2.70823 4.15682 3.32774C4.16067 3.63388 4.35329 3.83584 4.61447 3.83665C4.87566 3.83745 5.06673 3.63549 5.07444 3.32934C5.08028 3.1166 5.0788 2.90309 5.07732 2.68935C5.07665 2.59309 5.07598 2.49679 5.07598 2.40048ZM10.1533 2.4069C10.1533 2.31327 10.1537 2.21956 10.1541 2.12583C10.1549 1.91948 10.1557 1.713 10.1525 1.50689C10.1471 1.1735 9.97071 0.966728 9.69873 0.961919C9.42676 0.95711 9.23569 1.16548 9.23261 1.49247C9.22721 2.09193 9.22798 2.6922 9.23184 3.29167C9.23415 3.62266 9.41521 3.83264 9.68487 3.83665C9.96377 3.84145 10.1479 3.62427 10.1525 3.27564C10.1552 3.07594 10.1545 2.87546 10.1539 2.67475C10.1536 2.5855 10.1533 2.4962 10.1533 2.4069ZM14.7676 2.43014C14.7676 2.33175 14.7682 2.23329 14.7688 2.13483C14.7701 1.91326 14.7714 1.69166 14.766 1.47083C14.7583 1.16388 14.5688 0.96272 14.3069 0.96272C14.0441 0.96272 13.8523 1.16308 13.8484 1.47003C13.8407 2.08953 13.8407 2.70984 13.8484 3.32934C13.8523 3.63549 14.0457 3.83745 14.3069 3.83745C14.568 3.83745 14.7576 3.63549 14.766 3.32934C14.7719 3.12263 14.7704 2.91591 14.7689 2.70919C14.7683 2.61618 14.7676 2.52316 14.7676 2.43014ZM18.4612 2.38045C18.4612 2.47352 18.4608 2.56658 18.4603 2.65963C18.4594 2.87666 18.4584 3.09358 18.4627 3.31011C18.4696 3.63388 18.6615 3.84386 18.9327 3.83745C19.1923 3.83104 19.3788 3.62747 19.3819 3.31892C19.3888 2.70903 19.388 2.09915 19.3819 1.48926C19.3788 1.16468 19.1831 0.955508 18.9119 0.961919C18.6507 0.96833 18.4696 1.17029 18.4627 1.48044C18.4579 1.6889 18.459 1.89736 18.4602 2.10609C18.4607 2.19748 18.4612 2.28893 18.4612 2.38045Z" stroke="white"/>
<path d="M9.52973 19.9447C9.46 20.0235 9.39065 20.1013 9.32176 20.1786C9.16161 20.3583 9.00388 20.5352 8.84916 20.7152C8.68783 20.903 8.49918 21.0282 8.2444 20.9568C7.97993 20.8827 7.87767 20.6791 7.83447 20.4164C7.74094 19.8504 7.64272 19.2852 7.54448 18.72C7.46216 18.2463 7.37982 17.7726 7.30024 17.2983C7.21825 16.8116 7.46686 16.5375 7.94819 16.6177C8.93379 16.7825 9.91763 16.9641 10.8971 17.1607C11.3467 17.2507 11.4912 17.6914 11.2003 18.0467C10.9953 18.2962 10.7803 18.5374 10.5579 18.7871C10.4627 18.8939 10.3662 19.0022 10.2685 19.1134C10.7463 19.414 11.2567 19.5692 11.7857 19.6476C14.8253 20.0937 17.4321 17.7232 17.2779 14.6624C17.1624 12.3817 15.2855 10.4299 13.0102 10.2245C10.6326 10.0094 8.43835 11.5469 7.92527 13.8169C7.83911 14.1977 7.81939 14.595 7.79981 14.9895C7.79595 15.0672 7.7921 15.1448 7.78775 15.2222C7.76659 15.6145 7.59645 15.8463 7.27115 15.8542C6.94849 15.8622 6.74837 15.6374 6.72634 15.2442C6.55796 12.1869 8.89324 9.47607 11.9567 9.17281C15.0581 8.86602 17.8791 11.0902 18.2837 14.1607C18.7527 17.7188 16.019 20.8131 12.4372 20.7681C11.5115 20.7567 10.6335 20.5266 9.81184 20.0928C9.74992 20.06 9.688 20.0276 9.61764 19.9908C9.58983 19.9762 9.5607 19.961 9.52973 19.9447ZM8.45069 17.7796L8.71252 19.2721C8.81575 19.1555 8.91612 19.0421 9.01513 18.9303C9.28138 18.6296 9.53768 18.3401 9.81272 18.0291C9.32874 17.94 8.9144 17.8642 8.45069 17.7796Z" fill="black"/>
<path d="M9.52973 19.9447C9.46 20.0235 9.39065 20.1013 9.32176 20.1786C9.16161 20.3583 9.00388 20.5352 8.84916 20.7152C8.68783 20.903 8.49918 21.0282 8.2444 20.9568C7.97993 20.8827 7.87767 20.6791 7.83447 20.4164C7.74094 19.8504 7.64272 19.2852 7.54448 18.72C7.46216 18.2463 7.37982 17.7726 7.30024 17.2983C7.21825 16.8116 7.46686 16.5375 7.94819 16.6177C8.93379 16.7825 9.91763 16.9641 10.8971 17.1607C11.3467 17.2507 11.4912 17.6914 11.2003 18.0467C10.9953 18.2962 10.7803 18.5374 10.5579 18.7871C10.4627 18.8939 10.3662 19.0022 10.2685 19.1134C10.7463 19.414 11.2567 19.5692 11.7857 19.6476C14.8253 20.0937 17.4321 17.7232 17.2779 14.6624C17.1624 12.3817 15.2855 10.4299 13.0102 10.2245C10.6326 10.0094 8.43835 11.5469 7.92527 13.8169C7.83911 14.1977 7.81939 14.595 7.79981 14.9895C7.79595 15.0672 7.7921 15.1448 7.78775 15.2222C7.76659 15.6145 7.59645 15.8463 7.27115 15.8542C6.94849 15.8622 6.74837 15.6374 6.72634 15.2442C6.55796 12.1869 8.89324 9.47607 11.9567 9.17281C15.0581 8.86602 17.8791 11.0902 18.2837 14.1607C18.7527 17.7188 16.019 20.8131 12.4372 20.7681C11.5115 20.7567 10.6335 20.5266 9.81184 20.0928C9.74992 20.06 9.688 20.0276 9.61764 19.9908C9.58983 19.9762 9.5607 19.961 9.52973 19.9447ZM8.45069 17.7796L8.71252 19.2721C8.81575 19.1555 8.91612 19.0421 9.01513 18.9303C9.28138 18.6296 9.53768 18.3401 9.81272 18.0291C9.32874 17.94 8.9144 17.8642 8.45069 17.7796Z" stroke="white"/>
<path d="M12.0025 13.3686C12.0025 13.2164 12.0022 13.0643 12.0019 12.9121C12.0011 12.5697 12.0004 12.2273 12.0034 11.8849C12.0069 11.4926 12.2071 11.2669 12.535 11.2696C12.8621 11.2713 13.0551 11.4961 13.0569 11.8928L13.0569 11.8933C13.0604 12.7289 13.0639 13.5636 13.0534 14.3991C13.0507 14.6045 13.1019 14.7385 13.2782 14.8637C13.8327 15.2587 14.3854 15.6589 14.9064 16.097C15.0457 16.2143 15.1436 16.4796 15.1207 16.6586C15.1021 16.8032 14.8906 16.9716 14.7284 17.0315C14.6067 17.0765 14.3987 17.0059 14.2779 16.9187C13.5999 16.4312 12.9264 15.9366 12.2776 15.4112C12.1312 15.2922 12.0281 15.048 12.0131 14.8531C11.9881 14.5034 11.9932 14.1524 11.9983 13.8015C12.0004 13.6571 12.0025 13.5128 12.0025 13.3686Z" fill="black"/>
<path d="M12.0025 13.3686C12.0025 13.2164 12.0022 13.0643 12.0019 12.9121C12.0011 12.5697 12.0004 12.2273 12.0034 11.8849C12.0069 11.4926 12.2071 11.2669 12.535 11.2696C12.8621 11.2713 13.0551 11.4961 13.0569 11.8928L13.0569 11.8933C13.0604 12.7289 13.0639 13.5636 13.0534 14.3991C13.0507 14.6045 13.1019 14.7385 13.2782 14.8637C13.8327 15.2587 14.3854 15.6589 14.9064 16.097C15.0457 16.2143 15.1436 16.4796 15.1207 16.6586C15.1021 16.8032 14.8906 16.9716 14.7284 17.0315C14.6067 17.0765 14.3987 17.0059 14.2779 16.9187C13.5999 16.4312 12.9264 15.9366 12.2776 15.4112C12.1312 15.2922 12.0281 15.048 12.0131 14.8531C11.9881 14.5034 11.9932 14.1524 11.9983 13.8015C12.0004 13.6571 12.0025 13.5128 12.0025 13.3686Z" stroke="white"/>
</svg>
