<svg width="20" height="14" viewBox="0 0 20 14" fill="none" xmlns="http://www.w3.org/2000/svg">
<path d="M18 3.99215H18.15V3.84215V1.92107V1.77107H18H2H1.85V1.92107V3.84215V3.99215H2H18ZM18.15 5.76322V5.61322H18H2H1.85V5.76322V11.5264V11.6764H2H18H18.15V11.5264V5.76322ZM2 0.15H18C18.4926 0.15 18.9638 0.338002 19.3103 0.670848C19.6566 1.0035 19.85 1.45335 19.85 1.92107V11.5264C19.85 11.9942 19.6566 12.444 19.3103 12.7767C18.9638 13.1095 18.4926 13.2975 18 13.2975H2C1.50744 13.2975 1.03622 13.1095 0.689696 12.7767C0.34338 12.444 0.15 11.9942 0.15 11.5264V1.92107C0.15 1.45335 0.34338 1.0035 0.689696 0.670848C1.03622 0.338002 1.50744 0.15 2 0.15ZM4 7.83429H5C5.22734 7.83429 5.44421 7.92109 5.6032 8.0738C5.76198 8.22632 5.85 8.43185 5.85 8.64483C5.85 8.8578 5.76198 9.06334 5.6032 9.21585C5.44421 9.36856 5.22734 9.45536 5 9.45536H4C3.77266 9.45536 3.55579 9.36856 3.3968 9.21585C3.23802 9.06334 3.15 8.8578 3.15 8.64483C3.15 8.43185 3.23802 8.22632 3.3968 8.0738C3.55579 7.92109 3.77266 7.83429 4 7.83429ZM9 7.83429H14C14.2273 7.83429 14.4442 7.92109 14.6032 8.0738C14.762 8.22632 14.85 8.43185 14.85 8.64483C14.85 8.8578 14.762 9.06334 14.6032 9.21585C14.4442 9.36856 14.2273 9.45536 14 9.45536H9C8.77266 9.45536 8.55579 9.36856 8.3968 9.21585C8.23802 9.06334 8.15 8.8578 8.15 8.64483C8.15 8.43185 8.23802 8.22632 8.3968 8.0738C8.55579 7.92109 8.77266 7.83429 9 7.83429Z" fill="black" stroke="white" stroke-width="0.3"/>
</svg>
