<?xml version="1.0" encoding="UTF-8"?>
<svg xmlns="http://www.w3.org/2000/svg" xmlns:xlink="http://www.w3.org/1999/xlink" width="20pt" height="23pt" viewBox="0 0 20 23" version="1.1">
<g id="surface1">
<path style=" stroke:none;fill-rule:nonzero;fill:rgb(0%,0%,0%);fill-opacity:1;" d="M 9.378906 0.871094 C 7.035156 1.21875 5.121094 2.960938 4.65625 5.207031 L 4.511719 5.878906 L 3 5.878906 C 2.179688 5.878906 1.445312 5.925781 1.378906 5.96875 C 1.011719 6.195312 1 6.5 1 13.984375 C 1 19.265625 1.035156 21.519531 1.121094 21.714844 C 1.1875 21.855469 1.355469 22.007812 1.488281 22.042969 C 1.800781 22.128906 6.84375 22.117188 13.644531 22.03125 L 19.222656 21.964844 L 19.222656 6.21875 L 18.976562 6.054688 C 18.777344 5.914062 18.410156 5.878906 17.265625 5.878906 L 15.8125 5.878906 L 15.6875 5.269531 C 15.101562 2.429688 12.253906 0.445312 9.378906 0.871094 Z M 11.023438 2.078125 C 12.699219 2.429688 14.222656 3.910156 14.511719 5.46875 L 14.578125 5.878906 L 5.746094 5.878906 L 5.820312 5.421875 C 5.921875 4.792969 6.488281 3.800781 7.054688 3.257812 C 8.15625 2.1875 9.554688 1.773438 11.023438 2.078125 Z M 4.554688 8.636719 C 4.554688 10.3125 4.601562 10.453125 5.121094 10.453125 C 5.609375 10.453125 5.679688 10.269531 5.699219 8.648438 L 5.722656 7.132812 L 10.144531 7.101562 L 14.554688 7.078125 L 14.554688 8.527344 C 14.554688 9.660156 14.589844 10.019531 14.734375 10.214844 C 14.957031 10.519531 15.5 10.542969 15.667969 10.246094 C 15.722656 10.128906 15.777344 9.367188 15.777344 8.546875 L 15.777344 7.066406 L 16.921875 7.101562 L 18.054688 7.132812 L 18.054688 10.726562 C 18.042969 12.699219 18.035156 15.800781 18.023438 17.609375 L 18 20.910156 L 2.222656 20.910156 L 2.222656 7.078125 L 4.554688 7.078125 Z M 4.554688 8.636719 "/>
</g>
</svg>
