<svg width="22" height="25" viewBox="0 0 22 25" fill="none" xmlns="http://www.w3.org/2000/svg">
<path d="M21.0938 22.0703C21.0938 22.6099 20.6567 23.0469 20.1172 23.0469H19.1406V24.0234C19.1406 24.563 18.7036 25 18.1641 25C17.6245 25 17.1875 24.563 17.1875 24.0234V23.0469H16.2109C15.6714 23.0469 15.2344 22.6099 15.2344 22.0703C15.2344 21.5308 15.6714 21.0938 16.2109 21.0938H17.1875V20.1172C17.1875 19.5776 17.6245 19.1406 18.1641 19.1406C18.7036 19.1406 19.1406 19.5776 19.1406 20.1172V21.0938H20.1172C20.6567 21.0938 21.0938 21.5308 21.0938 22.0703ZM21.0938 6.83594V16.2109C21.0938 16.7505 20.6567 17.1875 20.1172 17.1875C19.5776 17.1875 19.1406 16.7505 19.1406 16.2109V7.8125H17.1875V10.7422C17.1875 11.2817 16.7505 11.7188 16.2109 11.7188C15.6714 11.7188 15.2344 11.2817 15.2344 10.7422V7.8125H5.85938V10.7422C5.85938 11.2817 5.42236 11.7188 4.88281 11.7188C4.34326 11.7188 3.90625 11.2817 3.90625 10.7422V7.8125H1.95312V23.0469H12.3047C12.8442 23.0469 13.2812 23.4839 13.2812 24.0234C13.2812 24.563 12.8442 25 12.3047 25H0.976562C0.437012 25 0 24.563 0 24.0234V6.83594C0 6.29639 0.437012 5.85938 0.976562 5.85938H3.95264C4.34033 2.56445 7.14941 0 10.5469 0C13.9443 0 16.7534 2.56445 17.1411 5.85938H20.1172C20.6567 5.85938 21.0938 6.29639 21.0938 6.83594ZM15.1689 5.85938C14.7959 3.64502 12.8652 1.95312 10.5469 1.95312C8.22852 1.95312 6.29785 3.64502 5.9248 5.85938H15.1689Z" fill="white"/>
</svg>
