<svg width="17" height="18" viewBox="0 0 17 18" fill="none" xmlns="http://www.w3.org/2000/svg">
<path d="M4.59339 17.9944C3.36163 18.0483 2.15683 17.6168 1.23974 16.7806C0.385599 15.8725 -0.0549578 14.6588 -0.00101178 13.409V5.83854C-0.0639488 4.61576 0.385604 3.41102 1.23076 2.52091C2.02197 1.79264 3.04694 1.37001 4.11687 1.34303V0.632819C4.10788 0.29116 4.3866 0.00338229 4.72826 0.00338229C5.04295 0.00338229 5.31267 0.228136 5.35763 0.542821L5.36662 0.632819V1.32503H10.8242V0.632819C10.8152 0.29116 11.0849 0.00337351 11.4266 -0.0056175C11.7502 -0.0146085 12.02 0.228136 12.0649 0.542821L12.0739 0.632819V1.34303C13.1618 1.379 14.2048 1.81054 14.996 2.5568C15.8142 3.44691 16.2457 4.62475 16.1918 5.83854V13.4719C16.2547 14.7037 15.8052 15.8995 14.96 16.7896C14.0429 17.6168 12.8382 18.0483 11.6064 17.9854H4.59339V17.9944ZM1.24874 13.409C1.05993 15.0544 2.24674 16.5468 3.8921 16.7356C4.12586 16.7626 4.35963 16.7626 4.59339 16.7356H11.6064C13.7552 16.7356 14.942 15.5758 14.942 13.4719V7.45696H1.24874V13.409ZM14.942 6.2072V5.84754C15.005 4.96642 14.6993 4.10325 14.1149 3.4559C13.5574 2.93442 12.8381 2.63777 12.0739 2.6108V3.40201C12.0829 3.74367 11.8042 4.03134 11.4625 4.03134C11.1388 4.04033 10.8691 3.79758 10.8332 3.4829L10.8242 3.39301V2.5838H5.36662V3.39301C5.36662 3.73467 5.0879 4.01335 4.74624 4.02234C4.43155 4.02234 4.17081 3.78859 4.12586 3.4829L4.11687 3.39301V2.6018C2.50748 2.61079 1.21277 3.91448 1.22177 5.52387C1.22177 5.63177 1.23075 5.73065 1.23974 5.83854V6.1982L14.942 6.2072ZM11.1568 13.346C11.1568 13.0313 11.3906 12.7706 11.6963 12.7257L11.7862 12.7167C12.1368 12.7257 12.4066 13.0224 12.3886 13.373C12.3796 13.6697 12.1638 13.9215 11.8671 13.9664L11.7862 13.9754C11.4445 13.9754 11.1568 13.6967 11.1568 13.346ZM7.47051 13.346C7.47051 13.0313 7.70428 12.7706 8.00998 12.7257L8.09989 12.7167C8.45054 12.7257 8.72027 13.0224 8.70228 13.373C8.69329 13.6697 8.47751 13.9215 8.1808 13.9664L8.09089 13.9754C7.75823 13.9754 7.4795 13.6967 7.47051 13.346ZM3.7842 13.346C3.7842 13.0313 4.01797 12.7706 4.32366 12.7257L4.41358 12.7167C4.76423 12.7347 5.02496 13.0313 5.01597 13.373C4.99799 13.6697 4.7912 13.9125 4.50349 13.9664L4.41358 13.9754C4.06293 13.9665 3.7842 13.6877 3.7842 13.346ZM11.1568 10.1003C11.1568 9.78558 11.3906 9.5249 11.6963 9.47994L11.7862 9.47094C12.1368 9.48892 12.3976 9.78561 12.3886 10.1273C12.3706 10.424 12.1638 10.6668 11.8761 10.7207L11.7952 10.7297C11.4445 10.7207 11.1658 10.4419 11.1568 10.1003ZM7.47051 10.1003C7.47051 9.78558 7.70428 9.5249 8.00998 9.47994L8.09989 9.47094C8.45054 9.47993 8.72027 9.77662 8.70228 10.1273C8.69329 10.424 8.47751 10.6757 8.1808 10.7207L8.09089 10.7297C7.75823 10.7207 7.4795 10.4419 7.47051 10.1003ZM3.7842 10.1003C3.7842 9.78558 4.01797 9.5249 4.32366 9.47994L4.41358 9.47094C4.76423 9.48892 5.02496 9.78561 5.01597 10.1273C4.99799 10.424 4.7912 10.6668 4.50349 10.7207L4.41358 10.7297C4.06293 10.7207 3.7842 10.4419 3.7842 10.1003Z" fill="black"/>
</svg>
