<svg width="19" height="21" viewBox="0 0 19 21" fill="none" xmlns="http://www.w3.org/2000/svg">
<path d="M5.11013 20.0144C3.74013 20.0744 2.40013 19.5945 1.38013 18.6645C0.430127 17.6545 -0.0598699 16.3045 0.0001301 14.9145V6.49441C-0.0698699 5.13441 0.430133 3.79447 1.37013 2.80447C2.25013 1.99447 3.39013 1.52441 4.58013 1.49441V0.704493C4.57013 0.324493 4.88013 0.00441941 5.26013 0.00441941C5.61013 0.00441941 5.91013 0.254395 5.96013 0.604395L5.97013 0.704493V1.47439H12.0401V0.704493C12.0301 0.324493 12.3301 0.00440965 12.7101 -0.00559035C13.0701 -0.0155904 13.3701 0.254395 13.4201 0.604395L13.4301 0.704493V1.49441C14.6401 1.53441 15.8001 2.01439 16.6801 2.84439C17.5901 3.83439 18.0701 5.14441 18.0101 6.49441V14.9844C18.0801 16.3544 17.5801 17.6845 16.6401 18.6745C15.6201 19.5945 14.2801 20.0744 12.9101 20.0044H5.11013V20.0144ZM1.39013 14.9145C1.18013 16.7445 2.50013 18.4044 4.33013 18.6144C4.59013 18.6444 4.85013 18.6444 5.11013 18.6144H12.9101C15.3001 18.6144 16.6201 17.3244 16.6201 14.9844V8.29446H1.39013V14.9145ZM16.6201 6.90444V6.50442C16.6901 5.52442 16.3501 4.56439 15.7001 3.84439C15.0801 3.26439 14.2801 2.93444 13.4301 2.90444V3.78445C13.4401 4.16445 13.1301 4.4844 12.7501 4.4844C12.3901 4.4944 12.0901 4.22441 12.0501 3.87441L12.0401 3.77444V2.87441H5.97013V3.77444C5.97013 4.15444 5.66013 4.46439 5.28013 4.47439C4.93013 4.47439 4.64013 4.21441 4.59013 3.87441L4.58013 3.77444V2.89443C2.79013 2.90443 1.35013 4.35443 1.36013 6.14443C1.36013 6.26443 1.37013 6.37441 1.38013 6.49441V6.89443L16.6201 6.90444ZM12.4101 14.8444C12.4101 14.4944 12.6701 14.2044 13.0101 14.1544L13.1101 14.1444C13.5001 14.1544 13.8001 14.4844 13.7801 14.8744C13.7701 15.2044 13.5301 15.4844 13.2001 15.5344L13.1101 15.5445C12.7301 15.5445 12.4101 15.2344 12.4101 14.8444ZM8.31013 14.8444C8.31013 14.4944 8.57013 14.2044 8.91013 14.1544L9.01013 14.1444C9.40013 14.1544 9.70013 14.4844 9.68013 14.8744C9.67013 15.2044 9.43013 15.4844 9.10013 15.5344L9.00013 15.5445C8.63013 15.5445 8.32013 15.2344 8.31013 14.8444ZM4.21013 14.8444C4.21013 14.4944 4.47013 14.2044 4.81013 14.1544L4.91013 14.1444C5.30013 14.1644 5.59013 14.4944 5.58013 14.8744C5.56013 15.2044 5.33013 15.4744 5.01013 15.5344L4.91013 15.5445C4.52013 15.5345 4.21013 15.2244 4.21013 14.8444ZM12.4101 11.2344C12.4101 10.8844 12.6701 10.5945 13.0101 10.5445L13.1101 10.5344C13.5001 10.5544 13.7901 10.8844 13.7801 11.2644C13.7601 11.5944 13.5301 11.8645 13.2101 11.9245L13.1201 11.9345C12.7301 11.9245 12.4201 11.6144 12.4101 11.2344ZM8.31013 11.2344C8.31013 10.8844 8.57013 10.5945 8.91013 10.5445L9.01013 10.5344C9.40013 10.5444 9.70013 10.8744 9.68013 11.2644C9.67013 11.5944 9.43013 11.8745 9.10013 11.9245L9.00013 11.9345C8.63013 11.9245 8.32013 11.6144 8.31013 11.2344ZM4.21013 11.2344C4.21013 10.8844 4.47013 10.5945 4.81013 10.5445L4.91013 10.5344C5.30013 10.5544 5.59013 10.8844 5.58013 11.2644C5.56013 11.5944 5.33013 11.8645 5.01013 11.9245L4.91013 11.9345C4.52013 11.9245 4.21013 11.6144 4.21013 11.2344Z" fill="black"/>
</svg>
