<svg width="13" height="14" viewBox="0 0 13 14" fill="none" xmlns="http://www.w3.org/2000/svg">
<g clip-path="url(#clip0)">
<path d="M0.0697746 8.70204C-0.199791 7.73799 0.330644 6.97017 1.15673 6.21087C3.17412 4.33397 5.12195 2.39734 7.05238 0.426595C7.6263 -0.153539 8.08717 -0.110882 8.60021 0.366875C9.40891 1.11764 10.1915 1.89399 10.8872 2.76419C11.1654 3.11398 11.035 3.28461 10.835 3.57468C10.0089 4.74347 8.80021 5.54542 7.86108 6.60332C6.87847 7.70386 5.72195 8.65938 4.71325 9.74287C3.88717 10.6301 1.53064 11.2444 0.443688 10.7496C0.130644 10.6045 0.0697746 10.3486 0.0697746 10.05C0.0697746 9.66608 0.0697746 9.27364 0.0697746 8.70204ZM2.27847 9.52105C2.85238 9.63196 3.2263 9.34189 3.60021 8.96651C5.20021 7.37967 6.8176 5.80137 8.4263 4.22306C9.6176 3.05426 9.59151 2.94335 8.29586 1.90252C7.84369 1.54421 7.53064 1.63805 7.19151 2.01343C5.47847 3.95859 3.57412 5.70752 1.66977 7.45645C1.13064 7.95127 1.38282 8.59966 1.40891 9.16273C1.44369 9.70021 1.96543 9.4528 2.27847 9.52105Z" fill="#71B83E"/>
<path d="M6.46953 13.9907C4.66084 13.9907 2.85214 13.9907 1.05214 13.9907C0.556489 13.9907 0.0608371 13.9907 0.0869241 13.3082C0.113011 12.6939 0.582576 12.711 1.03475 12.711C4.68692 12.711 8.3391 12.711 11.9826 12.711C12.4956 12.711 13.0174 12.8475 13 13.3935C12.9826 13.8457 12.4869 13.9992 12.0087 13.9992C10.1565 13.9822 8.31301 13.9907 6.46953 13.9907Z" fill="#71B83E"/>
</g>
<defs>
<clipPath id="clip0">
<rect width="13" height="14" fill="white"/>
</clipPath>
</defs>
</svg>
