<svg width="37" height="32" viewBox="0 0 37 32" fill="none" xmlns="http://www.w3.org/2000/svg">
<path d="M18.9492 31.9978C22.0689 31.9978 25.1886 32.0035 28.3084 31.9959C30.141 31.9912 31.6552 30.8407 31.9548 29.0863C32.115 28.1478 32.0415 27.1679 32.0434 26.2059C32.0443 25.8921 31.7946 25.7141 31.4997 25.7272C31.2114 25.7404 31.0192 25.9364 31.0079 26.2615C30.9947 26.6139 31.0116 26.9663 31.0003 27.3187C30.9834 27.8576 31.022 28.4098 30.9165 28.9327C30.6677 30.1652 29.6002 30.9387 28.2471 30.9397C22.0312 30.9406 15.8153 30.9406 9.60031 30.9406C9.45898 30.9406 9.31576 30.9331 9.17725 30.9519C8.92661 30.9859 8.77397 31.1394 8.74194 31.3901C8.70802 31.6548 8.81543 31.8584 9.06983 31.945C9.21023 31.9922 9.36946 31.9959 9.52022 31.9959C12.6626 31.9987 15.8059 31.9978 18.9492 31.9978Z" fill="white"/>
<path d="M0 17.3406C0.17714 17.0673 0.429658 16.9863 0.75096 16.9882C2.55251 16.9986 4.355 16.9929 6.15655 16.9929C6.28564 16.9929 6.41378 16.9929 6.60035 16.9929C6.54099 16.8534 6.49858 16.7498 6.45336 16.648C5.83054 15.229 5.24824 13.7912 4.57266 12.3976C3.8217 10.8467 4.10908 9.21287 5.43951 8.12082C4.80445 7.45749 4.15713 6.80829 3.54091 6.13083C2.77205 5.2847 3.09524 3.98536 4.14489 3.62166C4.60941 3.46054 5.04849 3.54722 5.5328 3.78278C5.48474 3.56984 5.44894 3.404 5.41031 3.23911C5.16815 2.22244 5.68638 1.34616 6.67384 1.10213C7.62173 0.868451 8.44524 1.40364 8.69776 2.41843C8.74016 2.58803 8.78821 2.75575 8.84475 2.96681C9.15851 2.52772 9.53069 2.23846 10.0423 2.18287C11.1391 2.06415 11.9796 3.0582 11.6978 4.15025C11.5537 4.70711 11.3803 5.25549 11.222 5.80858C11.1975 5.89433 11.1815 5.9829 11.1608 6.07618C12.6966 6.03472 12.6994 6.03566 14.2013 6.67167C14.2513 6.33341 14.2852 5.99797 14.353 5.67007C14.5377 4.77966 14.8873 3.96746 15.5497 3.3192C16.6003 2.29028 18.0325 2.29122 19.0755 3.33051C19.8887 4.14083 20.2307 5.16409 20.357 6.27593C20.3692 6.38052 20.3767 6.48605 20.3899 6.59064C20.3928 6.61137 20.4135 6.62927 20.4078 6.61985C21.0683 6.40502 21.7213 6.19301 22.4355 5.96122C22.4647 5.61166 22.5024 5.18388 22.5354 4.75517C22.6098 3.77336 23.1055 3.07705 23.9959 2.67848C24.434 2.4825 24.9127 2.37697 25.3489 2.17816C25.7814 1.98123 26.2073 1.75132 26.5945 1.47808C27.093 1.12662 27.5217 0.675293 28.0305 0.342685C29.0246 -0.307456 29.9988 -0.0125373 30.5152 1.05784C30.6669 1.37255 30.7715 1.70892 30.9071 2.06038C31.1163 1.93129 31.3048 1.79184 31.5121 1.69008C31.8371 1.53084 32.1641 1.35276 32.5108 1.2623C33.2392 1.07197 33.9496 1.37255 34.2483 2.05755C34.4594 2.5428 34.5489 3.08741 34.644 3.61412C34.6959 3.90056 34.5216 4.10974 34.2172 4.16156C33.9242 4.2115 33.6971 4.05697 33.6217 3.74509C33.5473 3.43792 33.5162 3.11851 33.4276 2.81605C33.2693 2.26955 32.9904 2.13576 32.4731 2.38545C32.0831 2.57389 31.7165 2.81416 31.3566 3.05538C31.2906 3.09966 31.2511 3.28999 31.2906 3.36631C31.4122 3.6047 31.5677 3.82801 31.7269 4.04472C32.0199 4.4414 32.3525 4.8117 32.6211 5.22346C33.1365 6.01305 33.1939 6.84787 32.7511 7.69588C32.5504 8.08125 32.3488 8.46662 32.1236 8.83786C31.7514 9.45126 31.7033 10.0835 31.9003 10.7666C32.0463 11.2717 32.1575 11.7918 32.2329 12.3119C32.3346 13.0138 32.116 13.6461 31.6355 14.1624C31.2435 14.5836 30.8186 14.9746 30.3936 15.3638C29.9263 15.7915 29.7425 16.3249 29.7473 16.992C30.0054 16.992 30.2598 17.0004 30.5123 16.9863C30.5755 16.9825 30.6612 16.9175 30.6895 16.8582C30.9731 16.2561 31.48 15.8782 32.0086 15.5183C32.3196 15.3063 32.6295 15.0924 32.9273 14.8634C33.3268 14.5563 33.5313 14.1445 33.4955 13.6367C33.4549 13.0628 33.3975 12.4909 33.3466 11.918C33.2853 11.2189 33.4889 10.5942 33.8931 10.0307C34.1946 9.6105 34.5046 9.19686 34.8174 8.78416C35.1745 8.31304 35.2047 7.81083 34.9484 7.29354C34.7816 6.95717 34.5903 6.63304 34.4 6.30985C34.1616 5.90375 34.1861 5.60035 34.4857 5.42321C34.7882 5.24418 35.0822 5.34406 35.3074 5.77466C35.6211 6.37392 35.8925 6.9958 36.1818 7.60825C36.1818 7.86642 36.1818 8.12554 36.1818 8.38371C35.8916 8.8878 35.6786 9.46068 35.2961 9.88186C34.4867 10.7732 34.2634 11.7531 34.4989 12.9064C34.7769 14.267 34.2907 15.3195 33.1082 16.061C32.6964 16.3192 32.3092 16.6169 31.9106 16.8968C31.9229 16.9288 31.9351 16.9609 31.9474 16.9929C32.1886 16.9929 32.4289 16.9929 32.6701 16.9929C33.5416 16.9929 34.4123 16.9901 35.2838 16.9938C35.6965 16.9957 35.9453 17.1936 35.9556 17.513C35.966 17.8475 35.7144 18.0491 35.2772 18.0501C34.335 18.052 33.3937 18.051 32.4515 18.051C32.3365 18.051 32.2216 18.051 32.0614 18.051C32.0614 18.2216 32.0614 18.3591 32.0614 18.4958C32.0614 20.2116 32.0623 21.9274 32.0604 23.6422C32.0604 23.7826 32.0586 23.9268 32.0265 24.0615C31.9634 24.3235 31.7731 24.4629 31.5102 24.4516C31.2332 24.4394 31.0513 24.282 31.0136 23.9956C30.9985 23.8797 31.0023 23.761 31.0023 23.6441C31.0014 21.9283 31.0023 20.2125 31.0023 18.4976C31.0023 18.3601 31.0023 18.2225 31.0023 18.0689C22.3074 18.0689 13.6586 18.0689 4.95521 18.0689C4.95521 18.199 4.95521 18.3233 4.95521 18.4468C4.95521 21.6899 4.95426 24.9331 4.95615 28.1763C4.95709 29.5614 5.66282 30.4979 6.98289 30.8748C7.36167 30.9832 7.53693 31.2263 7.45589 31.5306C7.37204 31.8444 7.10256 31.9801 6.7332 31.8953C5.05226 31.509 3.90273 30.0579 3.89896 28.2799C3.89142 25.0245 3.89708 21.77 3.89614 18.5146C3.89614 18.3752 3.89614 18.2357 3.89614 18.0501C3.50982 18.0501 3.14894 18.0501 2.78807 18.0501C2.09364 18.0501 1.39827 18.0369 0.703848 18.0557C0.386316 18.0642 0.157353 17.9634 0.000942234 17.692C0 17.5761 0 17.4584 0 17.3406ZM21.563 12.9639C21.6243 13.0157 21.6478 13.0421 21.677 13.0591C23.1563 13.8882 24.0882 15.1263 24.4415 16.7837C24.4886 17.0042 24.6111 16.9948 24.7685 16.9938C25.7691 16.9929 26.7698 16.9929 27.7695 16.9929C28.0597 16.9929 28.3509 16.9929 28.6194 16.9929C28.6505 16.9288 28.6646 16.909 28.6693 16.8874C28.6778 16.8412 28.6844 16.7941 28.6863 16.7479C28.7278 15.817 29.1094 15.0547 29.8179 14.4479C30.1119 14.1954 30.3861 13.9203 30.6725 13.6583C31.155 13.2183 31.2869 12.6756 31.1418 12.0547C31.0504 11.6664 30.9533 11.2792 30.8459 10.8957C30.6094 10.0515 30.6904 9.24774 31.1201 8.47982C31.3491 8.06994 31.5686 7.65442 31.7947 7.2436C32.0652 6.75459 32.0472 6.26934 31.7382 5.81329C31.4885 5.44488 31.2153 5.08966 30.9288 4.74857C30.5284 4.27274 30.2419 3.74509 30.0827 3.143C29.9659 2.7011 29.8405 2.26013 29.6898 1.82859C29.3836 0.95231 29.0321 0.851491 28.2953 1.42625C27.9617 1.68631 27.6423 1.96615 27.3323 2.25353C26.8216 2.72748 26.229 3.03936 25.5619 3.23628C25.1576 3.35501 24.7562 3.49823 24.3728 3.6716C23.8988 3.88643 23.6284 4.26709 23.5964 4.80039C23.5747 5.15185 23.5549 5.50424 23.5153 5.85381C23.4927 6.05451 23.5587 6.1346 23.7518 6.20338C25.0719 6.66978 25.7767 7.87679 25.4723 9.24208C25.0766 11.0154 23.9685 12.1724 22.2471 12.7491C22.0294 12.8226 21.808 12.8876 21.563 12.9639ZM23.3947 16.9788C23.3778 16.8874 23.3721 16.8412 23.3608 16.7969C22.8699 14.9803 21.6082 13.9655 19.8632 13.468C19.6107 13.3964 19.3299 13.3672 19.0699 13.3926C18.0485 13.4934 17.0252 13.5811 16.0067 13.4237C15.3669 13.3248 14.762 13.3794 14.1872 13.6555C13.7236 13.8788 13.2497 14.1021 12.8351 14.4018C11.9654 15.0312 11.4538 15.9074 11.2211 16.9788C15.2934 16.9788 19.329 16.9788 23.3947 16.9788ZM5.74668 12.407C6.41096 13.9156 7.05639 15.3864 7.71218 16.8516C7.74328 16.9222 7.87142 16.9891 7.95528 16.9901C8.60259 17.0014 9.25085 17.0023 9.89816 16.9891C9.98673 16.9872 10.1252 16.9081 10.1535 16.8327C10.3947 16.1788 10.6171 15.5183 10.8442 14.8597C10.6944 14.8955 10.4927 14.9464 10.2892 14.9916C9.91136 15.0755 9.62586 14.9407 9.54765 14.6448C9.46191 14.3235 9.6447 14.0588 10.0348 13.9608C10.5361 13.8345 11.0392 13.7158 11.5424 13.5943C12.0662 13.4671 12.6024 13.3719 13.0415 12.9667C10.5653 12.2817 9.05486 10.8109 9.07277 8.06146C8.21628 8.2876 7.34377 8.45155 6.5212 8.75212C5.45836 9.14032 4.94013 10.4001 5.34812 11.4026C5.42632 11.3847 5.50547 11.3687 5.58462 11.3489C6.43828 11.1275 7.291 10.9042 8.14372 10.6837C8.5715 10.5735 8.84757 10.695 8.93709 11.0286C9.02377 11.3508 8.83532 11.5882 8.39719 11.706C8.21533 11.755 8.03348 11.8012 7.85163 11.8492C7.16098 12.0311 6.47032 12.2148 5.74668 12.407ZM18.0636 12.375C19.1283 12.4636 21.8268 11.918 22.6918 11.4158C23.5606 10.9108 24.156 10.1711 24.4039 9.18555C24.6959 8.02189 24.0185 7.123 22.8228 7.11169C21.5866 7.10039 20.5341 7.57904 19.8745 8.6155C19.2866 9.53889 18.8588 10.565 18.3736 11.5524C18.2464 11.8116 18.1681 12.0933 18.0636 12.375ZM16.5814 12.4513C16.0151 10.9343 15.5139 9.48235 14.5047 8.30362C13.7811 7.45843 12.8078 7.05798 11.679 7.11452C10.6906 7.16352 10.0442 7.87207 10.1667 8.84729C10.3354 10.1871 11.125 11.0983 12.348 11.6099C12.8954 11.8389 13.49 11.9793 14.076 12.0905C14.8798 12.2412 15.6967 12.327 16.5814 12.4513ZM17.3277 11.2585C17.3541 11.2057 17.3776 11.1671 17.3936 11.1256C17.8742 9.93839 18.3877 8.76814 19.181 7.74582C19.2291 7.68363 19.264 7.59977 19.2743 7.52156C19.4289 6.34754 19.2357 5.24513 18.5064 4.28782C17.811 3.37574 16.8179 3.38422 16.1047 4.28499C15.6317 4.88237 15.4178 5.5815 15.3198 6.32775C15.2274 7.02595 15.2623 7.67986 15.7768 8.23295C15.9106 8.37617 16.0067 8.55991 16.0952 8.73799C16.506 9.56715 16.9093 10.4001 17.3277 11.2585ZM10.6868 3.78938C10.684 3.48032 10.5653 3.28905 10.293 3.24382C10.0244 3.19954 9.83315 3.33051 9.75306 3.58868C9.60324 4.07016 9.48735 4.56295 9.31398 5.03595C9.24896 5.21215 9.09067 5.40625 8.92389 5.48163C8.62615 5.61637 8.35384 5.42038 8.25868 5.05008C8.04573 4.22092 7.84975 3.38704 7.63398 2.55882C7.54729 2.22527 7.28629 2.06603 6.97441 2.11408C6.64652 2.16496 6.4119 2.41654 6.41284 2.7369C6.41284 2.8641 6.44299 2.99319 6.47314 3.11756C6.65028 3.8591 6.82554 4.60064 7.01493 5.33935C7.08842 5.62767 7.03283 5.86041 6.77089 6.00362C6.50801 6.14779 6.27433 6.0611 6.07458 5.85004C5.75139 5.50801 5.42727 5.16692 5.09748 4.83243C4.82141 4.55259 4.54345 4.52055 4.32485 4.73067C4.10249 4.94361 4.12227 5.21026 4.3974 5.50047C5.02116 6.15721 5.64398 6.81395 6.28281 7.45561C6.36761 7.54135 6.55512 7.59317 6.6729 7.56679C7.64623 7.34442 8.61296 7.09191 9.58628 6.8686C9.77944 6.82431 9.84823 6.73197 9.89722 6.55954C10.1318 5.72378 10.3787 4.89179 10.6199 4.05791C10.6482 3.95709 10.6708 3.85439 10.6868 3.78938Z" fill="#71B83E"/>
<path d="M18.9492 31.9978C15.8059 31.9978 12.6626 31.9987 9.5193 31.9959C9.36854 31.9959 9.20931 31.9922 9.06891 31.945C8.81357 31.8593 8.70615 31.6548 8.74102 31.3901C8.77399 31.1394 8.92569 30.9868 9.17633 30.9519C9.31484 30.9331 9.45806 30.9406 9.59939 30.9406C15.8153 30.9406 22.0312 30.9406 28.2462 30.9397C29.5992 30.9397 30.6668 30.1652 30.9155 28.9327C31.0211 28.4098 30.9824 27.8576 30.9994 27.3187C31.0107 26.9663 30.9938 26.6139 31.0069 26.2615C31.0192 25.9355 31.2105 25.7395 31.4988 25.7272C31.7937 25.7141 32.0434 25.8921 32.0425 26.2059C32.0406 27.167 32.1141 28.1478 31.9539 29.0863C31.6543 30.8407 30.1401 31.9922 28.3074 31.9959C25.1887 32.0035 22.0689 31.9978 18.9492 31.9978Z" fill="#71B83E"/>
</svg>
