<svg width="25" height="24" viewBox="0 0 25 24" fill="none" xmlns="http://www.w3.org/2000/svg">
<path d="M0.118164 13.3072C0.25744 13.0224 0.472052 12.9314 0.7639 12.9349C1.94268 12.9489 3.12147 12.9405 4.30088 12.9405C4.38635 12.9405 4.47181 12.9405 4.58197 12.9405C4.58197 12.6417 4.58197 12.3653 4.58197 12.0882C4.58197 11.4598 4.57944 10.8314 4.58323 10.2023C4.58513 9.85451 4.76809 9.63478 5.04664 9.62988C5.33786 9.62428 5.52905 9.84471 5.53031 10.2065C5.53348 11.105 5.53158 12.0035 5.53158 12.9132C5.8171 12.9986 6.20264 12.7984 6.36154 13.1504C6.48752 13.4296 6.47866 13.7823 6.5331 14.1245C6.55969 14.1126 6.62047 14.0881 6.67871 14.0587C8.23544 13.2757 9.80546 13.2197 11.3907 13.951C11.4635 13.9845 11.5401 14.0125 11.6072 14.0566C12.5093 14.6409 13.4811 14.825 14.5174 14.734C14.996 14.692 15.4873 14.692 15.9621 14.7606C17.0206 14.9131 17.6828 15.9047 17.5575 17.0733C17.5549 17.0985 17.5568 17.1244 17.5568 17.1811C17.8151 17.0607 18.0588 16.9481 18.3026 16.8347C19.1104 16.4589 19.9176 16.0804 20.7273 15.7102C20.8596 15.65 20.9191 15.58 20.9191 15.4079C20.914 11.1568 20.9172 6.90498 20.9134 2.65388C20.9127 1.72878 20.2949 1.0535 19.456 1.0493C18.3089 1.04441 17.1618 1.04791 15.9773 1.04791C15.9773 1.14797 15.9773 1.23964 15.9773 1.33131C15.9773 2.64968 15.9748 3.96804 15.9792 5.28571C15.9798 5.53763 15.9425 5.75945 15.7247 5.88751C15.4962 6.02257 15.3031 5.9225 15.1125 5.76925C14.5434 5.3123 13.966 4.86725 13.4007 4.4061C13.2696 4.29904 13.1842 4.29554 13.0525 4.4033C12.4796 4.86935 11.8965 5.3193 11.3204 5.78045C11.1362 5.9281 10.9482 6.01907 10.7285 5.89171C10.5101 5.76505 10.4677 5.54603 10.4689 5.29341C10.4734 3.98414 10.4708 2.67417 10.4708 1.3649C10.4708 1.27043 10.4708 1.17526 10.4708 1.064C10.3873 1.0577 10.3189 1.0486 10.2505 1.0486C9.18252 1.04791 8.11389 1.04651 7.04589 1.0486C6.1311 1.0507 5.53411 1.71199 5.53285 2.72385C5.53158 3.58807 5.53348 4.45229 5.53221 5.3165C5.53158 5.71117 5.33913 5.96099 5.04791 5.95329C4.76429 5.94559 4.58387 5.70347 4.58323 5.3214C4.58197 4.43969 4.57944 3.55798 4.58323 2.67627C4.58893 1.13888 5.61831 0.00314896 7.01867 0.00244919C11.1488 -0.00104965 15.279 -0.000349885 19.4092 0.00174942C20.8361 0.00244919 21.8617 1.13398 21.863 2.71056C21.8662 6.75243 21.8643 10.7943 21.8643 14.8362C21.8643 14.9397 21.8643 15.0433 21.8643 15.1091C22.2441 15.1091 22.6157 15.0426 22.9595 15.1231C23.6926 15.2945 24.1528 15.8326 24.3668 16.6255C24.3845 16.6906 24.4073 16.7535 24.4276 16.8172C24.4276 17.0439 24.4276 17.2714 24.4276 17.4981C24.2294 18.4232 23.6464 18.9291 22.8974 19.3098C21.8358 19.8493 20.7988 20.4469 19.7536 21.0249C17.4074 22.3216 14.9239 22.9591 12.3004 22.9479C10.4493 22.9402 8.59819 22.9465 6.74708 22.9465C6.66288 22.9465 6.57932 22.9465 6.47992 22.9465C6.47992 23.0739 6.47992 23.169 6.47992 23.2635C6.47929 23.838 6.33812 23.9941 5.81836 23.9941C4.13312 23.9941 2.44851 23.9885 0.763266 23.9997C0.472052 24.0018 0.258073 23.9115 0.118164 23.6274C0.118164 20.1873 0.118164 16.7472 0.118164 13.3072ZM6.48056 21.8982C6.56412 21.8982 6.61793 21.8982 6.67238 21.8982C8.6577 21.8975 10.6437 21.9066 12.629 21.894C14.3839 21.8828 16.1128 21.5973 17.724 20.836C19.5149 19.9893 21.2514 19.0033 23 18.0516C23.1829 17.9522 23.3362 17.701 23.4178 17.4813C23.5691 17.074 23.464 16.6864 23.1684 16.3876C22.8506 16.065 22.4834 16.0237 22.089 16.2077C20.4379 16.9782 18.7919 17.7612 17.132 18.5079C16.7446 18.6821 16.3141 18.7857 15.8969 18.8228C15.2993 18.8752 14.6953 18.8375 14.0945 18.8375C13.3032 18.8375 12.5125 18.8417 11.7211 18.8347C11.4059 18.8319 11.2052 18.6191 11.202 18.3182C11.1989 18.018 11.4002 17.8095 11.7129 17.792C11.7838 17.7878 11.8554 17.7899 11.9263 17.7899C13.1443 17.7899 14.363 17.7934 15.581 17.7857C15.7513 17.785 15.933 17.7619 16.0894 17.6933C16.4762 17.524 16.6933 17.0453 16.6129 16.6045C16.5224 16.1097 16.1748 15.7809 15.7051 15.7767C14.8112 15.7683 13.9173 15.7795 13.0234 15.769C12.8632 15.7669 12.6935 15.7263 12.5448 15.6577C11.9984 15.4065 11.4654 15.1175 10.9152 14.8761C9.45157 14.233 8.03919 14.3932 6.67744 15.2448C6.52867 15.3379 6.47423 15.4422 6.47549 15.6339C6.48309 17.2574 6.47992 18.8808 6.47992 20.5043C6.48056 20.9564 6.48056 21.4091 6.48056 21.8982ZM1.08423 13.9999C1.08423 16.9908 1.08423 19.9613 1.08423 22.9255C2.57449 22.9255 4.04892 22.9255 5.51829 22.9255C5.51829 19.9403 5.51829 16.9761 5.51829 13.9999C4.03816 13.9999 2.56943 13.9999 1.08423 13.9999ZM15.01 4.3949C15.01 3.25148 15.01 2.15634 15.01 1.0696C13.804 1.0696 12.615 1.0696 11.4401 1.0696C11.4401 2.18223 11.4401 3.27317 11.4401 4.3942C11.9168 4.01703 12.3662 3.66154 12.8157 3.30676C13.157 3.03735 13.2861 3.03525 13.6229 3.29976C14.0768 3.65805 14.5314 4.01703 15.01 4.3949Z" fill="black"/>
</svg>
