<svg width="19" height="20" viewBox="0 0 19 20" fill="none" xmlns="http://www.w3.org/2000/svg">
<g clip-path="url(#clip0)">
<path d="M12.8793 1.05273H5.94428C3.20851 1.05273 0.990723 3.40913 0.990723 6.31589V13.6843C0.990723 16.5911 3.20851 18.9475 5.94428 18.9475H12.8793C15.615 18.9475 17.8328 16.5911 17.8328 13.6843V6.31589C17.8328 3.40913 15.615 1.05273 12.8793 1.05273Z" stroke="white" stroke-width="1.6" stroke-linecap="round" stroke-linejoin="round"/>
<path d="M12.8634 9.43503C12.9655 10.1676 12.8476 10.9157 12.5264 11.573C12.2053 12.2302 11.6974 12.7632 11.0748 13.096C10.4522 13.4289 9.74663 13.5447 9.05851 13.427C8.37039 13.3094 7.73471 12.9641 7.24187 12.4405C6.74903 11.9169 6.42413 11.2415 6.31336 10.5103C6.20259 9.7792 6.3116 9.02957 6.62489 8.36806C6.93818 7.70655 7.43979 7.16682 8.05839 6.82564C8.67699 6.48446 9.38109 6.3592 10.0706 6.46766C10.7741 6.57835 11.4255 6.92661 11.9285 7.46098C12.4314 7.99535 12.7592 8.68747 12.8634 9.43503V9.43503Z" stroke="white" stroke-width="1.6" stroke-linecap="round" stroke-linejoin="round"/>
<path d="M14.1038 5.14844H14.1117" stroke="white" stroke-width="1.6" stroke-linecap="round" stroke-linejoin="round"/>
</g>
<defs>
<clipPath id="clip0">
<rect width="18.8235" height="20" fill="white"/>
</clipPath>
</defs>
</svg>
