<svg width="16" height="17" viewBox="0 0 16 17" fill="none" xmlns="http://www.w3.org/2000/svg">
<path d="M10.9473 0.894531H5.05257C2.72716 0.894531 0.842041 2.89747 0.842041 5.36822V11.6314C0.842041 14.1021 2.72716 16.1051 5.05257 16.1051H10.9473C13.2727 16.1051 15.1578 14.1021 15.1578 11.6314V5.36822C15.1578 2.89747 13.2727 0.894531 10.9473 0.894531Z" stroke="#71B83E" stroke-width="1.6" stroke-linecap="round" stroke-linejoin="round"/>
<path d="M10.9339 8.01939C11.0206 8.64206 10.9204 9.27794 10.6475 9.83662C10.3745 10.3953 9.94277 10.8483 9.41356 11.1312C8.88435 11.4142 8.28465 11.5126 7.69975 11.4126C7.11484 11.3126 6.57452 11.0191 6.1556 10.574C5.73669 10.1289 5.46052 9.55484 5.36637 8.93338C5.27222 8.31193 5.36488 7.67475 5.63117 7.11246C5.89746 6.55017 6.32383 6.09141 6.84964 5.80141C7.37546 5.5114 7.97394 5.40493 8.55998 5.49712C9.15803 5.59121 9.71172 5.88723 10.1392 6.34145C10.5667 6.79566 10.8453 7.38396 10.9339 8.01939V8.01939Z" stroke="#71B83E" stroke-width="1.6" stroke-linecap="round" stroke-linejoin="round"/>
<path d="M11.9883 4.37695H11.995" stroke="#71B83E" stroke-width="1.6" stroke-linecap="round" stroke-linejoin="round"/>
</svg>
