<svg width="8" height="14" viewBox="0 0 8 14" fill="none" xmlns="http://www.w3.org/2000/svg">
<path d="M7.59547 12.2316C7.78123 12.4316 7.88443 12.6947 7.87411 12.9684C7.87411 13.2421 7.77091 13.4947 7.57483 13.6947C7.38907 13.8842 7.13107 14 6.86275 14C6.59444 14 6.33644 13.9053 6.14036 13.7158L0.299278 7.75789C0.206399 7.66316 0.134159 7.54737 0.0825594 7.42105C0.0309598 7.29474 0 7.1579 0 7.02105C0 6.88421 0.0309598 6.74737 0.0825594 6.61053C0.134159 6.48421 0.206399 6.36842 0.299278 6.27368L6.14036 0.315789C6.23324 0.221053 6.34676 0.136842 6.4706 0.0842105C6.60476 0.0315789 6.73891 0 6.87307 0C7.00723 0 7.15171 0.0210526 7.27555 0.0736842C7.39939 0.126316 7.51291 0.210526 7.61611 0.305263C7.70899 0.4 7.78123 0.526316 7.83283 0.652632C7.89475 0.778947 7.91539 0.915789 7.91539 1.06316C7.91539 1.2 7.88443 1.33684 7.83283 1.46316C7.78123 1.58947 7.69867 1.70526 7.59547 1.81053L2.4871 7.02105L3.45718 8L7.59547 12.2316Z" fill="white"/>
</svg>
