<svg width="17" height="13" viewBox="0 0 17 13" fill="none" xmlns="http://www.w3.org/2000/svg">
<path d="M2.66227 0.833984H14.3419C14.73 0.833984 15.1022 0.983508 15.3766 1.24966C15.651 1.51582 15.8052 1.8768 15.8052 2.2532V10.7484C15.8052 11.1248 15.651 11.4858 15.3766 11.752C15.1022 12.0181 14.73 12.1677 14.3419 12.1677H2.66227C2.27418 12.1677 1.90198 12.0181 1.62756 11.752C1.35314 11.4858 1.19897 11.1248 1.19897 10.7484V2.2532C1.19897 1.8768 1.35314 1.51582 1.62756 1.24966C1.90198 0.983508 2.27418 0.833984 2.66227 0.833984V0.833984Z" stroke="#71B83E" stroke-width="1.6" stroke-linecap="round" stroke-linejoin="round"/>
<path d="M15.8018 2.25L8.49994 7.20723L1.19897 2.25" stroke="#71B83E" stroke-width="1.6" stroke-linecap="round" stroke-linejoin="round"/>
</svg>
