<svg width="17" height="22" viewBox="0 0 17 22" fill="none" xmlns="http://www.w3.org/2000/svg">
<path d="M0.939483 16.3594L1.36203 18.8832C1.40032 19.1177 1.48724 19.3416 1.61722 19.5406C1.74721 19.7395 1.91741 19.9092 2.11691 20.0387C2.3164 20.1682 2.54082 20.2546 2.77577 20.2925C3.01072 20.3304 3.25105 20.3189 3.48135 20.2587C6.02789 19.5431 8.37112 18.2412 10.3228 16.4577C12.1433 14.8248 13.5815 12.8121 14.5353 10.5623C15.592 8.1291 16.0599 5.48199 15.9011 2.83538C15.8832 2.59921 15.8162 2.36939 15.7044 2.16053C15.5926 1.95167 15.4384 1.76836 15.2518 1.62226C15.0651 1.47615 14.85 1.37045 14.6201 1.31188C14.3902 1.25332 14.1506 1.24316 13.9166 1.28207L11.3882 1.70539C10.9783 1.76987 10.6059 1.9809 10.3402 2.29915C10.0746 2.6174 9.93382 3.02116 9.94425 3.43517C9.97416 4.26032 9.91052 5.08626 9.75454 5.89725C9.69157 6.21747 9.72187 6.54895 9.84184 6.85241C9.96181 7.15587 10.1664 7.41858 10.4314 7.60942L11.6843 8.50117C10.837 10.8087 9.38162 12.8454 7.47172 14.3965L6.2189 13.5048C5.9518 13.3169 5.63629 13.2094 5.30975 13.195C4.98321 13.1806 4.65934 13.26 4.3765 13.4237C3.65906 13.8351 2.89738 14.1641 2.10598 14.4047C1.70624 14.5309 1.3668 14.7993 1.15216 15.1589C0.937524 15.5184 0.862645 15.9441 0.941759 16.355L0.939483 16.3594Z" stroke="white" stroke-width="1.6" stroke-linecap="round" stroke-linejoin="round"/>
</svg>
