<svg width="23" height="22" viewBox="0 0 23 22" fill="none" xmlns="http://www.w3.org/2000/svg">
<path d="M3.93948 16.3594L4.36203 18.8832C4.40032 19.1177 4.48724 19.3416 4.61722 19.5406C4.74721 19.7395 4.91741 19.9092 5.11691 20.0387C5.3164 20.1682 5.54082 20.2546 5.77577 20.2925C6.01072 20.3304 6.25105 20.3189 6.48135 20.2587C9.02789 19.5431 11.3711 18.2412 13.3228 16.4577C15.1433 14.8248 16.5815 12.8121 17.5353 10.5623C18.592 8.1291 19.0599 5.48199 18.9011 2.83538C18.8832 2.59921 18.8162 2.36939 18.7044 2.16053C18.5926 1.95167 18.4384 1.76836 18.2518 1.62226C18.0651 1.47615 17.85 1.37045 17.6201 1.31188C17.3902 1.25332 17.1506 1.24316 16.9166 1.28207L14.3882 1.70539C13.9783 1.76987 13.6059 1.9809 13.3402 2.29915C13.0746 2.6174 12.9338 3.02116 12.9442 3.43517C12.9742 4.26032 12.9105 5.08626 12.7545 5.89725C12.6916 6.21747 12.7219 6.54895 12.8418 6.85241C12.9618 7.15587 13.1664 7.41858 13.4314 7.60942L14.6843 8.50117C13.837 10.8087 12.3816 12.8454 10.4717 14.3965L9.2189 13.5048C8.9518 13.3169 8.63629 13.2094 8.30975 13.195C7.98321 13.1806 7.65934 13.26 7.3765 13.4237C6.65906 13.8351 5.89738 14.1641 5.10598 14.4047C4.70624 14.5309 4.3668 14.7993 4.15216 15.1589C3.93752 15.5184 3.86265 15.9441 3.94176 16.355L3.93948 16.3594Z" stroke="#7B7B7B" stroke-width="1.6" stroke-linecap="round" stroke-linejoin="round"/>
</svg>
