<svg width="12" height="12" viewBox="0 0 12 12" fill="none" xmlns="http://www.w3.org/2000/svg">
<path d="M11.6382 6.63589L11.6382 6.63587L11.6365 6.63756C11.4699 6.8081 11.2393 6.90369 11.0004 6.90369H7.00184H6.90184V7.00368V11.0007C6.90184 11.2395 6.80623 11.4701 6.63563 11.6366L6.63479 11.6375C6.46757 11.8046 6.24079 11.9 6.00221 11.9C5.76316 11.9 5.5321 11.8043 5.36521 11.6375L5.36437 11.6366C5.19377 11.4701 5.09816 11.2395 5.09816 11.0007V7.00368V6.90369H4.99816H0.999631C0.760704 6.90369 0.530089 6.8081 0.363453 6.63756L0.362625 6.63672C0.19573 6.46989 0.1 6.23893 0.1 6C0.1 5.76193 0.195136 5.53491 0.363048 5.36286C0.529912 5.19628 0.760785 5.10074 0.999631 5.10074H4.99816H5.09816V5.00074V1.00368C5.09816 0.764879 5.19377 0.534366 5.36437 0.367792L5.36439 0.367812L5.36603 0.366129C5.53267 0.195588 5.76328 0.1 6.00221 0.1C6.24066 0.1 6.467 0.195249 6.63397 0.366129L6.63395 0.366148L6.63563 0.367792C6.80623 0.534366 6.90184 0.764879 6.90184 1.00368V5.00074V5.10074H7.00184H11.0004C11.2394 5.10074 11.4705 5.19645 11.6374 5.36328C11.8085 5.5343 11.9 5.76074 11.9 6C11.9 6.23996 11.808 6.4701 11.6382 6.63589Z" fill="#71B83E" stroke="#F5F5F5" stroke-width="0.2"/>
</svg>
