<svg width="21" height="19" viewBox="0 0 21 19" fill="none" xmlns="http://www.w3.org/2000/svg">
<path d="M12.1959 14.589C11.3303 14.589 10.4732 14.4273 9.67343 14.1131C8.87372 13.7989 8.14708 13.3383 7.535 12.7578C6.92292 12.1772 6.4374 11.488 6.10614 10.7294C5.77489 9.97086 5.60439 9.15785 5.60439 8.3368C5.60439 7.51575 5.77489 6.70274 6.10614 5.94418C6.4374 5.18563 6.92292 4.49639 7.535 3.91582C8.14708 3.33525 8.87372 2.87472 9.67343 2.56051C10.4732 2.24631 11.3303 2.08459 12.1959 2.08459C13.9441 2.08459 15.6206 2.74331 16.8568 3.91582C18.0929 5.08834 18.7874 6.67861 18.7874 8.3368C18.7874 9.99499 18.0929 11.5853 16.8568 12.7578C15.6206 13.9303 13.9441 14.589 12.1959 14.589ZM5.25285 13.449L1.31992 17.1795C1.21507 17.2757 1.13147 17.3907 1.07399 17.5179C1.01651 17.6451 0.986305 17.7818 0.985142 17.9202C0.983978 18.0586 1.01188 18.1957 1.06721 18.3238C1.12254 18.4518 1.2042 18.5681 1.30742 18.6659C1.41064 18.7636 1.53336 18.8409 1.66841 18.8932C1.80346 18.9455 1.94814 18.9718 2.09401 18.9705C2.23987 18.9692 2.384 18.9404 2.518 18.8857C2.65199 18.831 2.77315 18.7515 2.87441 18.6519L6.80734 14.9214C8.57336 16.2217 10.7954 16.8348 13.0212 16.6358C15.247 16.4368 17.3091 15.4407 18.7879 13.8503C20.2666 12.2599 21.0508 10.1947 20.9808 8.07517C20.9108 5.95565 19.9918 3.94111 18.411 2.44164C16.8301 0.942179 14.7063 0.0705146 12.4717 0.00409417C10.2372 -0.0623262 8.05994 0.68149 6.38322 2.08413C4.70651 3.48676 3.65636 5.44277 3.44656 7.55398C3.23676 9.66518 3.88308 11.7729 5.25395 13.448L5.25285 13.449Z" fill="#181B19"/>
</svg>
