<svg width="6" height="10" viewBox="0 0 6 10" fill="none" xmlns="http://www.w3.org/2000/svg">
<path d="M5.42533 8.73684C5.55802 8.8797 5.63173 9.06767 5.62436 9.26316C5.62436 9.45865 5.55065 9.6391 5.41059 9.78195C5.27791 9.91729 5.09362 10 4.90197 10C4.71031 10 4.52603 9.93233 4.38597 9.79699L0.21377 5.54135C0.147428 5.47368 0.0958279 5.39098 0.058971 5.30075C0.0221141 5.21053 0 5.11278 0 5.01504C0 4.91729 0.0221141 4.81955 0.058971 4.7218C0.0958279 4.63158 0.147428 4.54887 0.21377 4.4812L4.38597 0.225564C4.45231 0.157895 4.5334 0.0977444 4.62185 0.0601504C4.71768 0.0225564 4.81351 0 4.90934 0C5.00517 0 5.10837 0.0150376 5.19682 0.0526316C5.28528 0.0902256 5.36636 0.150376 5.44008 0.218045C5.50642 0.285714 5.55802 0.37594 5.59488 0.466165C5.6391 0.556391 5.65385 0.654135 5.65385 0.759398C5.65385 0.857143 5.63173 0.954887 5.59488 1.04511C5.55802 1.13534 5.49905 1.21805 5.42533 1.29323L1.7765 5.01504L2.46941 5.71429L5.42533 8.73684Z" fill="#71B83E"/>
</svg>
