<svg width="25" height="24" viewBox="0 0 25 24" fill="none" xmlns="http://www.w3.org/2000/svg">
<path d="M0.285651 9.9492L0.285641 9.94926C0.229528 10.2524 0.192496 10.5567 0.15503 10.8647C0.137454 11.0091 0.119782 11.1544 0.1 11.3007V11.3022V11.3049V11.3077V11.3104V11.3132V11.3159V11.3187V11.3214V11.3241V11.3269V11.3296V11.3324V11.3351V11.3379V11.3406V11.3434V11.3461V11.3489V11.3516V11.3544V11.3571V11.3599V11.3626V11.3654V11.3681V11.3709V11.3736V11.3764V11.3791V11.3819V11.3846V11.3874V11.3901V11.3929V11.3956V11.3984V11.4011V11.4039V11.4066V11.4094V11.4121V11.4149V11.4176V11.4204V11.4231V11.4258V11.4286V11.4313V11.4341V11.4368V11.4396V11.4423V11.4451V11.4478V11.4506V11.4533V11.4561V11.4588V11.4616V11.4643V11.4671V11.4698V11.4726V11.4753V11.4781V11.4808V11.4836V11.4863V11.4891V11.4918V11.4946V11.4973V11.5001V11.5028V11.5055V11.5083V11.511V11.5138V11.5165V11.5193V11.522V11.5248V11.5275V11.5303V11.533V11.5358V11.5385V11.5413V11.544V11.5468V11.5495V11.5523V11.555V11.5578V11.5605V11.5633V11.566V11.5688V11.5715V11.5742V11.577V11.5797V11.5825V11.5852V11.588V11.5907V11.5935V11.5962V11.599V11.6017V11.6045V11.6072V11.61V11.6127V11.6155V11.6182V11.621V11.6237V11.6265V11.6292V11.632V11.6347V11.6374V11.6402V11.6429V11.6457V11.6484V11.6512V11.6539V11.6567V11.6594V11.6622V11.6649V11.6677V11.6704V11.6732V11.6759V11.6787V11.6814V11.6842V11.6869V11.6897V11.6924V11.6951V11.6979V11.7006V11.7034V11.7061V11.7089V11.7116V11.7144V11.7171V11.7199V11.7226V11.7254V11.7281V11.7309V11.7336V11.7364V11.7391V11.7419V11.7446V11.7474V11.7501V11.7528V11.7556V11.7583V11.7611V11.7638V11.7666V11.7693V11.7721V11.7748V11.7776V11.7803V11.7831V11.7858V11.7886V11.7913V11.7941V11.7968V11.7996V11.8023V11.805V11.8078V11.8105V11.8133V11.816V11.8188V11.8215V11.8243V11.827V11.8298V11.8325V11.8353V11.838V11.8408V11.8435V11.8463V11.849V11.8518V11.8545V11.8572V11.86V11.8627V11.8655V11.8682V11.871V11.8737V11.8765V11.8792V11.882V11.8847V11.8875V11.8902V11.893V11.8957V11.8985V11.9012V11.904V11.9067V11.9094V11.9122V11.9149V11.9177V11.9204V11.9232V11.9259V11.9287V11.9314V11.9342V11.9369V11.9397V11.9424V11.9452V11.9479V11.9507V11.9534V11.9562V11.9589V11.9616V11.9644V11.9671V11.9699V11.9726V11.9754V11.9781V11.9809V11.9836V11.9864V11.9891V11.9919V11.9946V11.9974V12.0001V12.0029V12.0056V12.0083V12.0111V12.0138V12.0166V12.0193V12.0221V12.0248V12.0276V12.0303V12.0331V12.0358V12.0386V12.0413V12.0441V12.0468V12.0496V12.0523V12.0551V12.0578V12.0605V12.0633V12.066V12.0688V12.0715V12.0743V12.077V12.0798V12.0825V12.0853V12.088V12.0908V12.0935V12.0963V12.099V12.1018V12.1045V12.1073V12.11V12.1127V12.1155V12.1182V12.121V12.1237V12.1265V12.1292V12.132V12.1347V12.1375V12.1402V12.143V12.1457V12.1485V12.1512V12.154V12.1567V12.1594V12.1622V12.1649V12.1677V12.1704V12.1732V12.1759V12.1787V12.1814V12.1842V12.1869V12.1897V12.1924V12.1952V12.1979V12.2007V12.2034V12.2062V12.2089V12.2116V12.2144V12.2171V12.2199V12.2226V12.2254V12.2281V12.2309V12.2336V12.2364V12.2391V12.2419V12.2446V12.2474V12.2501V12.2529V12.2556V12.2584V12.2611V12.2639V12.2666V12.2693V12.2721V12.2748V12.2776V12.2803V12.2831V12.2858V12.2886V12.2913V12.2941V12.2968V12.2996V12.3023V12.3051V12.3078V12.3106V12.3133V12.3161V12.3188V12.3216V12.3243V12.327V12.3298V12.3325V12.3353V12.338V12.3408V12.3435V12.3463V12.349V12.3518V12.3545V12.3573V12.36V12.3628V12.3655V12.3683V12.371V12.3738V12.3765V12.3793V12.382V12.3847V12.3875V12.3902V12.393V12.3957V12.3985V12.4012V12.404V12.4067V12.4095V12.4122V12.415V12.4177V12.4205V12.4232V12.426V12.4287V12.4315V12.4342V12.437V12.4397V12.4425V12.4452V12.4479V12.4507V12.4534V12.4562V12.4589V12.4617V12.4644V12.4672V12.4699V12.4727V12.4754V12.4782V12.4809V12.4837V12.4864V12.4892V12.4919V12.4947V12.4974V12.5002V12.5029V12.5057V12.5084V12.5112V12.5139V12.5167V12.5194V12.5221V12.5249V12.5276V12.5304V12.5331V12.5359V12.5386V12.5414V12.5441V12.5469V12.5496V12.5524V12.5551V12.5579V12.5606V12.5634V12.5661V12.5689V12.5716V12.5744V12.5771V12.5799V12.5826V12.5854V12.5881V12.5909V12.5936V12.5964V12.5991V12.6019V12.6046V12.6073V12.6101V12.6128V12.6156V12.6183V12.6211V12.6238V12.6266V12.6293V12.6321V12.6348V12.6376V12.6403V12.6431V12.6458V12.6486V12.6513V12.6541V12.6568V12.6596V12.6623V12.6651V12.6678V12.6706V12.6733V12.6761V12.6788V12.6816V12.6843V12.6871V12.6898V12.6926V12.6941C0.119872 12.8408 0.137488 12.9865 0.155004 13.1314C0.19213 13.4385 0.22881 13.742 0.28559 14.044L0.285604 14.0441C0.953233 17.61 2.85336 20.3328 5.944 22.2242C7.53487 23.1977 9.27901 23.7299 11.1453 23.8615L11.146 23.8615C11.1847 23.8645 11.2212 23.8724 11.2531 23.8802C11.2677 23.8838 11.2802 23.8871 11.2919 23.8901C11.3053 23.8936 11.3177 23.8968 11.3311 23.9H11.3335H11.3362H11.339H11.3418H11.3445H11.3473H11.35H11.3528H11.3555H11.3583H11.361H11.3638H11.3665H11.3693H11.372H11.3748H11.3775H11.3803H11.383H11.3858H11.3885H11.3913H11.394H11.3968H11.3996H11.4023H11.4051H11.4078H11.4106H11.4133H11.4161H11.4188H11.4216H11.4243H11.4271H11.4298H11.4326H11.4353H11.4381H11.4408H11.4436H11.4463H11.4491H11.4519H11.4546H11.4574H11.4601H11.4629H11.4656H11.4684H11.4711H11.4739H11.4766H11.4794H11.4821H11.4849H11.4876H11.4904H11.4931H11.4959H11.4986H11.5014H11.5041H11.5069H11.5097H11.5124H11.5152H11.5179H11.5207H11.5234H11.5262H11.5289H11.5317H11.5344H11.5372H11.5399H11.5427H11.5454H11.5482H11.5509H11.5537H11.5564H11.5592H11.5619H11.5647H11.5675H11.5702H11.573H11.5757H11.5785H11.5812H11.584H11.5867H11.5895H11.5922H11.595H11.5977H11.6005H11.6032H11.606H11.6087H11.6115H11.6142H11.617H11.6197H11.6225H11.6253H11.628H11.6308H11.6335H11.6363H11.639H11.6418H11.6445H11.6473H11.65H11.6528H11.6555H11.6583H11.661H11.6638H11.6665H11.6693H11.672H11.6748H11.6775H11.6803H11.6831H11.6858H11.6886H11.6913H11.6941H11.6968H11.6996H11.7023H11.7051H11.7078H11.7106H11.7133H11.7161H11.7188H11.7216H11.7243H11.7271H11.7298H11.7326H11.7354H11.7381H11.7409H11.7436H11.7464H11.7491H11.7519H11.7546H11.7574H11.7601H11.7629H11.7656H11.7684H11.7711H11.7739H11.7766H11.7794H11.7821H11.7849H11.7876H11.7904H11.7932H11.7959H11.7987H11.8014H11.8042H11.8069H11.8097H11.8124H11.8152H11.8179H11.8207H11.8234H11.8262H11.8289H11.8317H11.8344H11.8372H11.8399H11.8427H11.8454H11.8482H11.851H11.8537H11.8565H11.8592H11.862H11.8647H11.8675H11.8702H11.873H11.8757H11.8785H11.8812H11.884H11.8867H11.8895H11.8922H11.895H11.8977H11.9005H11.9032H11.906H11.9088H11.9115H11.9143H11.917H11.9198H11.9225H11.9253H11.928H11.9308H11.9335H11.9363H11.939H11.9418H11.9445H11.9473H11.95H11.9528H11.9555H11.9583H11.961H11.9638H11.9666H11.9693H11.9721H11.9748H11.9776H11.9803H11.9831H11.9858H11.9886H11.9913H11.9941H11.9968H11.9996H12.0023H12.0051H12.0078H12.0106H12.0133H12.0161H12.0189H12.0216H12.0244H12.0271H12.0299H12.0326H12.0354H12.0381H12.0409H12.0436H12.0464H12.0491H12.0519H12.0546H12.0574H12.0601H12.0629H12.0656H12.0684H12.0711H12.0739H12.0767H12.0794H12.0822H12.0849H12.0877H12.0904H12.0932H12.0959H12.0987H12.1014H12.1042H12.1069H12.1097H12.1124H12.1152H12.1179H12.1207H12.1234H12.1262H12.1289H12.1317H12.1345H12.1372H12.14H12.1427H12.1455H12.1482H12.151H12.1537H12.1565H12.1592H12.162H12.1647H12.1675H12.1702H12.173H12.1757H12.1785H12.1812H12.184H12.1867H12.1895H12.1923H12.195H12.1978H12.2005H12.2033H12.206H12.2088H12.2115H12.2143H12.217H12.2198H12.2225H12.2253H12.228H12.2308H12.2335H12.2363H12.239H12.2418H12.2445H12.2473H12.2501H12.2528H12.2556H12.2583H12.2611H12.2638H12.2666H12.2693H12.2721H12.2748H12.2776H12.2803H12.2831H12.2858H12.2886H12.2913H12.2941H12.2968H12.2996H12.3024H12.3051H12.3079H12.3106H12.3134H12.3161H12.3189H12.3216H12.3244H12.3271H12.3299H12.3326H12.3354H12.3381H12.3409H12.3436H12.3464H12.3491H12.3519H12.3546H12.3574H12.3602H12.3629H12.3657H12.3684H12.3712H12.3739H12.3767H12.3794H12.3822H12.3849H12.3877H12.3904H12.3932H12.3959H12.3987H12.4014H12.4042H12.4069H12.4097H12.4124H12.4152H12.418H12.4207H12.4235H12.4262H12.429H12.4317H12.4345H12.4372H12.44H12.4427H12.4455H12.4482H12.451H12.4537H12.4565H12.4592H12.462H12.4647H12.4675H12.4702H12.473H12.4758H12.4785H12.4813H12.484H12.4868H12.4895H12.4923H12.495H12.4978H12.5005H12.5033H12.506H12.5088H12.5115H12.5143H12.517H12.5198H12.5225H12.5253H12.528H12.5308H12.5336H12.5363H12.5391H12.5418H12.5446H12.5473H12.5501H12.5528H12.5556H12.5583H12.5611H12.5638H12.5666H12.5693H12.5721H12.5748H12.5776H12.5803H12.5831H12.5858H12.5886H12.5914H12.5941H12.5969H12.5996H12.6024H12.6051H12.6079H12.6106H12.6134H12.6161H12.6189H12.6216H12.6244H12.6271H12.6299H12.6326H12.6354H12.6381H12.6409H12.6437H12.6464H12.6492H12.6519H12.6547H12.6574H12.6602H12.6629H12.6657H12.6684H12.6712H12.6739H12.6767H12.6794H12.6822H12.6849H12.6877H12.6904H12.6932H12.6959H12.6987H12.7015H12.7042H12.707H12.7097H12.7125H12.7152H12.718H12.7207H12.7223C12.8688 23.8803 13.0143 23.8623 13.1591 23.8444C13.4679 23.8063 13.7735 23.7686 14.0786 23.7148M0.285651 9.9492L14.0959 23.8133M0.285651 9.9492C0.90196 6.6096 2.63337 3.99327 5.4395 2.08678L5.43951 2.08677C7.05892 0.986412 8.86325 0.365593 10.8113 0.156976L10.8114 0.156971C11.2106 0.114034 11.6148 0.100586 12.0198 0.100001M0.285651 9.9492L12.0198 0.100001M14.0786 23.7148L14.0959 23.8133M14.0786 23.7148C14.0786 23.7148 14.0785 23.7148 14.0785 23.7148L14.0959 23.8133M14.0786 23.7148C16.7869 23.236 19.061 21.9671 20.8982 19.9325L20.9725 19.9995C19.1205 22.0505 16.8263 23.3306 14.0959 23.8133M23.8935 13.1959L23.9929 13.207L23.8935 13.1959C23.8935 13.1959 23.8935 13.1959 23.8935 13.1959ZM23.8935 13.1959C23.9121 13.0285 23.9313 12.8617 23.9505 12.6951V12.6938V12.6921V12.6904V12.6886V12.6869V12.6851V12.6834V12.6817V12.6799V12.6782V12.6764V12.6747V12.673V12.6712V12.6695V12.6677V12.666V12.6642V12.6625V12.6608V12.659V12.6573V12.6555V12.6538V12.6521V12.6503V12.6486V12.6468V12.6451V12.6434V12.6416V12.6399V12.6381V12.6364V12.6347V12.6329V12.6312V12.6294V12.6277V12.626V12.6242V12.6225V12.6207V12.619V12.6173V12.6155V12.6138V12.612V12.6103V12.6086V12.6068V12.6051V12.6033V12.6016V12.5999V12.5981V12.5964V12.5946V12.5929V12.5912V12.5894V12.5877V12.5859V12.5842V12.5825V12.5807V12.579V12.5772V12.5755V12.5738V12.572V12.5703V12.5685V12.5668V12.5651V12.5633V12.5616V12.5598V12.5581V12.5564V12.5546V12.5529V12.5511V12.5494V12.5477V12.5459V12.5442V12.5424V12.5407V12.539V12.5372V12.5355V12.5337V12.532V12.5303V12.5285V12.5268V12.525V12.5233V12.5216V12.5198V12.5181V12.5163V12.5146V12.5129V12.5111V12.5094V12.5076V12.5059V12.5042V12.5024V12.5007V12.4989V12.4972V12.4955V12.4937V12.492V12.4902V12.4885V12.4868V12.485V12.4833V12.4815V12.4798V12.4781V12.4763V12.4746V12.4728V12.4711V12.4694V12.4676V12.4659V12.4641V12.4624V12.4607V12.4589V12.4572V12.4554V12.4537V12.452V12.4502V12.4485V12.4467V12.445V12.4433V12.4415V12.4398V12.4381V12.4363V12.4346V12.4328V12.4311V12.4294V12.4276V12.4259V12.4241V12.4224V12.4207V12.4189V12.4172V12.4154V12.4137V12.412V12.4102V12.4085V12.4067V12.405V12.4033V12.4015V12.3998V12.398V12.3963V12.3946V12.3928V12.3911V12.3893V12.3876V12.3859V12.3841V12.3824V12.3807V12.3789V12.3772V12.3754V12.3737V12.372V12.3702V12.3685V12.3667V12.365V12.3633V12.3615V12.3598V12.358V12.3563V12.3546V12.3528V12.3511V12.3493V12.3476V12.3459V12.3441V12.3424V12.3406V12.3389V12.3372V12.3354V12.3337V12.332V12.3302V12.3285V12.3267V12.325V12.3233V12.3215V12.3198V12.318V12.3163V12.3146V12.3128V12.3111V12.3093V12.3076V12.3059V12.3041V12.3024V12.3006V12.2989V12.2972V12.2954V12.2937V12.2919V12.2902V12.2885V12.2867V12.285V12.2833V12.2815V12.2798V12.278V12.2763V12.2746V12.2728V12.2711V12.2693V12.2676V12.2659V12.2641V12.2624V12.2606V12.2589V12.2572V12.2554V12.2537V12.2519V12.2502V12.2485V12.2467V12.245V12.2433V12.2415V12.2398V12.238V12.2363V12.2346V12.2328V12.2311V12.2293V12.2276V12.2259V12.2241V12.2224V12.2206V12.2189V12.2172V12.2154V12.2137V12.2119V12.2102V12.2085V12.2067V12.205V12.2033V12.2015V12.1998V12.198V12.1963V12.1946V12.1928V12.1911V12.1893V12.1876V12.1859V12.1841V12.1824V12.1806V12.1789V12.1772V12.1754V12.1737V12.1719V12.1702V12.1685V12.1667V12.165V12.1632V12.1615V12.1598V12.158V12.1563V12.1546V12.1528V12.1511V12.1493V12.1476V12.1459V12.1441V12.1424V12.1406V12.1389V12.1372V12.1354V12.1337V12.1319V12.1302V12.1285V12.1267V12.125V12.1232V12.1215V12.1198V12.118V12.1163V12.1145V12.1128V12.1111V12.1093V12.1076V12.1059V12.1041V12.1024V12.1006V12.0989V12.0972V12.0954V12.0937V12.0919V12.0902V12.0885V12.0867V12.085V12.0832V12.0815V12.0798V12.078V12.0763V12.0745V12.0728V12.0711V12.0693V12.0676V12.0658V12.0641V12.0624V12.0606V12.0589V12.0571V12.0554V12.0537V12.0519V12.0502V12.0484V12.0467V12.045V12.0432V12.0415V12.0398V12.038V12.0363V12.0345V12.0328V12.0311V12.0293V12.0276V12.0258V12.0241V12.0224V12.0206V12.0189V12.0171V12.0154V12.0137V12.0119V12.0102V12.0084V12.0067V12.005V12.0032V12.0015V11.9997V11.998V11.9963V11.9945V11.9928V11.991V11.9893V11.9876V11.9858V11.9841V11.9823V11.9806V11.9789V11.9771V11.9754V11.9736V11.9719V11.9702V11.9684V11.9667V11.9649V11.9632V11.9615V11.9597V11.958V11.9562V11.9545V11.9528V11.951V11.9493V11.9475V11.9458V11.9441V11.9423V11.9406V11.9388V11.9371V11.9354V11.9336V11.9319V11.9301V11.9284V11.9267V11.9249V11.9232V11.9214V11.9197V11.918V11.9162V11.9145V11.9127V11.911V11.9093V11.9075V11.9058V11.904V11.9023V11.9006V11.8988V11.8971V11.8953V11.8936V11.8919V11.8901V11.8884V11.8866V11.8849V11.8832V11.8814V11.8797V11.8779V11.8762V11.8745V11.8727V11.871V11.8692V11.8675V11.8657V11.864V11.8623V11.8605V11.8588V11.857V11.8553V11.8536V11.8518V11.8501V11.8483V11.8466V11.8449V11.8431V11.8414V11.8396V11.8379V11.8362V11.8347M23.8935 13.1959L23.9505 11.8347M12.0198 0.100001C12.0198 0.100001 12.0198 0.100001 12.0198 0.100001C12.0198 0.100001 12.0198 0.100001 12.0198 0.100001ZM21.9872 14.6046L21.9872 14.6046C21.4776 16.6448 20.3945 18.3553 18.8048 19.7305L18.7394 19.6548L18.8048 19.7305C16.3797 21.8278 13.5529 22.6294 10.3947 22.153L10.4096 22.0541L10.3947 22.1529C7.99835 21.7912 5.97075 20.6767 4.36704 18.8578L4.44205 18.7917L21.9872 14.6046ZM21.9872 14.6046C22.1165 14.0868 22.179 13.5486 22.2405 13.0182C22.2665 12.7947 22.2922 12.5727 22.3228 12.3541C22.3334 12.2785 22.3356 12.2028 22.3376 12.1331L22.3377 12.1288C22.3397 12.0589 22.3415 11.9949 22.3494 11.9324L22.3494 11.9321M21.9872 14.6046L22.3494 11.9321M22.3494 11.9321C22.4001 11.5226 22.675 11.2444 23.0355 11.2048M22.3494 11.9321L23.0355 11.2048M23.0355 11.2048C23.4342 11.1612 23.7574 11.3598 23.9066 11.7443M23.0355 11.2048L23.9066 11.7443M23.9066 11.7443C23.9181 11.7742 23.9359 11.8075 23.9491 11.8321C23.9496 11.833 23.95 11.8338 23.9505 11.8347M23.9066 11.7443L23.9505 11.8347" fill="#7B7B7B" stroke="white" stroke-width="0.2"/>
</svg>
