<svg width="6" height="10" viewBox="0 0 6 10" fill="none" xmlns="http://www.w3.org/2000/svg">
<path opacity="0.9" d="M5.48333 8.73684C5.61743 8.8797 5.69194 9.06767 5.68449 9.26316C5.68449 9.45865 5.60998 9.6391 5.46843 9.78195C5.33433 9.91729 5.14807 10 4.95437 10C4.76066 10 4.57441 9.93233 4.43286 9.79699L0.216055 5.54135C0.149004 5.47368 0.0968523 5.39098 0.0596014 5.30075C0.0223505 5.21053 0 5.11278 0 5.01504C0 4.91729 0.0223505 4.81955 0.0596014 4.72181C0.0968523 4.63158 0.149004 4.54887 0.216055 4.4812L4.43286 0.225564C4.49991 0.157895 4.58186 0.0977444 4.67126 0.0601504C4.76811 0.0225564 4.86497 0 4.96182 0C5.05867 0 5.16297 0.0150376 5.25238 0.0526316C5.34178 0.0902256 5.42373 0.150376 5.49823 0.218045C5.56528 0.285714 5.61743 0.37594 5.65469 0.466165C5.69939 0.556391 5.71429 0.654135 5.71429 0.759398C5.71429 0.857143 5.69194 0.954887 5.65469 1.04511C5.61743 1.13534 5.55783 1.21805 5.48333 1.29323L1.79549 5.01504L2.49581 5.71429L5.48333 8.73684Z" fill="#71B83E"/>
</svg>
