<?xml version="1.0" standalone="no"?>
<!DOCTYPE svg PUBLIC "-//W3C//DTD SVG 20010904//EN"
 "http://www.w3.org/TR/2001/REC-SVG-20010904/DTD/svg10.dtd">
<svg version="1.0" xmlns="http://www.w3.org/2000/svg"
 width="1280.000000pt" height="2133.000000pt" viewBox="0 0 1280.000000 2133.000000"
 preserveAspectRatio="xMidYMid meet">
<metadata>
Created by potrace 1.16, written by Peter Selinger 2001-2019
</metadata>
<g transform="translate(0.000000,2133.000000) scale(0.100000,-0.100000)"
fill="#000000" stroke="none">
<path d="M1495 21324 c-140 -19 -195 -31 -296 -64 -444 -145 -791 -440 -984
-835 -62 -125 -96 -224 -127 -369 -19 -87 -22 -133 -23 -326 0 -200 3 -237 23
-329 68 -300 195 -531 422 -765 69 -71 426 -420 795 -775 369 -355 798 -769
955 -921 157 -152 409 -395 560 -540 830 -798 1100 -1058 1235 -1190 83 -80
445 -429 805 -775 360 -346 727 -699 815 -785 88 -86 333 -322 545 -526 212
-203 513 -493 670 -644 291 -280 842 -806 1503 -1434 l368 -350 -23 -21 c-13
-12 -149 -143 -303 -291 -154 -148 -446 -429 -650 -625 -1389 -1333 -3028
-2909 -3345 -3214 -339 -326 -892 -857 -2435 -2340 -1251 -1201 -1505 -1447
-1589 -1536 -156 -166 -274 -365 -344 -579 -67 -206 -67 -202 -66 -490 0 -255
1 -269 26 -362 50 -182 187 -465 301 -618 86 -116 263 -272 433 -382 140 -90
349 -174 521 -209 154 -31 517 -39 664 -14 249 41 476 127 666 250 156 102 33
-14 2128 1999 418 402 996 958 1285 1236 289 278 746 717 1015 975 270 259
614 589 765 735 151 146 446 429 655 630 209 201 558 536 775 745 417 402
1004 965 2025 1944 899 862 1183 1146 1257 1256 116 173 214 410 258 626 19
93 21 128 17 319 -4 180 -8 228 -26 295 -92 340 -211 554 -435 784 -67 68
-350 345 -631 615 -872 839 -2024 1946 -2935 2821 -980 941 -1991 1912 -2575
2475 -813 782 -3165 3041 -3280 3149 -66 62 -160 140 -210 173 -172 114 -413
215 -620 260 -71 15 -139 20 -325 23 -129 2 -248 1 -265 -1z"/>
</g>
</svg>
