<svg width="6" height="10" viewBox="0 0 6 10" fill="none" xmlns="http://www.w3.org/2000/svg">
<path opacity="0.9" d="M0.242504 1.26316C0.101696 1.1203 0.023468 0.932331 0.0312905 0.736842C0.0312905 0.541353 0.109518 0.360902 0.258149 0.218045C0.398957 0.0827065 0.594524 0 0.797915 0C1.0013 0 1.19687 0.067668 1.3455 0.203007L5.77314 4.45865C5.84355 4.52632 5.89831 4.60902 5.93742 4.69925C5.97653 4.78947 6 4.88722 6 4.98496C6 5.08271 5.97653 5.18045 5.93742 5.27819C5.89831 5.36842 5.84355 5.45113 5.77314 5.5188L1.3455 9.77444C1.2751 9.84211 1.18905 9.90226 1.09518 9.93985C0.993481 9.97744 0.891787 10 0.790092 10C0.688396 10 0.578878 9.98496 0.485006 9.94737C0.391134 9.90977 0.305085 9.84962 0.226858 9.78195C0.156454 9.71429 0.101695 9.62406 0.0625815 9.53383C0.0156455 9.44361 4.76837e-07 9.34586 4.76837e-07 9.2406C4.76837e-07 9.14286 0.023468 9.04511 0.0625815 8.95489C0.101695 8.86466 0.164277 8.78195 0.242504 8.70677L4.11473 4.98496L3.3794 4.28571L0.242504 1.26316Z" fill="#7B7B7B"/>
</svg>
