<svg width="9" height="14" viewBox="0 0 9 14" fill="none" xmlns="http://www.w3.org/2000/svg">
<path d="M8.0605 12.2316C8.25763 12.4316 8.36715 12.6947 8.35619 12.9684C8.35619 13.2421 8.24668 13.4947 8.03859 13.6947C7.84146 13.8842 7.56767 14 7.28292 14C6.99817 14 6.72438 13.9053 6.5163 13.7158L0.3176 7.7579C0.219035 7.66316 0.142372 7.54737 0.0876134 7.42105C0.0328546 7.29474 -6.25763e-07 7.1579 -6.138e-07 7.02105C-6.01837e-07 6.88421 0.0328547 6.74737 0.0876135 6.61053C0.142372 6.48421 0.219035 6.36842 0.317601 6.27368L6.5163 0.31579C6.61486 0.221053 6.73533 0.136843 6.86676 0.0842111C7.00913 0.0315796 7.1515 6.25204e-07 7.29387 6.37651e-07C7.43625 6.50097e-07 7.58957 0.0210533 7.72099 0.0736849C7.85241 0.126316 7.97288 0.210527 8.0824 0.305264C8.18097 0.400001 8.25763 0.526317 8.31239 0.652632C8.3781 0.778948 8.4 0.91579 8.4 1.06316C8.4 1.2 8.36715 1.33684 8.31239 1.46316C8.25763 1.58947 8.17001 1.70526 8.0605 1.81053L2.63937 7.02105L3.66884 8L8.0605 12.2316Z" fill="#181725"/>
</svg>
