<svg width="14" height="8" viewBox="0 0 14 8" fill="none" xmlns="http://www.w3.org/2000/svg">
<path opacity="0.9" d="M1.76842 7.67666C1.56842 7.86441 1.30526 7.96871 1.03158 7.95828C0.757895 7.95828 0.505263 7.85398 0.305264 7.6558C0.11579 7.46806 8.59462e-08 7.2073 8.27123e-08 6.93612C7.94785e-08 6.66493 0.0947352 6.40417 0.284209 6.206L6.24211 0.302477C6.33684 0.208605 6.45263 0.135593 6.57895 0.0834421C6.70526 0.0312908 6.84211 8.5357e-08 6.97895 8.37252e-08C7.11579 8.20934e-08 7.25263 0.0312908 7.38947 0.0834421C7.51579 0.135593 7.63158 0.208605 7.72632 0.302477L13.6842 6.206C13.7789 6.29987 13.8632 6.4146 13.9158 6.53977C13.9684 6.67536 14 6.81095 14 6.94655C14 7.08214 13.9789 7.22816 13.9263 7.35333C13.8737 7.47849 13.7895 7.59322 13.6947 7.69752C13.6 7.7914 13.4737 7.86441 13.3474 7.91656C13.2211 7.97914 13.0842 8 12.9368 8C12.8 8 12.6632 7.96871 12.5368 7.91656C12.4105 7.86441 12.2947 7.78097 12.1895 7.67666L6.97895 2.51369L6 3.49413L1.76842 7.67666Z" fill="#71B83E"/>
</svg>
