<?xml version="1.0" standalone="no"?>
<!DOCTYPE svg PUBLIC "-//W3C//DTD SVG 20010904//EN"
 "http://www.w3.org/TR/2001/REC-SVG-20010904/DTD/svg10.dtd">
<svg version="1.0" xmlns="http://www.w3.org/2000/svg"
 width="1280.000000pt" height="2133.000000pt" viewBox="0 0 1280.000000 2133.000000"
 preserveAspectRatio="xMidYMid meet">
<metadata>
Created by potrace 1.16, written by Peter Selinger 2001-2019
</metadata>
<g transform="translate(0.000000,2133.000000) scale(0.100000,-0.100000)"
fill="#000000" stroke="none">
<path d="M10949 21326 c-2 -2 -31 -6 -65 -10 -70 -7 -273 -56 -359 -86 -98
-35 -259 -115 -342 -171 -43 -28 -80 -55 -83 -58 -3 -4 -25 -22 -50 -41 -58
-46 -125 -107 -284 -260 -72 -69 -185 -177 -251 -241 -113 -108 -209 -201
-515 -494 -69 -67 -181 -175 -250 -241 -69 -66 -186 -179 -260 -250 -74 -71
-191 -183 -260 -250 -173 -166 -351 -337 -505 -485 -290 -279 -425 -409 -530
-509 -60 -59 -168 -163 -240 -231 -331 -318 -438 -421 -539 -519 -61 -58 -166
-159 -235 -226 -70 -66 -193 -185 -276 -264 -82 -80 -199 -192 -260 -250 -60
-58 -166 -159 -235 -225 -69 -67 -190 -183 -270 -260 -80 -76 -161 -155 -181
-174 -19 -20 -75 -74 -125 -121 -78 -74 -230 -220 -704 -676 -69 -66 -192
-185 -275 -264 -82 -80 -199 -192 -259 -250 -61 -58 -166 -159 -235 -226 -218
-209 -422 -405 -535 -514 -61 -58 -166 -159 -235 -226 -70 -66 -193 -185 -276
-264 -82 -80 -199 -192 -260 -250 -60 -58 -166 -159 -235 -225 -69 -67 -190
-183 -270 -260 -80 -76 -161 -155 -181 -174 -19 -20 -75 -74 -125 -121 -421
-399 -844 -813 -897 -880 -168 -211 -292 -505 -338 -799 -11 -74 -8 -366 5
-426 31 -146 63 -258 101 -350 26 -64 87 -188 105 -215 9 -14 44 -65 76 -115
58 -89 175 -213 429 -455 61 -58 178 -170 260 -250 83 -79 206 -198 276 -264
69 -67 174 -168 235 -226 101 -98 208 -201 539 -519 72 -68 180 -172 240 -231
61 -58 175 -168 255 -245 168 -161 301 -289 640 -615 135 -130 283 -272 330
-316 47 -45 110 -105 140 -135 31 -30 112 -108 181 -174 115 -111 197 -190
494 -475 61 -58 178 -170 260 -250 83 -79 206 -198 276 -264 69 -67 174 -168
235 -226 113 -109 317 -305 535 -514 69 -67 174 -168 235 -226 101 -98 208
-201 539 -519 72 -68 180 -172 240 -231 61 -58 175 -168 255 -245 80 -76 201
-193 271 -260 180 -173 365 -351 509 -489 69 -67 175 -168 235 -226 61 -58
178 -170 260 -250 191 -183 365 -351 535 -514 74 -71 191 -184 260 -250 760
-732 924 -888 1025 -979 110 -100 348 -229 536 -290 204 -67 305 -82 564 -82
250 0 341 12 520 71 146 47 390 166 403 197 2 4 9 7 14 7 11 0 99 63 153 109
315 273 503 613 550 998 53 427 -42 799 -294 1142 -59 81 -196 221 -530 541
-118 113 -242 232 -276 265 -80 78 -279 270 -545 525 -117 113 -241 232 -275
265 -33 33 -159 155 -279 270 -120 116 -244 235 -275 265 -31 30 -160 154
-286 275 -126 121 -247 238 -270 260 -71 70 -313 302 -550 530 -126 121 -247
238 -270 260 -98 96 -338 326 -550 530 -126 121 -247 238 -270 260 -113 110
-342 331 -529 510 -115 110 -236 227 -271 260 -34 33 -125 121 -201 195 -77
74 -234 225 -349 335 -115 110 -236 227 -270 260 -78 77 -274 265 -545 525
-117 113 -239 230 -270 260 -46 44 -266 255 -435 415 -17 17 -77 73 -131 125
-130 123 -438 416 -479 455 -17 17 -76 73 -131 125 -55 52 -171 162 -257 244
l-157 149 63 60 c217 209 489 470 537 517 31 30 146 141 255 245 180 171 389
373 500 480 22 22 137 132 255 245 231 221 449 431 515 495 22 22 137 132 255
245 218 209 441 423 515 495 22 22 137 132 255 245 336 323 471 452 515 495
23 22 137 132 255 245 117 113 272 261 344 330 71 69 155 150 186 180 31 30
146 141 255 245 110 105 218 208 240 230 23 22 137 132 255 245 231 221 449
431 515 495 22 22 137 132 255 245 218 209 441 423 515 495 22 22 137 132 255
245 376 361 473 454 516 495 22 22 137 132 254 245 118 113 232 223 255 245
23 22 140 134 261 250 271 259 331 320 407 415 147 183 239 373 300 615 27
104 29 125 34 315 7 263 -19 406 -110 615 -60 139 -175 341 -235 415 -58 72
-132 149 -168 178 -22 17 -52 41 -65 52 -39 32 -42 34 -94 70 -27 19 -52 38
-55 41 -3 3 -21 14 -40 25 -19 10 -37 21 -40 25 -3 3 -46 26 -96 52 -228 117
-457 166 -770 167 -94 0 -173 -2 -175 -4z"/>
</g>
</svg>
