<svg width="14" height="9" viewBox="0 0 14 9" fill="none" xmlns="http://www.w3.org/2000/svg">
<path opacity="0.9" d="M12.2316 0.939505C12.4316 0.742373 12.6947 0.632855 12.9684 0.643806C13.2421 0.643806 13.4947 0.753325 13.6947 0.961408C13.8842 1.15854 14 1.43233 14 1.71708C14 2.00183 13.9053 2.27562 13.7158 2.4837L7.75789 8.6824C7.66316 8.78096 7.54737 8.85763 7.42105 8.91239C7.29474 8.96714 7.15789 9 7.02105 9C6.88421 9 6.74737 8.96714 6.61053 8.91239C6.48421 8.85763 6.36842 8.78096 6.27368 8.6824L0.315789 2.4837C0.221053 2.38514 0.136842 2.26467 0.0842105 2.13325C0.0315789 1.99087 0 1.8485 0 1.70613C0 1.56375 0.0210526 1.41043 0.0736842 1.27901C0.126316 1.14759 0.210526 1.02712 0.305263 0.917601C0.4 0.819035 0.526316 0.742373 0.652632 0.687613C0.778947 0.621903 0.915789 0.6 1.06316 0.6C1.2 0.6 1.33684 0.632854 1.46316 0.687613C1.58947 0.742373 1.70526 0.829987 1.81053 0.939505L7.02105 6.36063L8 5.33116L12.2316 0.939505Z" fill="#71B83E"/>
</svg>
