<svg width="29" height="40" viewBox="0 0 29 40" fill="none" xmlns="http://www.w3.org/2000/svg">
<path d="M20.9102 8.01818C20.9684 8.27273 21.0302 8.55273 21.0957 8.85818C21.1684 9.16364 21.2302 9.48727 21.2812 9.82909C21.3393 10.1636 21.3866 10.5127 21.423 10.8764C21.4593 11.2327 21.4775 11.5927 21.4775 11.9564C21.4775 12.4945 21.4121 13.0073 21.2812 13.4945C21.1502 13.9818 20.943 14.4109 20.6593 14.7818C20.383 15.1527 20.0266 15.4473 19.5902 15.6655C19.1539 15.8836 18.6302 15.9927 18.0193 15.9927C17.8012 15.9927 17.5648 15.9709 17.3102 15.9273C17.063 15.8836 16.8121 15.8109 16.5575 15.7091C16.303 15.6 16.0484 15.4582 15.7939 15.2836C15.5466 15.1018 15.3102 14.8727 15.0848 14.5964C14.743 15.0182 14.3721 15.3309 13.9721 15.5345C13.5793 15.7382 13.1975 15.8836 12.8266 15.9709H12.8375C12.7284 16 12.6084 16.0218 12.4775 16.0364C12.3466 16.0436 12.2157 16.0473 12.0848 16.0473C11.9248 16.0473 11.7575 16.0364 11.583 16.0145C11.4084 15.9855 11.2448 15.9455 11.0921 15.8945C11.1866 17.0145 11.2412 18.0727 11.2557 19.0691C11.2775 20.0582 11.2884 20.96 11.2884 21.7745V24.1527H8.58297V21.9927C8.58297 21.1345 8.57206 20.1709 8.55024 19.1018C8.5357 18.0327 8.47388 16.92 8.36479 15.7636C8.26297 14.6 8.10297 13.4291 7.88479 12.2509C7.67388 11.0655 7.37206 9.93091 6.97933 8.84727L9.54297 7.99636C9.6157 8.24364 9.68479 8.46909 9.75024 8.67273C9.8157 8.87636 9.87751 9.08364 9.9357 9.29455C9.99388 9.50545 10.0521 9.72727 10.1102 9.96C10.1757 10.1927 10.2448 10.4618 10.3175 10.7673C10.3902 11.0436 10.4884 11.3345 10.6121 11.64C10.7357 11.9382 10.8775 12.2109 11.0375 12.4582C11.2048 12.7055 11.3902 12.9091 11.5939 13.0691C11.8048 13.2291 12.0339 13.3091 12.2812 13.3091C12.4484 13.28 12.6048 13.2109 12.7502 13.1018C12.8957 12.9927 13.023 12.8255 13.1321 12.6C13.2412 12.3745 13.3248 12.0873 13.383 11.7382C13.4484 11.3891 13.4812 10.96 13.4812 10.4509C13.4812 10.2909 13.4812 10.1491 13.4812 10.0255C13.4812 9.89455 13.4775 9.76364 13.4702 9.63273C13.4702 9.49454 13.463 9.34182 13.4484 9.17455C13.4339 9.00727 13.4157 8.8 13.3939 8.55273L16.0775 8.31273C16.1648 9.2 16.2521 9.96 16.3393 10.5927C16.4266 11.2182 16.5321 11.7309 16.6557 12.1309C16.7793 12.5236 16.9357 12.8109 17.1248 12.9927C17.3212 13.1745 17.5684 13.2655 17.8666 13.2655C18.1066 13.2655 18.3175 13.1564 18.4993 12.9382C18.6812 12.72 18.7721 12.4145 18.7721 12.0218C18.7721 11.7309 18.7539 11.4291 18.7175 11.1164C18.6812 10.8036 18.6375 10.5018 18.5866 10.2109C18.5357 9.92 18.4812 9.65091 18.423 9.40364C18.3648 9.15636 18.3102 8.95273 18.2593 8.79273L20.9102 8.01818Z" fill="white"/>
<path d="M13.8587 14.3232L13.7806 14.2099C13.7568 14.1753 13.7385 14.1478 13.7244 14.1266C13.719 14.1185 13.7142 14.1113 13.71 14.105C13.6939 14.0811 13.686 14.0706 13.6783 14.0622L13.752 13.9946M13.8587 14.3232L8.71455 9.87117C9.04512 9.56878 9.52484 9.58176 9.85998 9.92749L9.85998 9.9275C10.1094 10.1848 10.3509 10.4491 10.5935 10.7146C10.6937 10.8242 10.7941 10.9341 10.8953 11.0437C11.8236 12.0495 12.7513 13.0559 13.6785 14.0624L13.752 13.9946M13.8587 14.3232L13.9424 14.2139M13.8587 14.3232L13.9424 14.2139M13.752 13.9946C13.768 14.012 13.7814 14.0318 13.8039 14.0655L8.64702 9.79741C9.0193 9.45685 9.56068 9.47505 9.93178 9.85789C10.1823 10.1163 10.4254 10.3823 10.6684 10.6483C10.7684 10.7577 10.8683 10.8671 10.9687 10.9759C11.8971 11.9817 12.8248 12.9882 13.752 13.9946ZM13.9424 14.2139C13.9763 14.1696 14.0052 14.1294 14.03 14.0948C14.0396 14.0815 14.0486 14.069 14.0571 14.0574C14.0884 14.0144 14.1133 13.9826 14.1404 13.9555C15.7792 12.3227 17.4185 10.6903 19.058 9.05779C20.9323 7.19142 22.8066 5.32498 24.6802 3.45797C24.9281 3.21123 25.1765 3.068 25.509 3.13017C26.1067 3.24218 26.3691 3.92967 25.9964 4.40783L25.9963 4.40792C25.9479 4.47015 25.8916 4.52638 25.8301 4.58772C25.8245 4.59333 25.8188 4.59899 25.8131 4.6047C22.0499 8.35147 18.2867 12.0982 14.5229 15.845L14.5229 15.845M13.9424 14.2139L14.5229 15.845M14.5229 15.845C14.2609 16.1059 14.0251 16.2175 13.8053 16.212M14.5229 15.845L13.8053 16.212M8.72591 11.0673C9.86779 12.3082 11.0118 13.5473 12.1558 14.7863C12.4707 15.1273 12.7855 15.4682 13.1003 15.8093L8.72591 11.0673ZM8.72591 11.0673C8.36767 10.6778 8.37915 10.1783 8.71452 9.8712L8.72591 11.0673ZM13.8053 16.212C13.5854 16.2066 13.3532 16.0832 13.1003 15.8093L13.8053 16.212Z" fill="white" stroke="white" stroke-width="0.2"/>
<path d="M2.92945 9.9492L2.92944 9.94926C2.87333 10.2524 2.83629 10.5567 2.79883 10.8647C2.78125 11.0091 2.76358 11.1544 2.7438 11.3007V11.3022V11.3049V11.3077V11.3104V11.3132V11.3159V11.3187V11.3214V11.3241V11.3269V11.3296V11.3324V11.3351V11.3379V11.3406V11.3434V11.3461V11.3489V11.3516V11.3544V11.3571V11.3599V11.3626V11.3654V11.3681V11.3709V11.3736V11.3764V11.3791V11.3819V11.3846V11.3874V11.3901V11.3929V11.3956V11.3984V11.4011V11.4039V11.4066V11.4094V11.4121V11.4149V11.4176V11.4204V11.4231V11.4258V11.4286V11.4313V11.4341V11.4368V11.4396V11.4423V11.4451V11.4478V11.4506V11.4533V11.4561V11.4588V11.4616V11.4643V11.4671V11.4698V11.4726V11.4753V11.4781V11.4808V11.4836V11.4863V11.4891V11.4918V11.4946V11.4973V11.5001V11.5028V11.5055V11.5083V11.511V11.5138V11.5165V11.5193V11.522V11.5248V11.5275V11.5303V11.533V11.5358V11.5385V11.5413V11.544V11.5468V11.5495V11.5523V11.555V11.5578V11.5605V11.5633V11.566V11.5688V11.5715V11.5742V11.577V11.5797V11.5825V11.5852V11.588V11.5907V11.5935V11.5962V11.599V11.6017V11.6045V11.6072V11.61V11.6127V11.6155V11.6182V11.621V11.6237V11.6265V11.6292V11.632V11.6347V11.6374V11.6402V11.6429V11.6457V11.6484V11.6512V11.6539V11.6567V11.6594V11.6622V11.6649V11.6677V11.6704V11.6732V11.6759V11.6787V11.6814V11.6842V11.6869V11.6897V11.6924V11.6951V11.6979V11.7006V11.7034V11.7061V11.7089V11.7116V11.7144V11.7171V11.7199V11.7226V11.7254V11.7281V11.7309V11.7336V11.7364V11.7391V11.7419V11.7446V11.7474V11.7501V11.7528V11.7556V11.7583V11.7611V11.7638V11.7666V11.7693V11.7721V11.7748V11.7776V11.7803V11.7831V11.7858V11.7886V11.7913V11.7941V11.7968V11.7996V11.8023V11.805V11.8078V11.8105V11.8133V11.816V11.8188V11.8215V11.8243V11.827V11.8298V11.8325V11.8353V11.838V11.8408V11.8435V11.8463V11.849V11.8518V11.8545V11.8572V11.86V11.8627V11.8655V11.8682V11.871V11.8737V11.8765V11.8792V11.882V11.8847V11.8875V11.8902V11.893V11.8957V11.8985V11.9012V11.904V11.9067V11.9094V11.9122V11.9149V11.9177V11.9204V11.9232V11.9259V11.9287V11.9314V11.9342V11.9369V11.9397V11.9424V11.9452V11.9479V11.9507V11.9534V11.9562V11.9589V11.9616V11.9644V11.9671V11.9699V11.9726V11.9754V11.9781V11.9809V11.9836V11.9864V11.9891V11.9919V11.9946V11.9974V12.0001V12.0029V12.0056V12.0083V12.0111V12.0138V12.0166V12.0193V12.0221V12.0248V12.0276V12.0303V12.0331V12.0358V12.0386V12.0413V12.0441V12.0468V12.0496V12.0523V12.0551V12.0578V12.0605V12.0633V12.066V12.0688V12.0715V12.0743V12.077V12.0798V12.0825V12.0853V12.088V12.0908V12.0935V12.0963V12.099V12.1018V12.1045V12.1073V12.11V12.1127V12.1155V12.1182V12.121V12.1237V12.1265V12.1292V12.132V12.1347V12.1375V12.1402V12.143V12.1457V12.1485V12.1512V12.154V12.1567V12.1594V12.1622V12.1649V12.1677V12.1704V12.1732V12.1759V12.1787V12.1814V12.1842V12.1869V12.1897V12.1924V12.1952V12.1979V12.2007V12.2034V12.2062V12.2089V12.2116V12.2144V12.2171V12.2199V12.2226V12.2254V12.2281V12.2309V12.2336V12.2364V12.2391V12.2419V12.2446V12.2474V12.2501V12.2529V12.2556V12.2584V12.2611V12.2639V12.2666V12.2693V12.2721V12.2748V12.2776V12.2803V12.2831V12.2858V12.2886V12.2913V12.2941V12.2968V12.2996V12.3023V12.3051V12.3078V12.3106V12.3133V12.3161V12.3188V12.3216V12.3243V12.327V12.3298V12.3325V12.3353V12.338V12.3408V12.3435V12.3463V12.349V12.3518V12.3545V12.3573V12.36V12.3628V12.3655V12.3683V12.371V12.3738V12.3765V12.3793V12.382V12.3847V12.3875V12.3902V12.393V12.3957V12.3985V12.4012V12.404V12.4067V12.4095V12.4122V12.415V12.4177V12.4205V12.4232V12.426V12.4287V12.4315V12.4342V12.437V12.4397V12.4425V12.4452V12.4479V12.4507V12.4534V12.4562V12.4589V12.4617V12.4644V12.4672V12.4699V12.4727V12.4754V12.4782V12.4809V12.4837V12.4864V12.4892V12.4919V12.4947V12.4974V12.5002V12.5029V12.5057V12.5084V12.5112V12.5139V12.5167V12.5194V12.5221V12.5249V12.5276V12.5304V12.5331V12.5359V12.5386V12.5414V12.5441V12.5469V12.5496V12.5524V12.5551V12.5579V12.5606V12.5634V12.5661V12.5689V12.5716V12.5744V12.5771V12.5799V12.5826V12.5854V12.5881V12.5909V12.5936V12.5964V12.5991V12.6019V12.6046V12.6073V12.6101V12.6128V12.6156V12.6183V12.6211V12.6238V12.6266V12.6293V12.6321V12.6348V12.6376V12.6403V12.6431V12.6458V12.6486V12.6513V12.6541V12.6568V12.6596V12.6623V12.6651V12.6678V12.6706V12.6733V12.6761V12.6788V12.6816V12.6843V12.6871V12.6898V12.6926V12.6941C2.76367 12.8408 2.78129 12.9865 2.7988 13.1314C2.83593 13.4385 2.87261 13.742 2.92939 14.044L2.9294 14.0441C3.59703 17.61 5.49716 20.3328 8.5878 22.2242C10.1787 23.1977 11.9228 23.7299 13.7891 23.8615L13.7898 23.8615C13.8285 23.8645 13.865 23.8724 13.8969 23.8802C13.9115 23.8838 13.924 23.8871 13.9357 23.8901C13.9491 23.8936 13.9615 23.8968 13.9749 23.9H13.9773H13.98H13.9828H13.9856H13.9883H13.9911H13.9938H13.9966H13.9993H14.0021H14.0048H14.0076H14.0103H14.0131H14.0158H14.0186H14.0213H14.0241H14.0268H14.0296H14.0323H14.0351H14.0378H14.0406H14.0434H14.0461H14.0489H14.0516H14.0544H14.0571H14.0599H14.0626H14.0654H14.0681H14.0709H14.0736H14.0764H14.0791H14.0819H14.0846H14.0874H14.0901H14.0929H14.0956H14.0984H14.1012H14.1039H14.1067H14.1094H14.1122H14.1149H14.1177H14.1204H14.1232H14.1259H14.1287H14.1314H14.1342H14.1369H14.1397H14.1424H14.1452H14.1479H14.1507H14.1535H14.1562H14.159H14.1617H14.1645H14.1672H14.17H14.1727H14.1755H14.1782H14.181H14.1837H14.1865H14.1892H14.192H14.1947H14.1975H14.2002H14.203H14.2057H14.2085H14.2113H14.214H14.2168H14.2195H14.2223H14.225H14.2278H14.2305H14.2333H14.236H14.2388H14.2415H14.2443H14.247H14.2498H14.2525H14.2553H14.258H14.2608H14.2635H14.2663H14.2691H14.2718H14.2746H14.2773H14.2801H14.2828H14.2856H14.2883H14.2911H14.2938H14.2966H14.2993H14.3021H14.3048H14.3076H14.3103H14.3131H14.3158H14.3186H14.3213H14.3241H14.3269H14.3296H14.3324H14.3351H14.3379H14.3406H14.3434H14.3461H14.3489H14.3516H14.3544H14.3571H14.3599H14.3626H14.3654H14.3681H14.3709H14.3736H14.3764H14.3791H14.3819H14.3847H14.3874H14.3902H14.3929H14.3957H14.3984H14.4012H14.4039H14.4067H14.4094H14.4122H14.4149H14.4177H14.4204H14.4232H14.4259H14.4287H14.4314H14.4342H14.4369H14.4397H14.4425H14.4452H14.448H14.4507H14.4535H14.4562H14.459H14.4617H14.4645H14.4672H14.47H14.4727H14.4755H14.4782H14.481H14.4837H14.4865H14.4892H14.492H14.4948H14.4975H14.5003H14.503H14.5058H14.5085H14.5113H14.514H14.5168H14.5195H14.5223H14.525H14.5278H14.5305H14.5333H14.536H14.5388H14.5415H14.5443H14.547H14.5498H14.5526H14.5553H14.5581H14.5608H14.5636H14.5663H14.5691H14.5718H14.5746H14.5773H14.5801H14.5828H14.5856H14.5883H14.5911H14.5938H14.5966H14.5993H14.6021H14.6048H14.6076H14.6104H14.6131H14.6159H14.6186H14.6214H14.6241H14.6269H14.6296H14.6324H14.6351H14.6379H14.6406H14.6434H14.6461H14.6489H14.6516H14.6544H14.6571H14.6599H14.6626H14.6654H14.6682H14.6709H14.6737H14.6764H14.6792H14.6819H14.6847H14.6874H14.6902H14.6929H14.6957H14.6984H14.7012H14.7039H14.7067H14.7094H14.7122H14.7149H14.7177H14.7205H14.7232H14.726H14.7287H14.7315H14.7342H14.737H14.7397H14.7425H14.7452H14.748H14.7507H14.7535H14.7562H14.759H14.7617H14.7645H14.7672H14.77H14.7727H14.7755H14.7783H14.781H14.7838H14.7865H14.7893H14.792H14.7948H14.7975H14.8003H14.803H14.8058H14.8085H14.8113H14.814H14.8168H14.8195H14.8223H14.825H14.8278H14.8305H14.8333H14.8361H14.8388H14.8416H14.8443H14.8471H14.8498H14.8526H14.8553H14.8581H14.8608H14.8636H14.8663H14.8691H14.8718H14.8746H14.8773H14.8801H14.8828H14.8856H14.8883H14.8911H14.8939H14.8966H14.8994H14.9021H14.9049H14.9076H14.9104H14.9131H14.9159H14.9186H14.9214H14.9241H14.9269H14.9296H14.9324H14.9351H14.9379H14.9406H14.9434H14.9461H14.9489H14.9517H14.9544H14.9572H14.9599H14.9627H14.9654H14.9682H14.9709H14.9737H14.9764H14.9792H14.9819H14.9847H14.9874H14.9902H14.9929H14.9957H14.9984H15.0012H15.004H15.0067H15.0095H15.0122H15.015H15.0177H15.0205H15.0232H15.026H15.0287H15.0315H15.0342H15.037H15.0397H15.0425H15.0452H15.048H15.0507H15.0535H15.0562H15.059H15.0618H15.0645H15.0673H15.07H15.0728H15.0755H15.0783H15.081H15.0838H15.0865H15.0893H15.092H15.0948H15.0975H15.1003H15.103H15.1058H15.1085H15.1113H15.114H15.1168H15.1196H15.1223H15.1251H15.1278H15.1306H15.1333H15.1361H15.1388H15.1416H15.1443H15.1471H15.1498H15.1526H15.1553H15.1581H15.1608H15.1636H15.1663H15.1691H15.1718H15.1746H15.1774H15.1801H15.1829H15.1856H15.1884H15.1911H15.1939H15.1966H15.1994H15.2021H15.2049H15.2076H15.2104H15.2131H15.2159H15.2186H15.2214H15.2241H15.2269H15.2296H15.2324H15.2352H15.2379H15.2407H15.2434H15.2462H15.2489H15.2517H15.2544H15.2572H15.2599H15.2627H15.2654H15.2682H15.2709H15.2737H15.2764H15.2792H15.2819H15.2847H15.2874H15.2902H15.293H15.2957H15.2985H15.3012H15.304H15.3067H15.3095H15.3122H15.315H15.3177H15.3205H15.3232H15.326H15.3287H15.3315H15.3342H15.337H15.3397H15.3425H15.3453H15.348H15.3508H15.3535H15.3563H15.359H15.3618H15.3645H15.3661C15.5126 23.8803 15.6581 23.8623 15.8029 23.8444C16.1117 23.8063 16.4173 23.7686 16.7224 23.7148M2.92945 9.9492L16.7397 23.8133M2.92945 9.9492C3.54576 6.6096 5.27717 3.99327 8.0833 2.08678L8.0833 2.08677C9.70271 0.986412 11.5071 0.365593 13.4551 0.156976L13.4552 0.156971C13.8544 0.114034 14.2586 0.100586 14.6636 0.100001M2.92945 9.9492L14.6636 0.100001M16.7224 23.7148L16.7397 23.8133M16.7224 23.7148C16.7224 23.7148 16.7223 23.7148 16.7223 23.7148L16.7397 23.8133M16.7224 23.7148C19.4307 23.236 21.7048 21.9671 23.542 19.9325L23.6163 19.9995C21.7643 22.0505 19.4701 23.3306 16.7397 23.8133M26.5373 13.1959L26.6367 13.207L26.5373 13.1959C26.5373 13.1959 26.5373 13.1959 26.5373 13.1959ZM26.5373 13.1959C26.5559 13.0285 26.5751 12.8617 26.5943 12.6951V12.6938V12.6921V12.6904V12.6886V12.6869V12.6851V12.6834V12.6817V12.6799V12.6782V12.6764V12.6747V12.673V12.6712V12.6695V12.6677V12.666V12.6642V12.6625V12.6608V12.659V12.6573V12.6555V12.6538V12.6521V12.6503V12.6486V12.6468V12.6451V12.6434V12.6416V12.6399V12.6381V12.6364V12.6347V12.6329V12.6312V12.6294V12.6277V12.626V12.6242V12.6225V12.6207V12.619V12.6173V12.6155V12.6138V12.612V12.6103V12.6086V12.6068V12.6051V12.6033V12.6016V12.5999V12.5981V12.5964V12.5946V12.5929V12.5912V12.5894V12.5877V12.5859V12.5842V12.5825V12.5807V12.579V12.5772V12.5755V12.5738V12.572V12.5703V12.5685V12.5668V12.5651V12.5633V12.5616V12.5598V12.5581V12.5564V12.5546V12.5529V12.5511V12.5494V12.5477V12.5459V12.5442V12.5424V12.5407V12.539V12.5372V12.5355V12.5337V12.532V12.5303V12.5285V12.5268V12.525V12.5233V12.5216V12.5198V12.5181V12.5163V12.5146V12.5129V12.5111V12.5094V12.5076V12.5059V12.5042V12.5024V12.5007V12.4989V12.4972V12.4955V12.4937V12.492V12.4902V12.4885V12.4868V12.485V12.4833V12.4815V12.4798V12.4781V12.4763V12.4746V12.4728V12.4711V12.4694V12.4676V12.4659V12.4641V12.4624V12.4607V12.4589V12.4572V12.4554V12.4537V12.452V12.4502V12.4485V12.4467V12.445V12.4433V12.4415V12.4398V12.4381V12.4363V12.4346V12.4328V12.4311V12.4294V12.4276V12.4259V12.4241V12.4224V12.4207V12.4189V12.4172V12.4154V12.4137V12.412V12.4102V12.4085V12.4067V12.405V12.4033V12.4015V12.3998V12.398V12.3963V12.3946V12.3928V12.3911V12.3893V12.3876V12.3859V12.3841V12.3824V12.3807V12.3789V12.3772V12.3754V12.3737V12.372V12.3702V12.3685V12.3667V12.365V12.3633V12.3615V12.3598V12.358V12.3563V12.3546V12.3528V12.3511V12.3493V12.3476V12.3459V12.3441V12.3424V12.3406V12.3389V12.3372V12.3354V12.3337V12.332V12.3302V12.3285V12.3267V12.325V12.3233V12.3215V12.3198V12.318V12.3163V12.3146V12.3128V12.3111V12.3093V12.3076V12.3059V12.3041V12.3024V12.3006V12.2989V12.2972V12.2954V12.2937V12.2919V12.2902V12.2885V12.2867V12.285V12.2833V12.2815V12.2798V12.278V12.2763V12.2746V12.2728V12.2711V12.2693V12.2676V12.2659V12.2641V12.2624V12.2606V12.2589V12.2572V12.2554V12.2537V12.2519V12.2502V12.2485V12.2467V12.245V12.2433V12.2415V12.2398V12.238V12.2363V12.2346V12.2328V12.2311V12.2293V12.2276V12.2259V12.2241V12.2224V12.2206V12.2189V12.2172V12.2154V12.2137V12.2119V12.2102V12.2085V12.2067V12.205V12.2033V12.2015V12.1998V12.198V12.1963V12.1946V12.1928V12.1911V12.1893V12.1876V12.1859V12.1841V12.1824V12.1806V12.1789V12.1772V12.1754V12.1737V12.1719V12.1702V12.1685V12.1667V12.165V12.1632V12.1615V12.1598V12.158V12.1563V12.1546V12.1528V12.1511V12.1493V12.1476V12.1459V12.1441V12.1424V12.1406V12.1389V12.1372V12.1354V12.1337V12.1319V12.1302V12.1285V12.1267V12.125V12.1232V12.1215V12.1198V12.118V12.1163V12.1145V12.1128V12.1111V12.1093V12.1076V12.1059V12.1041V12.1024V12.1006V12.0989V12.0972V12.0954V12.0937V12.0919V12.0902V12.0885V12.0867V12.085V12.0832V12.0815V12.0798V12.078V12.0763V12.0745V12.0728V12.0711V12.0693V12.0676V12.0658V12.0641V12.0624V12.0606V12.0589V12.0571V12.0554V12.0537V12.0519V12.0502V12.0484V12.0467V12.045V12.0432V12.0415V12.0398V12.038V12.0363V12.0345V12.0328V12.0311V12.0293V12.0276V12.0258V12.0241V12.0224V12.0206V12.0189V12.0171V12.0154V12.0137V12.0119V12.0102V12.0084V12.0067V12.005V12.0032V12.0015V11.9997V11.998V11.9963V11.9945V11.9928V11.991V11.9893V11.9876V11.9858V11.9841V11.9823V11.9806V11.9789V11.9771V11.9754V11.9736V11.9719V11.9702V11.9684V11.9667V11.9649V11.9632V11.9615V11.9597V11.958V11.9562V11.9545V11.9528V11.951V11.9493V11.9475V11.9458V11.9441V11.9423V11.9406V11.9388V11.9371V11.9354V11.9336V11.9319V11.9301V11.9284V11.9267V11.9249V11.9232V11.9214V11.9197V11.918V11.9162V11.9145V11.9127V11.911V11.9093V11.9075V11.9058V11.904V11.9023V11.9006V11.8988V11.8971V11.8953V11.8936V11.8919V11.8901V11.8884V11.8866V11.8849V11.8832V11.8814V11.8797V11.8779V11.8762V11.8745V11.8727V11.871V11.8692V11.8675V11.8657V11.864V11.8623V11.8605V11.8588V11.857V11.8553V11.8536V11.8518V11.8501V11.8483V11.8466V11.8449V11.8431V11.8414V11.8396V11.8379V11.8362V11.8347M26.5373 13.1959L26.5943 11.8347M14.6636 0.100001C14.6636 0.100001 14.6636 0.100001 14.6636 0.100001C14.6636 0.100001 14.6636 0.100001 14.6636 0.100001ZM24.631 14.6046L24.631 14.6046C24.1214 16.6448 23.0383 18.3553 21.4486 19.7305L21.3832 19.6548L21.4486 19.7305C19.0235 21.8278 16.1967 22.6294 13.0385 22.153L13.0534 22.0541L13.0385 22.1529C10.6421 21.7912 8.61455 20.6767 7.01084 18.8578L7.08585 18.7917L24.631 14.6046ZM24.631 14.6046C24.7603 14.0868 24.8228 13.5486 24.8843 13.0182C24.9103 12.7947 24.936 12.5727 24.9666 12.3541C24.9771 12.2785 24.9794 12.2028 24.9814 12.1331L24.9815 12.1288C24.9835 12.0589 24.9853 11.9949 24.9932 11.9324L24.9932 11.9321M24.631 14.6046L24.9932 11.9321M24.9932 11.9321C25.0439 11.5226 25.3188 11.2444 25.6793 11.2048M24.9932 11.9321L25.6793 11.2048M25.6793 11.2048C26.078 11.1612 26.4012 11.3598 26.5504 11.7443M25.6793 11.2048L26.5504 11.7443M26.5504 11.7443C26.5619 11.7742 26.5797 11.8075 26.5929 11.8321C26.5934 11.833 26.5938 11.8338 26.5943 11.8347M26.5504 11.7443L26.5943 11.8347" fill="#7B7B7B" stroke="white" stroke-width="0.2"/>
<path d="M13.8589 14.3232L13.7808 14.2099C13.7557 14.1735 13.7369 14.1451 13.7225 14.1234C13.7179 14.1164 13.7137 14.1101 13.71 14.1045C13.6938 14.0803 13.6862 14.07 13.679 14.0622L13.7527 13.9946M13.8589 14.3232L13.0275 15.8771C12.8399 15.6739 12.6523 15.4707 12.4647 15.2674C11.1937 13.8905 9.92245 12.5134 8.65301 11.135C8.26312 10.7111 8.26489 10.1474 8.64773 9.79741C9.02001 9.45743 9.56139 9.47564 9.93249 9.85789C10.1828 10.1156 10.4251 10.381 10.6674 10.6463C10.7679 10.7564 10.8684 10.8664 10.9695 10.9759M13.8589 14.3232L13.9425 14.2139C13.9758 14.1704 14.0044 14.1308 14.0291 14.0966C14.0391 14.0826 14.0485 14.0696 14.0573 14.0576C14.0888 14.0146 14.1139 13.9827 14.1411 13.9555C15.5462 12.5558 16.9517 11.1563 18.3571 9.75685C20.4654 7.65747 22.5737 5.55812 24.6809 3.45796C24.9288 3.2112 25.1766 3.06798 25.5097 3.13019L25.5098 3.13019C26.1072 3.24161 26.3694 3.92954 25.997 4.40789L26.0759 4.46931L25.9972 4.40761C25.9473 4.47132 25.8888 4.52977 25.8255 4.59297L25.814 4.60455L13.8589 14.3232ZM13.7527 13.9946L13.6791 14.0623C12.9438 13.2637 12.2078 12.4658 11.4719 11.668C11.2799 11.4599 11.0879 11.2518 10.896 11.0437C10.896 11.0437 10.896 11.0437 10.8959 11.0437L10.9695 10.9759M13.7527 13.9946C13.7683 14.0117 13.7816 14.0315 13.8041 14.0654L10.9695 10.9759M13.7527 13.9946C13.0174 13.1959 12.2813 12.398 11.5453 11.6002C11.3533 11.3921 11.1614 11.184 10.9695 10.9759M13.101 15.8093C12.9133 15.6059 12.7255 15.4025 12.5377 15.1991C11.2668 13.8223 9.99581 12.4455 8.72657 11.0673C8.3683 10.6777 8.37938 10.1782 8.71517 9.87125L13.101 15.8093ZM13.806 16.212C13.5861 16.2066 13.354 16.0832 13.101 15.8093L25.8138 4.6047C22.0506 8.35205 18.2874 12.0988 14.5236 15.845L14.5236 15.845C14.2616 16.1059 14.0258 16.2175 13.806 16.212Z" fill="#7B7B7B" stroke="white" stroke-width="0.2"/>
</svg>
