<svg width="14" height="11" viewBox="0 0 14 11" fill="none" xmlns="http://www.w3.org/2000/svg">
<path d="M13.1715 2.50229L13.1712 2.50267L6.06126 9.65131C5.82653 9.87363 5.52131 10 5.21749 10C4.90987 10 4.60796 9.87099 4.39348 9.6558L0.82845 6.07905C0.622123 5.87204 0.5 5.57201 0.5 5.25C0.5 4.95026 0.621557 4.65931 0.843831 4.42116C1.0703 4.20873 1.35893 4.08972 1.67633 4.07678C1.98368 4.0789 2.26901 4.19482 2.49641 4.41027L4.86335 6.78499L5.21749 7.14029L5.57162 6.78499L11.5036 0.833515C11.731 0.618069 12.0163 0.502145 12.3237 0.50003C12.6439 0.51308 12.9313 0.633827 13.1562 0.859551C13.3743 1.07836 13.5 1.36798 13.5 1.67325C13.5 1.99525 13.3779 2.29529 13.1715 2.50229Z" fill="#7B7B7B" stroke="#F5F5F5"/>
</svg>
