<svg width="29" height="40" viewBox="0 0 29 40" fill="none" xmlns="http://www.w3.org/2000/svg">
<path d="M20.9102 8.01818C20.9684 8.27273 21.0302 8.55273 21.0957 8.85818C21.1684 9.16364 21.2302 9.48727 21.2812 9.82909C21.3393 10.1636 21.3866 10.5127 21.423 10.8764C21.4593 11.2327 21.4775 11.5927 21.4775 11.9564C21.4775 12.4945 21.4121 13.0073 21.2812 13.4945C21.1502 13.9818 20.943 14.4109 20.6593 14.7818C20.383 15.1527 20.0266 15.4473 19.5902 15.6655C19.1539 15.8836 18.6302 15.9927 18.0193 15.9927C17.8012 15.9927 17.5648 15.9709 17.3102 15.9273C17.063 15.8836 16.8121 15.8109 16.5575 15.7091C16.303 15.6 16.0484 15.4582 15.7939 15.2836C15.5466 15.1018 15.3102 14.8727 15.0848 14.5964C14.743 15.0182 14.3721 15.3309 13.9721 15.5345C13.5793 15.7382 13.1975 15.8836 12.8266 15.9709H12.8375C12.7284 16 12.6084 16.0218 12.4775 16.0364C12.3466 16.0436 12.2157 16.0473 12.0848 16.0473C11.9248 16.0473 11.7575 16.0364 11.583 16.0145C11.4084 15.9855 11.2448 15.9455 11.0921 15.8945C11.1866 17.0145 11.2412 18.0727 11.2557 19.0691C11.2775 20.0582 11.2884 20.96 11.2884 21.7745V24.1527H8.58297V21.9927C8.58297 21.1345 8.57206 20.1709 8.55024 19.1018C8.5357 18.0327 8.47388 16.92 8.36479 15.7636C8.26297 14.6 8.10297 13.4291 7.88479 12.2509C7.67388 11.0655 7.37206 9.93091 6.97933 8.84727L9.54297 7.99636C9.6157 8.24364 9.68479 8.46909 9.75024 8.67273C9.8157 8.87636 9.87751 9.08364 9.9357 9.29455C9.99388 9.50545 10.0521 9.72727 10.1102 9.96C10.1757 10.1927 10.2448 10.4618 10.3175 10.7673C10.3902 11.0436 10.4884 11.3345 10.6121 11.64C10.7357 11.9382 10.8775 12.2109 11.0375 12.4582C11.2048 12.7055 11.3902 12.9091 11.5939 13.0691C11.8048 13.2291 12.0339 13.3091 12.2812 13.3091C12.4484 13.28 12.6048 13.2109 12.7502 13.1018C12.8957 12.9927 13.023 12.8255 13.1321 12.6C13.2412 12.3745 13.3248 12.0873 13.383 11.7382C13.4484 11.3891 13.4812 10.96 13.4812 10.4509C13.4812 10.2909 13.4812 10.1491 13.4812 10.0255C13.4812 9.89455 13.4775 9.76364 13.4702 9.63273C13.4702 9.49454 13.463 9.34182 13.4484 9.17455C13.4339 9.00727 13.4157 8.8 13.3939 8.55273L16.0775 8.31273C16.1648 9.2 16.2521 9.96 16.3393 10.5927C16.4266 11.2182 16.5321 11.7309 16.6557 12.1309C16.7793 12.5236 16.9357 12.8109 17.1248 12.9927C17.3212 13.1745 17.5684 13.2655 17.8666 13.2655C18.1066 13.2655 18.3175 13.1564 18.4993 12.9382C18.6812 12.72 18.7721 12.4145 18.7721 12.0218C18.7721 11.7309 18.7539 11.4291 18.7175 11.1164C18.6812 10.8036 18.6375 10.5018 18.5866 10.2109C18.5357 9.92 18.4812 9.65091 18.423 9.40364C18.3648 9.15636 18.3102 8.95273 18.2593 8.79273L20.9102 8.01818Z" fill="white"/>
<path d="M13.859 14.3232L13.7809 14.2099C13.757 14.1753 13.7387 14.1478 13.7246 14.1266C13.7192 14.1185 13.7145 14.1113 13.7102 14.105C13.6942 14.0811 13.6863 14.0706 13.6786 14.0622L13.7522 13.9946M13.859 14.3232L8.71479 9.87117C9.04537 9.56878 9.52509 9.58176 9.86022 9.92749L9.86022 9.9275C10.1096 10.1848 10.3511 10.4491 10.5938 10.7146C10.6939 10.8242 10.7943 10.9341 10.8955 11.0437C11.8238 12.0495 12.7515 13.0559 13.6787 14.0624L13.7522 13.9946M13.859 14.3232L13.9426 14.2139M13.859 14.3232L13.9426 14.2139M13.7522 13.9946C13.7682 14.012 13.7816 14.0318 13.8041 14.0655L8.64727 9.79741C9.01954 9.45685 9.56092 9.47505 9.93202 9.85789C10.1825 10.1163 10.4256 10.3823 10.6686 10.6483C10.7686 10.7577 10.8685 10.8671 10.969 10.9759C11.8973 11.9817 12.8251 12.9882 13.7522 13.9946ZM13.9426 14.2139C13.9766 14.1696 14.0054 14.1294 14.0303 14.0948C14.0399 14.0815 14.0488 14.069 14.0573 14.0574C14.0886 14.0144 14.1135 13.9826 14.1406 13.9555C15.7794 12.3227 17.4188 10.6903 19.0582 9.05779C20.9325 7.19142 22.8069 5.32498 24.6805 3.45797C24.9283 3.21123 25.1767 3.068 25.5092 3.13017C26.1069 3.24218 26.3693 3.92967 25.9966 4.40783L25.9965 4.40792C25.9481 4.47015 25.8918 4.52638 25.8304 4.58772C25.8247 4.59333 25.8191 4.59899 25.8133 4.6047C22.0501 8.35147 18.2869 12.0982 14.5231 15.845L14.5231 15.845M13.9426 14.2139L14.5231 15.845M14.5231 15.845C14.2611 16.1059 14.0253 16.2175 13.8056 16.212M14.5231 15.845L13.8056 16.212M8.72616 11.0673C9.86804 12.3082 11.0121 13.5473 12.1561 14.7863C12.4709 15.1273 12.7858 15.4682 13.1005 15.8093L8.72616 11.0673ZM8.72616 11.0673C8.36791 10.6778 8.37939 10.1783 8.71476 9.8712L8.72616 11.0673ZM13.8056 16.212C13.5856 16.2066 13.3535 16.0832 13.1006 15.8093L13.8056 16.212Z" fill="white" stroke="white" stroke-width="0.2"/>
<path d="M2.92921 9.9492L2.9292 9.94926C2.87308 10.2524 2.83605 10.5567 2.79858 10.8647C2.78101 11.0091 2.76334 11.1544 2.74355 11.3007V11.3022V11.3049V11.3077V11.3104V11.3132V11.3159V11.3187V11.3214V11.3241V11.3269V11.3296V11.3324V11.3351V11.3379V11.3406V11.3434V11.3461V11.3489V11.3516V11.3544V11.3571V11.3599V11.3626V11.3654V11.3681V11.3709V11.3736V11.3764V11.3791V11.3819V11.3846V11.3874V11.3901V11.3929V11.3956V11.3984V11.4011V11.4039V11.4066V11.4094V11.4121V11.4149V11.4176V11.4204V11.4231V11.4258V11.4286V11.4313V11.4341V11.4368V11.4396V11.4423V11.4451V11.4478V11.4506V11.4533V11.4561V11.4588V11.4616V11.4643V11.4671V11.4698V11.4726V11.4753V11.4781V11.4808V11.4836V11.4863V11.4891V11.4918V11.4946V11.4973V11.5001V11.5028V11.5055V11.5083V11.511V11.5138V11.5165V11.5193V11.522V11.5248V11.5275V11.5303V11.533V11.5358V11.5385V11.5413V11.544V11.5468V11.5495V11.5523V11.555V11.5578V11.5605V11.5633V11.566V11.5688V11.5715V11.5742V11.577V11.5797V11.5825V11.5852V11.588V11.5907V11.5935V11.5962V11.599V11.6017V11.6045V11.6072V11.61V11.6127V11.6155V11.6182V11.621V11.6237V11.6265V11.6292V11.632V11.6347V11.6374V11.6402V11.6429V11.6457V11.6484V11.6512V11.6539V11.6567V11.6594V11.6622V11.6649V11.6677V11.6704V11.6732V11.6759V11.6787V11.6814V11.6842V11.6869V11.6897V11.6924V11.6951V11.6979V11.7006V11.7034V11.7061V11.7089V11.7116V11.7144V11.7171V11.7199V11.7226V11.7254V11.7281V11.7309V11.7336V11.7364V11.7391V11.7419V11.7446V11.7474V11.7501V11.7528V11.7556V11.7583V11.7611V11.7638V11.7666V11.7693V11.7721V11.7748V11.7776V11.7803V11.7831V11.7858V11.7886V11.7913V11.7941V11.7968V11.7996V11.8023V11.805V11.8078V11.8105V11.8133V11.816V11.8188V11.8215V11.8243V11.827V11.8298V11.8325V11.8353V11.838V11.8408V11.8435V11.8463V11.849V11.8518V11.8545V11.8572V11.86V11.8627V11.8655V11.8682V11.871V11.8737V11.8765V11.8792V11.882V11.8847V11.8875V11.8902V11.893V11.8957V11.8985V11.9012V11.904V11.9067V11.9094V11.9122V11.9149V11.9177V11.9204V11.9232V11.9259V11.9287V11.9314V11.9342V11.9369V11.9397V11.9424V11.9452V11.9479V11.9507V11.9534V11.9562V11.9589V11.9616V11.9644V11.9671V11.9699V11.9726V11.9754V11.9781V11.9809V11.9836V11.9864V11.9891V11.9919V11.9946V11.9974V12.0001V12.0029V12.0056V12.0083V12.0111V12.0138V12.0166V12.0193V12.0221V12.0248V12.0276V12.0303V12.0331V12.0358V12.0386V12.0413V12.0441V12.0468V12.0496V12.0523V12.0551V12.0578V12.0605V12.0633V12.066V12.0688V12.0715V12.0743V12.077V12.0798V12.0825V12.0853V12.088V12.0908V12.0935V12.0963V12.099V12.1018V12.1045V12.1073V12.11V12.1127V12.1155V12.1182V12.121V12.1237V12.1265V12.1292V12.132V12.1347V12.1375V12.1402V12.143V12.1457V12.1485V12.1512V12.154V12.1567V12.1594V12.1622V12.1649V12.1677V12.1704V12.1732V12.1759V12.1787V12.1814V12.1842V12.1869V12.1897V12.1924V12.1952V12.1979V12.2007V12.2034V12.2062V12.2089V12.2116V12.2144V12.2171V12.2199V12.2226V12.2254V12.2281V12.2309V12.2336V12.2364V12.2391V12.2419V12.2446V12.2474V12.2501V12.2529V12.2556V12.2584V12.2611V12.2639V12.2666V12.2693V12.2721V12.2748V12.2776V12.2803V12.2831V12.2858V12.2886V12.2913V12.2941V12.2968V12.2996V12.3023V12.3051V12.3078V12.3106V12.3133V12.3161V12.3188V12.3216V12.3243V12.327V12.3298V12.3325V12.3353V12.338V12.3408V12.3435V12.3463V12.349V12.3518V12.3545V12.3573V12.36V12.3628V12.3655V12.3683V12.371V12.3738V12.3765V12.3793V12.382V12.3847V12.3875V12.3902V12.393V12.3957V12.3985V12.4012V12.404V12.4067V12.4095V12.4122V12.415V12.4177V12.4205V12.4232V12.426V12.4287V12.4315V12.4342V12.437V12.4397V12.4425V12.4452V12.4479V12.4507V12.4534V12.4562V12.4589V12.4617V12.4644V12.4672V12.4699V12.4727V12.4754V12.4782V12.4809V12.4837V12.4864V12.4892V12.4919V12.4947V12.4974V12.5002V12.5029V12.5057V12.5084V12.5112V12.5139V12.5167V12.5194V12.5221V12.5249V12.5276V12.5304V12.5331V12.5359V12.5386V12.5414V12.5441V12.5469V12.5496V12.5524V12.5551V12.5579V12.5606V12.5634V12.5661V12.5689V12.5716V12.5744V12.5771V12.5799V12.5826V12.5854V12.5881V12.5909V12.5936V12.5964V12.5991V12.6019V12.6046V12.6073V12.6101V12.6128V12.6156V12.6183V12.6211V12.6238V12.6266V12.6293V12.6321V12.6348V12.6376V12.6403V12.6431V12.6458V12.6486V12.6513V12.6541V12.6568V12.6596V12.6623V12.6651V12.6678V12.6706V12.6733V12.6761V12.6788V12.6816V12.6843V12.6871V12.6898V12.6926V12.6941C2.76343 12.8408 2.78104 12.9865 2.79856 13.1314C2.83568 13.4385 2.87236 13.742 2.92914 14.044L2.92916 14.0441C3.59679 17.61 5.49692 20.3328 8.58755 22.2242C10.1784 23.1977 11.9226 23.7299 13.7889 23.8615L13.7895 23.8615C13.8282 23.8645 13.8647 23.8724 13.8967 23.8802C13.9112 23.8838 13.9237 23.8871 13.9354 23.8901C13.9489 23.8936 13.9613 23.8968 13.9746 23.9H13.9771H13.9798H13.9826H13.9853H13.9881H13.9908H13.9936H13.9963H13.9991H14.0018H14.0046H14.0073H14.0101H14.0128H14.0156H14.0183H14.0211H14.0238H14.0266H14.0293H14.0321H14.0349H14.0376H14.0404H14.0431H14.0459H14.0486H14.0514H14.0541H14.0569H14.0596H14.0624H14.0651H14.0679H14.0706H14.0734H14.0761H14.0789H14.0816H14.0844H14.0871H14.0899H14.0927H14.0954H14.0982H14.1009H14.1037H14.1064H14.1092H14.1119H14.1147H14.1174H14.1202H14.1229H14.1257H14.1284H14.1312H14.1339H14.1367H14.1394H14.1422H14.1449H14.1477H14.1505H14.1532H14.156H14.1587H14.1615H14.1642H14.167H14.1697H14.1725H14.1752H14.178H14.1807H14.1835H14.1862H14.189H14.1917H14.1945H14.1972H14.2H14.2028H14.2055H14.2083H14.211H14.2138H14.2165H14.2193H14.222H14.2248H14.2275H14.2303H14.233H14.2358H14.2385H14.2413H14.244H14.2468H14.2495H14.2523H14.255H14.2578H14.2606H14.2633H14.2661H14.2688H14.2716H14.2743H14.2771H14.2798H14.2826H14.2853H14.2881H14.2908H14.2936H14.2963H14.2991H14.3018H14.3046H14.3073H14.3101H14.3128H14.3156H14.3184H14.3211H14.3239H14.3266H14.3294H14.3321H14.3349H14.3376H14.3404H14.3431H14.3459H14.3486H14.3514H14.3541H14.3569H14.3596H14.3624H14.3651H14.3679H14.3706H14.3734H14.3762H14.3789H14.3817H14.3844H14.3872H14.3899H14.3927H14.3954H14.3982H14.4009H14.4037H14.4064H14.4092H14.4119H14.4147H14.4174H14.4202H14.4229H14.4257H14.4284H14.4312H14.434H14.4367H14.4395H14.4422H14.445H14.4477H14.4505H14.4532H14.456H14.4587H14.4615H14.4642H14.467H14.4697H14.4725H14.4752H14.478H14.4807H14.4835H14.4862H14.489H14.4918H14.4945H14.4973H14.5H14.5028H14.5055H14.5083H14.511H14.5138H14.5165H14.5193H14.522H14.5248H14.5275H14.5303H14.533H14.5358H14.5385H14.5413H14.5441H14.5468H14.5496H14.5523H14.5551H14.5578H14.5606H14.5633H14.5661H14.5688H14.5716H14.5743H14.5771H14.5798H14.5826H14.5853H14.5881H14.5908H14.5936H14.5963H14.5991H14.6019H14.6046H14.6074H14.6101H14.6129H14.6156H14.6184H14.6211H14.6239H14.6266H14.6294H14.6321H14.6349H14.6376H14.6404H14.6431H14.6459H14.6486H14.6514H14.6541H14.6569H14.6597H14.6624H14.6652H14.6679H14.6707H14.6734H14.6762H14.6789H14.6817H14.6844H14.6872H14.6899H14.6927H14.6954H14.6982H14.7009H14.7037H14.7064H14.7092H14.7119H14.7147H14.7175H14.7202H14.723H14.7257H14.7285H14.7312H14.734H14.7367H14.7395H14.7422H14.745H14.7477H14.7505H14.7532H14.756H14.7587H14.7615H14.7642H14.767H14.7697H14.7725H14.7753H14.778H14.7808H14.7835H14.7863H14.789H14.7918H14.7945H14.7973H14.8H14.8028H14.8055H14.8083H14.811H14.8138H14.8165H14.8193H14.822H14.8248H14.8276H14.8303H14.8331H14.8358H14.8386H14.8413H14.8441H14.8468H14.8496H14.8523H14.8551H14.8578H14.8606H14.8633H14.8661H14.8688H14.8716H14.8743H14.8771H14.8798H14.8826H14.8854H14.8881H14.8909H14.8936H14.8964H14.8991H14.9019H14.9046H14.9074H14.9101H14.9129H14.9156H14.9184H14.9211H14.9239H14.9266H14.9294H14.9321H14.9349H14.9376H14.9404H14.9432H14.9459H14.9487H14.9514H14.9542H14.9569H14.9597H14.9624H14.9652H14.9679H14.9707H14.9734H14.9762H14.9789H14.9817H14.9844H14.9872H14.9899H14.9927H14.9954H14.9982H15.001H15.0037H15.0065H15.0092H15.012H15.0147H15.0175H15.0202H15.023H15.0257H15.0285H15.0312H15.034H15.0367H15.0395H15.0422H15.045H15.0477H15.0505H15.0532H15.056H15.0588H15.0615H15.0643H15.067H15.0698H15.0725H15.0753H15.078H15.0808H15.0835H15.0863H15.089H15.0918H15.0945H15.0973H15.1H15.1028H15.1055H15.1083H15.1111H15.1138H15.1166H15.1193H15.1221H15.1248H15.1276H15.1303H15.1331H15.1358H15.1386H15.1413H15.1441H15.1468H15.1496H15.1523H15.1551H15.1578H15.1606H15.1633H15.1661H15.1689H15.1716H15.1744H15.1771H15.1799H15.1826H15.1854H15.1881H15.1909H15.1936H15.1964H15.1991H15.2019H15.2046H15.2074H15.2101H15.2129H15.2156H15.2184H15.2211H15.2239H15.2267H15.2294H15.2322H15.2349H15.2377H15.2404H15.2432H15.2459H15.2487H15.2514H15.2542H15.2569H15.2597H15.2624H15.2652H15.2679H15.2707H15.2734H15.2762H15.2789H15.2817H15.2845H15.2872H15.29H15.2927H15.2955H15.2982H15.301H15.3037H15.3065H15.3092H15.312H15.3147H15.3175H15.3202H15.323H15.3257H15.3285H15.3312H15.334H15.3367H15.3395H15.3423H15.345H15.3478H15.3505H15.3533H15.356H15.3588H15.3615H15.3643H15.3658C15.5123 23.8803 15.6579 23.8623 15.8027 23.8444C16.1115 23.8063 16.4171 23.7686 16.7221 23.7148M2.92921 9.9492L16.7395 23.8133M2.92921 9.9492C3.54551 6.6096 5.27692 3.99327 8.08306 2.08678L8.08306 2.08677C9.70247 0.986412 11.5068 0.365593 13.4549 0.156976L13.4549 0.156971C13.8541 0.114034 14.2584 0.100586 14.6633 0.100001M2.92921 9.9492L14.6633 0.100001M16.7221 23.7148L16.7395 23.8133M16.7221 23.7148C16.7221 23.7148 16.7221 23.7148 16.7221 23.7148L16.7395 23.8133M16.7221 23.7148C19.4304 23.236 21.7046 21.9671 23.5418 19.9325L23.616 19.9995C21.764 22.0505 19.4699 23.3306 16.7395 23.8133M26.5371 13.1959L26.6365 13.207L26.5371 13.1959C26.5371 13.1959 26.5371 13.1959 26.5371 13.1959ZM26.5371 13.1959C26.5557 13.0285 26.5749 12.8617 26.594 12.6951V12.6938V12.6921V12.6904V12.6886V12.6869V12.6851V12.6834V12.6817V12.6799V12.6782V12.6764V12.6747V12.673V12.6712V12.6695V12.6677V12.666V12.6642V12.6625V12.6608V12.659V12.6573V12.6555V12.6538V12.6521V12.6503V12.6486V12.6468V12.6451V12.6434V12.6416V12.6399V12.6381V12.6364V12.6347V12.6329V12.6312V12.6294V12.6277V12.626V12.6242V12.6225V12.6207V12.619V12.6173V12.6155V12.6138V12.612V12.6103V12.6086V12.6068V12.6051V12.6033V12.6016V12.5999V12.5981V12.5964V12.5946V12.5929V12.5912V12.5894V12.5877V12.5859V12.5842V12.5825V12.5807V12.579V12.5772V12.5755V12.5738V12.572V12.5703V12.5685V12.5668V12.5651V12.5633V12.5616V12.5598V12.5581V12.5564V12.5546V12.5529V12.5511V12.5494V12.5477V12.5459V12.5442V12.5424V12.5407V12.539V12.5372V12.5355V12.5337V12.532V12.5303V12.5285V12.5268V12.525V12.5233V12.5216V12.5198V12.5181V12.5163V12.5146V12.5129V12.5111V12.5094V12.5076V12.5059V12.5042V12.5024V12.5007V12.4989V12.4972V12.4955V12.4937V12.492V12.4902V12.4885V12.4868V12.485V12.4833V12.4815V12.4798V12.4781V12.4763V12.4746V12.4728V12.4711V12.4694V12.4676V12.4659V12.4641V12.4624V12.4607V12.4589V12.4572V12.4554V12.4537V12.452V12.4502V12.4485V12.4467V12.445V12.4433V12.4415V12.4398V12.4381V12.4363V12.4346V12.4328V12.4311V12.4294V12.4276V12.4259V12.4241V12.4224V12.4207V12.4189V12.4172V12.4154V12.4137V12.412V12.4102V12.4085V12.4067V12.405V12.4033V12.4015V12.3998V12.398V12.3963V12.3946V12.3928V12.3911V12.3893V12.3876V12.3859V12.3841V12.3824V12.3807V12.3789V12.3772V12.3754V12.3737V12.372V12.3702V12.3685V12.3667V12.365V12.3633V12.3615V12.3598V12.358V12.3563V12.3546V12.3528V12.3511V12.3493V12.3476V12.3459V12.3441V12.3424V12.3406V12.3389V12.3372V12.3354V12.3337V12.332V12.3302V12.3285V12.3267V12.325V12.3233V12.3215V12.3198V12.318V12.3163V12.3146V12.3128V12.3111V12.3093V12.3076V12.3059V12.3041V12.3024V12.3006V12.2989V12.2972V12.2954V12.2937V12.2919V12.2902V12.2885V12.2867V12.285V12.2833V12.2815V12.2798V12.278V12.2763V12.2746V12.2728V12.2711V12.2693V12.2676V12.2659V12.2641V12.2624V12.2606V12.2589V12.2572V12.2554V12.2537V12.2519V12.2502V12.2485V12.2467V12.245V12.2433V12.2415V12.2398V12.238V12.2363V12.2346V12.2328V12.2311V12.2293V12.2276V12.2259V12.2241V12.2224V12.2206V12.2189V12.2172V12.2154V12.2137V12.2119V12.2102V12.2085V12.2067V12.205V12.2033V12.2015V12.1998V12.198V12.1963V12.1946V12.1928V12.1911V12.1893V12.1876V12.1859V12.1841V12.1824V12.1806V12.1789V12.1772V12.1754V12.1737V12.1719V12.1702V12.1685V12.1667V12.165V12.1632V12.1615V12.1598V12.158V12.1563V12.1546V12.1528V12.1511V12.1493V12.1476V12.1459V12.1441V12.1424V12.1406V12.1389V12.1372V12.1354V12.1337V12.1319V12.1302V12.1285V12.1267V12.125V12.1232V12.1215V12.1198V12.118V12.1163V12.1145V12.1128V12.1111V12.1093V12.1076V12.1059V12.1041V12.1024V12.1006V12.0989V12.0972V12.0954V12.0937V12.0919V12.0902V12.0885V12.0867V12.085V12.0832V12.0815V12.0798V12.078V12.0763V12.0745V12.0728V12.0711V12.0693V12.0676V12.0658V12.0641V12.0624V12.0606V12.0589V12.0571V12.0554V12.0537V12.0519V12.0502V12.0484V12.0467V12.045V12.0432V12.0415V12.0398V12.038V12.0363V12.0345V12.0328V12.0311V12.0293V12.0276V12.0258V12.0241V12.0224V12.0206V12.0189V12.0171V12.0154V12.0137V12.0119V12.0102V12.0084V12.0067V12.005V12.0032V12.0015V11.9997V11.998V11.9963V11.9945V11.9928V11.991V11.9893V11.9876V11.9858V11.9841V11.9823V11.9806V11.9789V11.9771V11.9754V11.9736V11.9719V11.9702V11.9684V11.9667V11.9649V11.9632V11.9615V11.9597V11.958V11.9562V11.9545V11.9528V11.951V11.9493V11.9475V11.9458V11.9441V11.9423V11.9406V11.9388V11.9371V11.9354V11.9336V11.9319V11.9301V11.9284V11.9267V11.9249V11.9232V11.9214V11.9197V11.918V11.9162V11.9145V11.9127V11.911V11.9093V11.9075V11.9058V11.904V11.9023V11.9006V11.8988V11.8971V11.8953V11.8936V11.8919V11.8901V11.8884V11.8866V11.8849V11.8832V11.8814V11.8797V11.8779V11.8762V11.8745V11.8727V11.871V11.8692V11.8675V11.8657V11.864V11.8623V11.8605V11.8588V11.857V11.8553V11.8536V11.8518V11.8501V11.8483V11.8466V11.8449V11.8431V11.8414V11.8396V11.8379V11.8362V11.8347M26.5371 13.1959L26.594 11.8347M14.6633 0.100001C14.6633 0.100001 14.6633 0.100001 14.6634 0.100001C14.6633 0.100001 14.6633 0.100001 14.6633 0.100001ZM24.6308 14.6046L24.6308 14.6046C24.1212 16.6448 23.0381 18.3553 21.4484 19.7305L21.3829 19.6548L21.4484 19.7305C19.0233 21.8278 16.1965 22.6294 13.0382 22.153L13.0532 22.0541L13.0382 22.1529C10.6419 21.7912 8.61431 20.6767 7.01059 18.8578L7.0856 18.7917L24.6308 14.6046ZM24.6308 14.6046C24.76 14.0868 24.8225 13.5486 24.8841 13.0182C24.91 12.7947 24.9358 12.5727 24.9663 12.3541C24.9769 12.2785 24.9792 12.2028 24.9811 12.1331L24.9813 12.1288C24.9832 12.0589 24.985 11.9949 24.9929 11.9324L24.993 11.9321M24.6308 14.6046L24.993 11.9321M24.993 11.9321C25.0437 11.5226 25.3186 11.2444 25.6791 11.2048M24.993 11.9321L25.6791 11.2048M25.6791 11.2048C26.0777 11.1612 26.401 11.3598 26.5502 11.7443M25.6791 11.2048L26.5502 11.7443M26.5502 11.7443C26.5616 11.7742 26.5795 11.8075 26.5927 11.8321C26.5931 11.833 26.5936 11.8338 26.594 11.8347M26.5502 11.7443L26.594 11.8347" fill="#71B83E" stroke="white" stroke-width="0.2"/>
<path d="M13.8586 14.3232L13.7805 14.2099C13.7554 14.1735 13.7366 14.1451 13.7222 14.1234C13.7176 14.1164 13.7135 14.1101 13.7097 14.1045C13.6935 14.0803 13.686 14.07 13.6787 14.0622L13.7525 13.9946M13.8586 14.3232L13.0273 15.8771C12.8397 15.6739 12.6521 15.4707 12.4645 15.2674C11.1934 13.8905 9.92221 12.5134 8.65277 11.135C8.26288 10.7111 8.26464 10.1474 8.64749 9.79741C9.01976 9.45743 9.56114 9.47564 9.93224 9.85789C10.1825 10.1156 10.4249 10.381 10.6672 10.6463C10.7677 10.7564 10.8682 10.8664 10.9692 10.9759M13.8586 14.3232L13.9422 14.2139C13.9756 14.1704 14.0041 14.1308 14.0288 14.0966C14.0389 14.0826 14.0483 14.0696 14.0571 14.0576C14.0886 14.0146 14.1136 13.9827 14.1408 13.9555C15.546 12.5558 16.9514 11.1563 18.3568 9.75685C20.4652 7.65747 22.5735 5.55812 24.6807 3.45796C24.9286 3.2112 25.1764 3.06798 25.5095 3.13019L25.5095 3.13019C26.1069 3.24161 26.3691 3.92954 25.9968 4.40789L26.0757 4.46931L25.997 4.40761C25.947 4.47132 25.8885 4.52977 25.8253 4.59297L25.8137 4.60455L13.8586 14.3232ZM13.7525 13.9946L13.6789 14.0623C12.9436 13.2637 12.2075 12.4658 11.4716 11.668C11.2796 11.4599 11.0877 11.2518 10.8957 11.0437C10.8957 11.0437 10.8957 11.0437 10.8957 11.0437L10.9692 10.9759M13.7525 13.9946C13.7681 14.0117 13.7814 14.0315 13.8038 14.0654L10.9692 10.9759M13.7525 13.9946C13.0171 13.1959 12.281 12.398 11.5451 11.6002C11.3531 11.3921 11.1611 11.184 10.9692 10.9759M13.1008 15.8093C12.913 15.6059 12.7253 15.4025 12.5375 15.1991C11.2666 13.8223 9.99557 12.4455 8.72633 11.0673C8.36806 10.6777 8.37913 10.1782 8.71492 9.87125L13.1008 15.8093ZM13.8058 16.212C13.5858 16.2066 13.3537 16.0832 13.1008 15.8093L25.8136 4.6047C22.0504 8.35205 18.2871 12.0988 14.5234 15.845L14.5233 15.845C14.2614 16.1059 14.0256 16.2175 13.8058 16.212Z" fill="#71B83E" stroke="white" stroke-width="0.2"/>
</svg>
