<svg width="14" height="14" viewBox="0 0 14 14" fill="none" xmlns="http://www.w3.org/2000/svg">
<path d="M12.8335 2.33332H11.6668H9.91679V0.583324C9.91682 0.261324 9.65607 0 9.33347 0H4.66682C4.34425 0 4.0835 0.261324 4.0835 0.583324V2.33332H2.3335H1.16682C0.844246 2.33332 0.583496 2.59465 0.583496 2.91665C0.583496 3.23865 0.844219 3.5 1.16682 3.5H1.75014V12.25C1.75014 13.2148 2.53532 14 3.50014 14H10.5001C11.465 14 12.2501 13.2148 12.2501 12.25V3.5H12.8335C13.156 3.5 13.4168 3.23868 13.4168 2.91668C13.4168 2.59468 13.1561 2.33332 12.8335 2.33332ZM5.25014 1.16668H8.75015V2.33335H5.25014V1.16668ZM11.0835 12.25C11.0835 12.5714 10.8221 12.8333 10.5001 12.8333H3.50014C3.17814 12.8333 2.91682 12.5714 2.91682 12.25V3.5H4.66682H9.3335H11.0835V12.25H11.0835Z" fill="#A4A5A7"/>
<path d="M5.25032 4.66602C4.92774 4.66602 4.66699 4.92734 4.66699 5.24934V10.4993C4.66699 10.8213 4.92774 11.0827 5.25032 11.0827C5.57289 11.0827 5.83364 10.8213 5.83364 10.4993V5.24934C5.83364 4.92734 5.57289 4.66602 5.25032 4.66602Z" fill="#A4A5A7"/>
<path d="M8.75032 4.66602C8.42774 4.66602 8.16699 4.92734 8.16699 5.24934V10.4993C8.16699 10.8213 8.42774 11.0827 8.75032 11.0827C9.07289 11.0827 9.33364 10.8213 9.33364 10.4993V5.24934C9.33364 4.92734 9.07289 4.66602 8.75032 4.66602Z" fill="#A4A5A7"/>
</svg>
