<svg width="24" height="25" viewBox="0 0 24 25" fill="none" xmlns="http://www.w3.org/2000/svg">
<path d="M10.7876 4.3C11.3264 3.36667 12.6736 3.36667 13.2124 4.3L20.1406 16.3C20.6795 17.2333 20.0059 18.4 18.9282 18.4H5.0718C3.99408 18.4 3.3205 17.2333 3.85936 16.3L10.7876 4.3Z" stroke="black" stroke-width="1.2"/>
<line x1="14.5567" y1="6.72652" x2="16.3208" y2="9.8136" stroke="#F3F5F9" stroke-width="2"/>
<path d="M12.2585 13.76C12.1652 13.8533 12.0485 13.9 11.9085 13.9C11.7685 13.9 11.6485 13.8533 11.5485 13.76C11.4552 13.66 11.4052 13.54 11.3985 13.4L11.2785 9.27C11.2719 9.11667 11.3219 8.98333 11.4285 8.87C11.5419 8.75667 11.6752 8.7 11.8285 8.7H11.9885C12.1419 8.7 12.2719 8.75667 12.3785 8.87C12.4919 8.98333 12.5452 9.11667 12.5385 9.27L12.4185 13.4C12.4119 13.54 12.3585 13.66 12.2585 13.76ZM11.9385 14.7C12.0919 14.7 12.2252 14.7567 12.3385 14.87C12.4519 14.9833 12.5085 15.1167 12.5085 15.27V15.43C12.5085 15.5833 12.4519 15.7167 12.3385 15.83C12.2252 15.9433 12.0919 16 11.9385 16H11.8785C11.7252 16 11.5919 15.9433 11.4785 15.83C11.3652 15.7167 11.3085 15.5833 11.3085 15.43V15.27C11.3085 15.1167 11.3652 14.9833 11.4785 14.87C11.5919 14.7567 11.7252 14.7 11.8785 14.7H11.9385Z" fill="black"/>
</svg>
